<svg width="52" height="52" viewBox="0 0 52 52" fill="#43B4BC" xmlns="http://www.w3.org/2000/svg">
<path d="M3.58984 11.2078L13.0609 4.86398L17.9691 12.357L8.49809 18.7009L3.58984 11.2078Z" />
<path d="M8.92725 18.4936C8.80007 18.4936 8.67322 18.4807 8.5486 18.4551C8.30618 18.4062 8.07573 18.3092 7.87058 18.1698C7.66544 18.0303 7.48966 17.8511 7.35341 17.6426L4.10883 12.6878C3.97203 12.4793 3.87722 12.2456 3.82981 12C3.7824 11.7544 3.78332 11.5017 3.83252 11.2565C3.88173 11.0112 3.97825 10.7782 4.11656 10.5707C4.25488 10.3632 4.43228 10.1853 4.63863 10.0472L11.5973 5.38701C11.8035 5.24868 12.0347 5.1528 12.2776 5.10486C12.5204 5.05691 12.7703 5.05785 13.0128 5.1076C13.2553 5.15736 13.4858 5.25496 13.691 5.39483C13.8962 5.5347 14.0721 5.71409 14.2087 5.92275L17.4533 10.8754C17.5901 11.084 17.6849 11.3177 17.7323 11.5633C17.7797 11.8089 17.7788 12.0616 17.7296 12.3068C17.6804 12.552 17.5838 12.7851 17.4455 12.9926C17.3072 13.2001 17.1298 13.3779 16.9235 13.5161L9.96475 18.1778C9.6573 18.3843 9.29632 18.4942 8.92725 18.4936ZM12.6353 5.83134C12.4141 5.83146 12.1978 5.89772 12.0136 6.02177L5.05443 10.6835C4.80467 10.8509 4.63087 11.1117 4.57126 11.4086C4.51165 11.7055 4.57111 12.0142 4.73655 12.2669L7.98114 17.2195C8.14665 17.4721 8.40458 17.6479 8.69821 17.7081C8.99185 17.7684 9.29713 17.7083 9.54694 17.541L16.5056 12.8793C16.7555 12.7122 16.9295 12.4515 16.9894 12.1547C17.0493 11.8579 16.9902 11.5492 16.825 11.2964L13.5804 6.34373C13.4988 6.2184 13.3934 6.11069 13.2703 6.02684C13.1472 5.94298 13.0089 5.88465 12.8633 5.85521C12.7883 5.83954 12.7119 5.83154 12.6353 5.83134Z" fill="#1B2A43"/>
<path d="M5.36328 11.7655C6.06659 11.2767 6.85913 10.9343 7.69466 10.7585C8.53019 10.5826 9.392 10.5767 10.2298 10.7413C11.0676 10.9058 11.8646 11.2373 12.5743 11.7166C13.284 12.1959 13.8923 12.8133 14.3635 13.5328C14.8348 14.2523 15.1597 15.0595 15.3192 15.9074C15.4786 16.7552 15.4696 17.6266 15.2925 18.4708C15.1154 19.3151 14.7738 20.1152 14.2877 20.8245C13.8016 21.5338 13.1806 22.1382 12.4611 22.6023L5.36328 11.7655Z" fill="white"/>
<path d="M12.4591 22.9832C12.3969 22.9832 12.3357 22.9676 12.281 22.9378C12.2262 22.9081 12.1796 22.865 12.1452 22.8126L5.04693 11.9774C4.99183 11.8932 4.97204 11.7904 4.99191 11.6914C5.01178 11.5925 5.06968 11.5056 5.15289 11.4498C6.65708 10.4538 8.49003 10.1004 10.2511 10.4669C12.0122 10.8335 13.5582 11.8901 14.5511 13.4058C15.5441 14.9215 15.9033 16.7731 15.5503 18.5559C15.1972 20.3386 14.1606 21.9076 12.667 22.9198C12.6054 22.9611 12.5331 22.9832 12.4591 22.9832ZM5.88958 11.884L12.559 22.0646C13.7878 21.1261 14.6164 19.7492 14.876 18.2144C15.1356 16.6796 14.8067 15.1024 13.9563 13.8043C13.1059 12.5062 11.7981 11.5849 10.2992 11.2281C8.80035 10.8713 7.22335 11.1058 5.88958 11.884Z" fill="#1B2A43"/>
<path d="M3.7168 21.7942L30.5046 3.85132L49.6134 33.0233L22.8257 50.9663L3.7168 21.7942Z" />
<path d="M23.9634 49.7768C23.2368 49.7781 22.5212 49.5972 21.8808 49.2502C21.2403 48.9033 20.6949 48.4011 20.2935 47.7887L5.62076 25.3911C5.30168 24.9046 5.08054 24.3592 4.96999 23.7862C4.85943 23.2132 4.86163 22.6238 4.97645 22.0517C5.09127 21.4795 5.31646 20.9359 5.63916 20.4518C5.96186 19.9677 6.37573 19.5526 6.85713 19.2304L26.9443 5.77333C27.9163 5.12383 29.1033 4.8907 30.2449 5.12508C31.3866 5.35947 32.3898 6.04222 33.0343 7.02356L47.7075 29.4237C48.3498 30.4064 48.5804 31.6067 48.3487 32.7612C48.1171 33.9157 47.442 34.9301 46.4716 35.5819L26.3844 49.039C25.667 49.5208 24.8247 49.7775 23.9634 49.7768ZM29.3648 5.79719C28.6519 5.79749 27.955 6.01092 27.3616 6.41063L7.27444 19.8677C6.46965 20.4067 5.90947 21.2468 5.71708 22.2034C5.52469 23.1599 5.71584 24.1546 6.24849 24.9686L20.9212 47.3677C21.4545 48.1817 22.2857 48.7482 23.232 48.9425C24.1783 49.1367 25.1621 48.9429 25.9671 48.4037L46.0543 34.9466C46.8588 34.4069 47.4187 33.5664 47.611 32.6097C47.8033 31.653 47.6125 30.6582 47.0802 29.8436L32.4075 7.44911C32.1446 7.04529 31.805 6.69823 31.4085 6.42801C31.012 6.1578 30.5664 5.96979 30.0975 5.87489C29.8565 5.82426 29.611 5.79823 29.3648 5.79719Z" fill="#1B2A43"/>
<path d="M7.54753 16.2226L16.1276 10.4755C16.2651 10.3835 16.4191 10.3197 16.5809 10.2878C16.7428 10.2559 16.9092 10.2566 17.0708 10.2898C17.2324 10.323 17.3859 10.388 17.5226 10.4812C17.6593 10.5744 17.7765 10.6939 17.8676 10.8329L18.5392 11.8583L7.82398 19.0355L7.18003 18.0524C7.08535 17.9079 7.01974 17.7459 6.98697 17.5757C6.95419 17.4055 6.95489 17.2305 6.98901 17.0606C7.02314 16.8906 7.09002 16.7292 7.18585 16.5854C7.28168 16.4416 7.40458 16.3183 7.54753 16.2226V16.2226Z" fill="white"/>
<path d="M7.82195 19.4159C7.75967 19.416 7.69835 19.4005 7.64348 19.3707C7.58862 19.3409 7.54192 19.2978 7.50758 19.2453L6.86379 18.2622C6.74178 18.0759 6.65724 17.8672 6.61501 17.6479C6.57277 17.4286 6.57367 17.2031 6.61764 16.9841C6.66162 16.7652 6.74781 16.5571 6.8713 16.3719C6.99478 16.1866 7.15315 16.0278 7.33734 15.9044L15.9191 10.157C16.2798 9.91597 16.7204 9.82953 17.144 9.91665C17.5677 10.0038 17.9399 10.2573 18.1789 10.6216L18.8508 11.6469C18.9059 11.7311 18.9257 11.834 18.9058 11.9329C18.886 12.0318 18.8281 12.1187 18.7449 12.1745L8.02935 19.3525C7.96789 19.3938 7.89575 19.4159 7.82195 19.4159ZM16.816 10.644C16.6438 10.6441 16.4756 10.6957 16.3324 10.7923L7.75315 16.5392C7.65142 16.6073 7.56396 16.695 7.49575 16.7973C7.42755 16.8996 7.37994 17.0145 7.35565 17.1354C7.33135 17.2563 7.33084 17.3809 7.35416 17.502C7.37747 17.6231 7.42414 17.7384 7.49151 17.8412L7.9274 18.5064L18.0142 11.75L17.5507 11.0421C17.4872 10.9446 17.4052 10.8607 17.3094 10.7954C17.2136 10.7301 17.106 10.6847 16.9928 10.6618C16.9346 10.6499 16.8753 10.6439 16.816 10.644Z" fill="#1B2A43"/>
<path d="M7.27539 27.0756C7.27539 27.0756 14.8508 21.221 25.8626 22.9653C35.5823 24.5045 39.1101 17.03 39.1101 17.03L47.0756 29.1891C47.7226 30.177 47.955 31.3844 47.7219 32.5456C47.4887 33.7068 46.809 34.7268 45.8322 35.3814L26.434 48.3763C25.4571 49.0305 24.2631 49.2655 23.1148 49.0297C21.9665 48.794 20.9578 48.1066 20.3105 47.1189L7.27539 27.0756Z" fill="white"/>
<path d="M7.69276 27.8388C7.67181 27.8391 7.65114 27.834 7.63263 27.824C7.61412 27.8141 7.59837 27.7996 7.5868 27.782L7.17301 27.1457C7.15555 27.1188 7.1488 27.0863 7.15411 27.0547C7.15942 27.023 7.1764 26.9946 7.20163 26.975C7.21067 26.9684 7.42359 26.8039 7.83036 26.5383C7.85832 26.5211 7.89183 26.5156 7.92375 26.523C7.95568 26.5303 7.98348 26.5501 8.00124 26.5779C8.01899 26.6057 8.02529 26.6394 8.01879 26.6719C8.01229 26.7044 7.99351 26.733 7.96645 26.7516C7.72189 26.9116 7.54663 27.0355 7.4482 27.1071L7.79671 27.6428C7.80912 27.662 7.81617 27.6841 7.81713 27.707C7.81809 27.7299 7.81292 27.7526 7.80216 27.7727C7.79141 27.7929 7.77547 27.8097 7.75604 27.8214C7.7366 27.8331 7.71439 27.8393 7.69176 27.8393L7.69276 27.8388ZM9.14959 26.0199C9.12171 26.0199 9.09462 26.0106 9.07257 25.9933C9.05052 25.9761 9.03477 25.9519 9.02781 25.9246C9.02085 25.8973 9.02306 25.8685 9.03411 25.8426C9.04516 25.8167 9.06441 25.7953 9.08882 25.7817C9.50764 25.5491 9.94604 25.3247 10.391 25.1088C10.4211 25.0944 10.4556 25.0927 10.487 25.104C10.5183 25.1154 10.544 25.1388 10.5582 25.1693C10.5725 25.1997 10.5742 25.2346 10.563 25.2663C10.5517 25.298 10.5285 25.324 10.4984 25.3384C10.0575 25.5501 9.62364 25.7741 9.20935 26.0041C9.19103 26.0143 9.17049 26.0197 9.14959 26.0199ZM11.7765 24.7574C11.7473 24.7575 11.719 24.7473 11.6964 24.7286C11.6738 24.7099 11.6584 24.6838 11.6528 24.6548C11.6472 24.6258 11.6518 24.5958 11.6658 24.5698C11.6797 24.5439 11.7022 24.5237 11.7293 24.5127C12.1777 24.3278 12.6382 24.1526 13.0972 23.9922C13.1287 23.9812 13.1632 23.9833 13.1932 23.9981C13.2231 24.0128 13.2461 24.039 13.2569 24.0709C13.2678 24.1027 13.2657 24.1376 13.2511 24.1679C13.2365 24.1982 13.2106 24.2214 13.1791 24.2324C12.7241 24.3913 12.2681 24.5645 11.8232 24.7478C11.8085 24.7539 11.7929 24.7572 11.777 24.7574H11.7765ZM14.5254 23.7972C14.4949 23.7975 14.4654 23.7866 14.4423 23.7665C14.4191 23.7463 14.4041 23.7184 14.3998 23.6879C14.3956 23.6573 14.4025 23.6263 14.4192 23.6005C14.4359 23.5747 14.4614 23.556 14.4908 23.5478C14.9578 23.4127 15.4339 23.2893 15.9064 23.1807C15.9389 23.1732 15.973 23.1791 16.0012 23.197C16.0294 23.215 16.0494 23.2435 16.0568 23.2764C16.0642 23.3093 16.0584 23.3437 16.0406 23.3723C16.0229 23.4008 15.9947 23.421 15.9622 23.4285C15.4941 23.5361 15.0221 23.6585 14.5596 23.7921C14.5486 23.7953 14.5373 23.797 14.5259 23.7972H14.5254ZM28.9495 23.2893C28.933 23.2896 28.9167 23.2867 28.9013 23.2806C28.886 23.2745 28.872 23.2654 28.8601 23.2538C28.8482 23.2422 28.8387 23.2284 28.8321 23.2131C28.8256 23.1978 28.822 23.1813 28.8217 23.1647C28.8214 23.148 28.8244 23.1314 28.8304 23.1159C28.8365 23.1004 28.8455 23.0862 28.8569 23.0742C28.8684 23.0622 28.882 23.0526 28.8971 23.046C28.9123 23.0393 28.9285 23.0357 28.945 23.0354C29.4251 23.0185 29.9041 22.976 30.3797 22.908C30.3961 22.9056 30.4127 22.9065 30.4287 22.9106C30.4446 22.9148 30.4597 22.922 30.4728 22.932C30.486 22.942 30.4972 22.9546 30.5056 22.9689C30.514 22.9833 30.5195 22.9991 30.5219 23.0156C30.5242 23.0321 30.5233 23.0489 30.5192 23.0651C30.5151 23.0813 30.5079 23.0964 30.4981 23.1098C30.4882 23.1231 30.4758 23.1344 30.4616 23.1429C30.4474 23.1514 30.4317 23.157 30.4154 23.1593C29.9311 23.2299 29.4435 23.2744 28.9546 23.2929L28.9495 23.2893ZM27.4957 23.27H27.4882C27.0126 23.2411 26.522 23.1893 26.0319 23.1177C25.9989 23.1129 25.9692 23.095 25.9493 23.068C25.9294 23.041 25.9209 23.0071 25.9257 22.9737C25.9305 22.9404 25.9481 22.9104 25.9748 22.8902C26.0015 22.8701 26.0351 22.8615 26.068 22.8663C26.5521 22.9379 27.0352 22.9887 27.5038 23.0187C27.5371 23.0197 27.5686 23.034 27.5914 23.0586C27.6143 23.0831 27.6265 23.1158 27.6255 23.1494C27.6245 23.1831 27.6104 23.215 27.5861 23.2381C27.5619 23.2612 27.5295 23.2736 27.4962 23.2726L27.4957 23.27ZM17.3607 23.1426C17.3274 23.1454 17.2944 23.1348 17.2689 23.1129C17.2433 23.0911 17.2274 23.06 17.2246 23.0263C17.2218 22.9926 17.2324 22.9592 17.254 22.9334C17.2755 22.9076 17.3063 22.8915 17.3396 22.8887C17.8182 22.8064 18.3053 22.7363 18.7864 22.681C18.8197 22.6771 18.8532 22.6868 18.8794 22.7079C18.9056 22.729 18.9225 22.7598 18.9263 22.7935C18.9301 22.8271 18.9205 22.861 18.8996 22.8875C18.8788 22.914 18.8483 22.9311 18.815 22.9349C18.338 22.9897 17.8559 23.0593 17.3818 23.1411C17.3752 23.1429 17.3685 23.1443 17.3617 23.1451L17.3607 23.1426ZM24.6107 22.9232H24.5971C24.1191 22.8724 23.6335 22.8313 23.1544 22.8054C23.1211 22.8036 23.0899 22.7885 23.0676 22.7634C23.0453 22.7383 23.0338 22.7053 23.0356 22.6716C23.0374 22.6379 23.0524 22.6064 23.0772 22.5838C23.102 22.5613 23.1346 22.5497 23.1679 22.5515C23.6515 22.5774 24.1417 22.6175 24.6243 22.6703C24.6576 22.6721 24.6888 22.6873 24.711 22.7124C24.7333 22.7374 24.7448 22.7705 24.743 22.8041C24.7412 22.8378 24.7263 22.8694 24.7015 22.8919C24.6766 22.9144 24.644 22.926 24.6107 22.9242V22.9232ZM31.825 22.8724C31.7945 22.8725 31.7649 22.8612 31.742 22.8408C31.719 22.8204 31.7042 22.7923 31.7004 22.7616C31.6965 22.731 31.7038 22.6999 31.7209 22.6743C31.738 22.6487 31.7638 22.6303 31.7934 22.6226C32.2575 22.4995 32.7138 22.3481 33.1598 22.1691C33.1908 22.1567 33.2254 22.1571 33.256 22.1705C33.2866 22.1838 33.3107 22.2089 33.323 22.2402C33.3353 22.2715 33.3349 22.3065 33.3217 22.3374C33.3085 22.3684 33.2837 22.3928 33.2527 22.4052C32.7972 22.588 32.3312 22.7426 31.8572 22.8684C31.8459 22.8717 31.8342 22.8734 31.8225 22.8734L31.825 22.8724ZM20.2533 22.811C20.2368 22.8115 20.2204 22.8086 20.205 22.8027C20.1896 22.7967 20.1755 22.7878 20.1635 22.7763C20.1515 22.7649 20.1419 22.7511 20.1351 22.7359C20.1284 22.7207 20.1247 22.7043 20.1242 22.6876C20.1238 22.6709 20.1266 22.6543 20.1324 22.6387C20.1383 22.6232 20.1472 22.6089 20.1585 22.5968C20.1814 22.5723 20.213 22.558 20.2463 22.5571C20.7304 22.5286 21.222 22.5139 21.7071 22.5124C21.7404 22.5124 21.7723 22.5258 21.7959 22.5496C21.8194 22.5734 21.8326 22.6057 21.8326 22.6393C21.8326 22.673 21.8194 22.7053 21.7959 22.7291C21.7723 22.7529 21.7404 22.7663 21.7071 22.7663C21.2265 22.7663 20.7399 22.7825 20.2603 22.8105L20.2533 22.811ZM34.5207 21.7867C34.4928 21.7868 34.4657 21.7774 34.4437 21.7602C34.4217 21.743 34.4059 21.7188 34.3989 21.6915C34.392 21.6642 34.3942 21.6353 34.4052 21.6095C34.4163 21.5836 34.4355 21.5622 34.46 21.5486C34.8803 21.3144 35.2858 21.054 35.6742 20.7691C35.701 20.7538 35.7323 20.749 35.7623 20.7555C35.7923 20.762 35.8189 20.7794 35.8371 20.8044C35.8553 20.8294 35.8638 20.8603 35.861 20.8912C35.8582 20.9222 35.8443 20.951 35.8219 20.9722C35.4251 21.2633 35.0108 21.5292 34.5815 21.7684C34.5625 21.7805 34.5406 21.7872 34.5182 21.7877L34.5207 21.7867ZM36.8704 20.0642C36.8452 20.0642 36.8206 20.0565 36.7998 20.0421C36.779 20.0278 36.7629 20.0074 36.7537 19.9837C36.7445 19.96 36.7426 19.934 36.7482 19.9091C36.7537 19.8843 36.7666 19.8617 36.785 19.8443C37.1364 19.5134 37.4678 19.1613 37.7774 18.7901C37.7877 18.7766 37.8007 18.7654 37.8155 18.7571C37.8302 18.7488 37.8465 18.7436 37.8633 18.7418C37.8802 18.74 37.8971 18.7417 37.9133 18.7467C37.9295 18.7517 37.9445 18.76 37.9574 18.771C37.9703 18.782 37.9809 18.7955 37.9885 18.8108C37.9962 18.8261 38.0007 18.8427 38.0018 18.8598C38.0029 18.8768 38.0005 18.8939 37.9949 18.9101C37.9893 18.9262 37.9806 18.941 37.9692 18.9536C37.6531 19.3327 37.3146 19.6922 36.9558 20.0302C36.9322 20.0531 36.9006 20.0656 36.8679 20.0652L36.8704 20.0642ZM38.737 17.8161C38.7145 17.8161 38.6924 17.8099 38.6731 17.7983C38.6537 17.7867 38.6378 17.77 38.627 17.75C38.6162 17.73 38.611 17.7074 38.6118 17.6847C38.6126 17.6619 38.6194 17.6398 38.6316 17.6206C38.7663 17.4125 38.8895 17.1971 39.0007 16.9752C39.0102 16.9549 39.0249 16.9375 39.0433 16.9249C39.0616 16.9122 39.083 16.9047 39.1051 16.9031C39.1273 16.9017 39.1494 16.9061 39.1693 16.916C39.1892 16.9259 39.2062 16.9409 39.2186 16.9595L39.6344 17.5942C39.6528 17.6223 39.6594 17.6566 39.6528 17.6896C39.6461 17.7226 39.6268 17.7516 39.599 17.7702C39.5712 17.7888 39.5373 17.7954 39.5047 17.7887C39.472 17.782 39.4434 17.7625 39.425 17.7344L39.1237 17.2774C39.0604 17.3931 38.967 17.5561 38.8405 17.7562C38.8295 17.7741 38.8143 17.7889 38.7962 17.7994C38.7782 17.8099 38.7578 17.8156 38.737 17.8161ZM23.7811 49.2421H23.7746C23.2578 49.2162 22.7492 49.1015 22.2705 48.9029C22.2553 48.8966 22.2414 48.8872 22.2297 48.8755C22.218 48.8637 22.2087 48.8497 22.2023 48.8344C22.1959 48.819 22.1926 48.8024 22.1926 48.7858C22.1925 48.7691 22.1957 48.7525 22.202 48.7371C22.2083 48.7217 22.2175 48.7076 22.2291 48.6958C22.2407 48.6839 22.2546 48.6745 22.2698 48.6681C22.285 48.6617 22.3013 48.6583 22.3178 48.6583C22.3343 48.6582 22.3507 48.6614 22.366 48.6678C22.8182 48.8554 23.2988 48.9638 23.7871 48.9882C23.8204 48.989 23.852 49.0032 23.875 49.0275C23.898 49.0519 23.9105 49.0845 23.9097 49.1182C23.9089 49.1519 23.8949 49.1838 23.8708 49.2071C23.8466 49.2303 23.8144 49.2429 23.7811 49.2421ZM25.2686 49.0598C25.2382 49.0601 25.2089 49.0492 25.1859 49.0293C25.1628 49.0093 25.1477 48.9816 25.1433 48.9513C25.1389 48.921 25.1455 48.8901 25.1619 48.8643C25.1783 48.8385 25.2033 48.8196 25.2324 48.811C25.6352 48.6879 26.0179 48.5057 26.3683 48.2702L26.5431 48.1534C26.5709 48.1348 26.6048 48.1281 26.6374 48.1348C26.6701 48.1415 26.6987 48.1611 26.7171 48.1892C26.7355 48.2172 26.7421 48.2516 26.7354 48.2846C26.7288 48.3176 26.7095 48.3465 26.6817 48.3651L26.5069 48.4819C26.136 48.7308 25.7309 48.9233 25.3047 49.0532C25.293 49.0568 25.2808 49.0587 25.2686 49.0588V49.0598ZM21.0502 48.1082C21.0193 48.1082 20.9894 48.0966 20.9664 48.0757C20.6792 47.8139 20.4261 47.5163 20.2131 47.19L20.0052 46.8706C19.9869 46.8425 19.9804 46.8081 19.9871 46.7751C19.9939 46.7421 20.0133 46.7132 20.0411 46.6947C20.069 46.6762 20.1029 46.6696 20.1356 46.6764C20.1682 46.6832 20.1968 46.7028 20.2151 46.731L20.423 47.0504C20.6248 47.3587 20.8646 47.6397 21.1366 47.8868C21.1555 47.9039 21.1688 47.9265 21.1748 47.9515C21.1807 47.9764 21.1791 48.0026 21.17 48.0266C21.1609 48.0506 21.1448 48.0713 21.1239 48.0858C21.103 48.1004 21.0782 48.1082 21.0528 48.1082H21.0502ZM27.8693 47.5465C27.8424 47.5465 27.8163 47.5376 27.7947 47.5214C27.7731 47.5051 27.7573 47.4823 27.7495 47.4562C27.7417 47.4301 27.7424 47.4023 27.7515 47.3766C27.7606 47.351 27.7777 47.3291 27.8 47.314L29.0555 46.473C29.0833 46.4544 29.1172 46.4478 29.1498 46.4545C29.1825 46.4612 29.2111 46.4807 29.2295 46.5088C29.2479 46.5369 29.2545 46.5712 29.2478 46.6042C29.2412 46.6372 29.2219 46.6662 29.1941 46.6848L27.9386 47.5257C27.9175 47.5392 27.8928 47.5459 27.8678 47.545L27.8693 47.5465ZM30.3802 45.8647C30.3533 45.8646 30.3272 45.8558 30.3056 45.8395C30.284 45.8232 30.2682 45.8004 30.2604 45.7743C30.2526 45.7483 30.2533 45.7204 30.2624 45.6948C30.2715 45.6692 30.2886 45.6472 30.3109 45.6321L31.5664 44.7911C31.5942 44.7726 31.6281 44.7659 31.6607 44.7726C31.6934 44.7793 31.722 44.7989 31.7404 44.8269C31.7588 44.855 31.7654 44.8893 31.7587 44.9223C31.7521 44.9553 31.7328 44.9843 31.705 45.0029L30.4495 45.8438C30.4284 45.8573 30.4037 45.864 30.3787 45.8631L30.3802 45.8647ZM19.2821 45.6554C19.2612 45.6554 19.2407 45.6502 19.2224 45.6402C19.2041 45.6301 19.1885 45.6157 19.1771 45.5981L18.3495 44.3255C18.3405 44.3115 18.3342 44.2959 18.3311 44.2795C18.328 44.2632 18.3281 44.2463 18.3314 44.23C18.3348 44.2136 18.3413 44.1981 18.3505 44.1843C18.3598 44.1705 18.3716 44.1587 18.3854 44.1495C18.3992 44.1404 18.4146 44.134 18.4308 44.1309C18.4471 44.1277 18.4637 44.1279 18.4799 44.1312C18.496 44.1346 18.5114 44.1412 18.525 44.1505C18.5387 44.1599 18.5504 44.1719 18.5594 44.1858L19.387 45.4584C19.3994 45.4775 19.4065 45.4997 19.4074 45.5226C19.4084 45.5455 19.4032 45.5682 19.3925 45.5883C19.3817 45.6084 19.3658 45.6253 19.3463 45.637C19.3269 45.6487 19.3047 45.6549 19.2821 45.6549V45.6554ZM32.8911 44.1828C32.8642 44.1827 32.8381 44.1739 32.8165 44.1576C32.7949 44.1414 32.779 44.1185 32.7713 44.0925C32.7635 44.0664 32.7642 44.0385 32.7733 44.0129C32.7824 43.9873 32.7995 43.9653 32.8218 43.9502L34.0773 43.1093C34.091 43.1001 34.1065 43.0937 34.1226 43.0905C34.1388 43.0873 34.1555 43.0874 34.1716 43.0907C34.1878 43.094 34.2031 43.1006 34.2168 43.1099C34.2305 43.1192 34.2422 43.1312 34.2513 43.1451C34.2604 43.159 34.2667 43.1746 34.2699 43.1909C34.273 43.2073 34.2729 43.2241 34.2696 43.2405C34.2663 43.2568 34.2599 43.2723 34.2507 43.2861C34.2415 43.3 34.2296 43.3118 34.2159 43.321L32.9604 44.162C32.9393 44.1754 32.9146 44.1821 32.8896 44.1813L32.8911 44.1828ZM17.6249 43.1113C17.604 43.1113 17.5835 43.106 17.5652 43.096C17.5469 43.086 17.5313 43.0715 17.5199 43.0539L16.6923 41.7813C16.674 41.7532 16.6675 41.7188 16.6742 41.6858C16.681 41.6528 16.7004 41.6239 16.7282 41.6054C16.7561 41.5869 16.79 41.5803 16.8227 41.5871C16.8553 41.5939 16.8839 41.6135 16.9022 41.6417L17.7308 42.9127C17.7432 42.9319 17.7503 42.9541 17.7513 42.9769C17.7522 42.9998 17.747 43.0225 17.7363 43.0426C17.7255 43.0628 17.7096 43.0796 17.6902 43.0913C17.6707 43.1031 17.6485 43.1093 17.6259 43.1093L17.6249 43.1113ZM35.402 42.5019C35.3751 42.5018 35.349 42.493 35.3274 42.4768C35.3058 42.4605 35.29 42.4377 35.2822 42.4116C35.2744 42.3855 35.2751 42.3576 35.2842 42.332C35.2933 42.3064 35.3104 42.2844 35.3327 42.2693L36.5882 41.4284C36.616 41.4098 36.6499 41.4032 36.6825 41.4099C36.7152 41.4166 36.7438 41.4361 36.7622 41.4642C36.7806 41.4923 36.7872 41.5266 36.7805 41.5596C36.7739 41.5926 36.7546 41.6216 36.7268 41.6402L35.4713 42.4811C35.4501 42.4942 35.4254 42.5006 35.4005 42.4994L35.402 42.5019ZM37.9129 40.82C37.886 40.82 37.8599 40.8111 37.8383 40.7949C37.8167 40.7786 37.8008 40.7558 37.7931 40.7297C37.7853 40.7037 37.786 40.6758 37.7951 40.6502C37.8042 40.6245 37.8213 40.6026 37.8436 40.5875L39.0991 39.7465C39.1128 39.7373 39.1283 39.731 39.1444 39.7278C39.1606 39.7246 39.1773 39.7247 39.1934 39.728C39.2096 39.7313 39.2249 39.7378 39.2386 39.7471C39.2523 39.7565 39.264 39.7684 39.2731 39.7823C39.2822 39.7962 39.2885 39.8118 39.2916 39.8282C39.2948 39.8446 39.2947 39.8614 39.2914 39.8777C39.2881 39.8941 39.2817 39.9096 39.2725 39.9234C39.2633 39.9372 39.2514 39.9491 39.2377 39.9583L37.9822 40.7992C37.9609 40.8121 37.9363 40.8183 37.9114 40.817L37.9129 40.82ZM15.9707 40.5661C15.9499 40.5661 15.9294 40.5609 15.911 40.5509C15.8927 40.5408 15.8772 40.5264 15.8657 40.5088L15.0381 39.2367C15.0198 39.2085 15.0133 39.1742 15.0201 39.1412C15.0268 39.1082 15.0462 39.0792 15.0741 39.0607C15.1019 39.0422 15.1359 39.0356 15.1685 39.0424C15.2011 39.0493 15.2297 39.0689 15.2481 39.097L16.0736 40.3681C16.086 40.3872 16.0931 40.4094 16.0941 40.4323C16.095 40.4551 16.0898 40.4779 16.0791 40.498C16.0683 40.5181 16.0524 40.535 16.033 40.5467C16.0135 40.5584 15.9913 40.5646 15.9687 40.5646L15.9707 40.5661ZM40.4223 39.1366C40.3954 39.1366 40.3692 39.1278 40.3477 39.1115C40.3261 39.0952 40.3102 39.0724 40.3025 39.0463C40.2947 39.0203 40.2954 38.9924 40.3045 38.9668C40.3136 38.9411 40.3306 38.9192 40.353 38.9041L41.6085 38.0631C41.6363 38.0445 41.6702 38.0379 41.7028 38.0446C41.7355 38.0513 41.7641 38.0709 41.7825 38.0989C41.8009 38.127 41.8075 38.1613 41.8008 38.1943C41.7942 38.2273 41.7749 38.2563 41.7471 38.2749L40.4916 39.1158C40.4711 39.1295 40.447 39.1368 40.4223 39.1366ZM14.316 38.0195C14.2952 38.0195 14.2747 38.0142 14.2564 38.0042C14.238 37.9942 14.2225 37.9797 14.2111 37.9621L13.382 36.6905C13.3636 36.6624 13.3571 36.628 13.3639 36.595C13.3706 36.562 13.39 36.5331 13.4179 36.5146C13.4457 36.496 13.4797 36.4895 13.5123 36.4963C13.5449 36.5031 13.5736 36.5227 13.5919 36.5509L14.4195 37.8229C14.4318 37.842 14.4388 37.864 14.4399 37.8867C14.4409 37.9095 14.4358 37.9321 14.4253 37.9522C14.4147 37.9723 14.399 37.9891 14.3798 38.0009C14.3605 38.0128 14.3385 38.0192 14.316 38.0195ZM42.9347 37.4527C42.9078 37.4527 42.8816 37.4438 42.8601 37.4276C42.8385 37.4113 42.8226 37.3885 42.8149 37.3624C42.8071 37.3364 42.8078 37.3085 42.8169 37.2829C42.826 37.2572 42.843 37.2353 42.8654 37.2202L44.1209 36.3792C44.1346 36.37 44.1501 36.3637 44.1662 36.3605C44.1824 36.3573 44.1991 36.3574 44.2152 36.3607C44.2314 36.364 44.2467 36.3705 44.2604 36.3798C44.2741 36.3892 44.2858 36.4011 44.2949 36.415C44.304 36.4289 44.3103 36.4445 44.3134 36.4609C44.3166 36.4772 44.3165 36.4941 44.3132 36.5104C44.3099 36.5268 44.3035 36.5423 44.2943 36.5561C44.2851 36.5699 44.2732 36.5818 44.2595 36.591L43.004 37.4319C42.9831 37.4461 42.9584 37.4535 42.9332 37.4532L42.9347 37.4527ZM45.4456 35.7709C45.4187 35.7708 45.3925 35.762 45.371 35.7457C45.3494 35.7294 45.3335 35.7066 45.3258 35.6805C45.318 35.6545 45.3187 35.6266 45.3278 35.601C45.3369 35.5754 45.3539 35.5534 45.3763 35.5383L45.7685 35.2757C46.0485 35.0883 46.3058 34.8685 46.5354 34.6207C46.5581 34.5961 46.5896 34.5817 46.6229 34.5806C46.6562 34.5795 46.6886 34.5918 46.7129 34.6148C46.7372 34.6379 46.7515 34.6697 46.7525 34.7034C46.7536 34.737 46.7414 34.7698 46.7187 34.7943C46.4745 35.0568 46.2008 35.2894 45.9031 35.4875L45.5109 35.75C45.4911 35.7634 45.468 35.7708 45.4441 35.7714L45.4456 35.7709ZM12.6588 35.4753C12.638 35.4753 12.6175 35.4701 12.5992 35.46C12.5808 35.45 12.5653 35.4356 12.5539 35.4179L11.7263 34.1459C11.708 34.1177 11.7015 34.0834 11.7082 34.0504C11.7149 34.0174 11.7343 33.9884 11.7622 33.9699C11.79 33.9514 11.824 33.9448 11.8566 33.9516C11.8892 33.9584 11.9179 33.9781 11.9362 34.0062L12.7643 35.2773C12.7771 35.2965 12.7845 35.3189 12.7857 35.342C12.7868 35.3651 12.7817 35.3882 12.7708 35.4086C12.7599 35.429 12.7438 35.446 12.724 35.4577C12.7043 35.4695 12.6817 35.4756 12.6588 35.4753ZM47.4468 33.568C47.426 33.568 47.4055 33.5627 47.3871 33.5527C47.3688 33.5427 47.3532 33.5282 47.3418 33.5105C47.3304 33.4929 47.3235 33.4727 47.3218 33.4517C47.32 33.4307 47.3235 33.4096 47.3318 33.3902C47.5268 32.9368 47.644 32.453 47.6783 31.9597C47.6795 31.9431 47.6839 31.9268 47.6913 31.9118C47.6986 31.8969 47.7088 31.8835 47.7213 31.8726C47.7338 31.8616 47.7483 31.8532 47.764 31.8479C47.7796 31.8426 47.7962 31.8405 47.8127 31.8417C47.8292 31.8428 47.8453 31.8473 47.86 31.8547C47.8748 31.8622 47.888 31.8725 47.8989 31.8851C47.9097 31.8978 47.918 31.9124 47.9232 31.9282C47.9285 31.9441 47.9306 31.9608 47.9294 31.9775C47.8931 32.4993 47.7691 33.0111 47.5628 33.4908C47.5532 33.5137 47.5371 33.5332 47.5166 33.5469C47.496 33.5607 47.4719 33.568 47.4473 33.568H47.4468ZM11.0046 32.9307C10.9838 32.9307 10.9633 32.9254 10.945 32.9154C10.9267 32.9054 10.9111 32.8909 10.8997 32.8733L10.0721 31.6012C10.0538 31.5731 10.0473 31.5387 10.054 31.5057C10.0607 31.4727 10.0802 31.4438 10.108 31.4253C10.1358 31.4067 10.1698 31.4002 10.2024 31.407C10.2351 31.4138 10.2637 31.4334 10.282 31.4616L11.1096 32.7336C11.122 32.7528 11.1291 32.775 11.13 32.7978C11.131 32.8207 11.1258 32.8434 11.115 32.8635C11.1043 32.8837 11.0884 32.9005 11.0689 32.9122C11.0495 32.924 11.0273 32.9302 11.0046 32.9302V32.9307ZM47.6547 30.5881C47.6273 30.5881 47.6006 30.5791 47.5787 30.5623C47.5569 30.5455 47.5411 30.5219 47.5337 30.4952C47.4128 30.0561 47.2241 29.6389 46.9748 29.2592L46.91 29.1607C46.8916 29.1326 46.885 29.0983 46.8917 29.0653C46.8983 29.0323 46.9176 29.0033 46.9454 28.9847C46.9732 28.9661 47.0071 28.9595 47.0397 28.9662C47.0724 28.9729 47.101 28.9924 47.1194 29.0205L47.1842 29.119C47.4481 29.5209 47.6477 29.9624 47.7758 30.4272C47.7802 30.4432 47.7814 30.46 47.7794 30.4766C47.7774 30.4931 47.7722 30.5091 47.7641 30.5237C47.756 30.5382 47.7451 30.551 47.7321 30.5612C47.7191 30.5715 47.7043 30.5791 47.6884 30.5836C47.6774 30.5866 47.6661 30.5881 47.6547 30.5881ZM9.34996 30.385C9.32913 30.385 9.30863 30.3797 9.29031 30.3697C9.27198 30.3597 9.25642 30.3452 9.245 30.3276L8.41691 29.0566C8.40784 29.0426 8.40157 29.027 8.39847 29.0106C8.39537 28.9943 8.39549 28.9774 8.39882 28.9611C8.40216 28.9447 8.40864 28.9292 8.4179 28.9154C8.42717 28.9016 8.43903 28.8898 8.45281 28.8806C8.46659 28.8714 8.48203 28.8651 8.49823 28.862C8.51444 28.8588 8.53109 28.859 8.54725 28.8623C8.56341 28.8657 8.57875 28.8723 8.5924 28.8816C8.60606 28.891 8.61775 28.903 8.62682 28.9169L9.45441 30.189C9.46681 30.2081 9.47387 30.2303 9.47483 30.2532C9.47579 30.276 9.47061 30.2988 9.45986 30.3189C9.4491 30.339 9.43317 30.3559 9.41373 30.3676C9.3943 30.3793 9.37209 30.3855 9.34945 30.3855L9.34996 30.385ZM46.1838 27.9475C46.1631 27.9476 46.1426 27.9424 46.1243 27.9325C46.106 27.9225 46.0904 27.9082 46.0789 27.8906L45.2473 26.6211C45.2289 26.593 45.2223 26.5587 45.2289 26.5257C45.2356 26.4927 45.2549 26.4637 45.2827 26.4451C45.3105 26.4266 45.3444 26.4199 45.377 26.4266C45.4097 26.4333 45.4383 26.4529 45.4567 26.4809L46.2883 27.7505C46.3008 27.7696 46.308 27.7918 46.309 27.8147C46.3101 27.8376 46.305 27.8603 46.2943 27.8805C46.2836 27.9007 46.2676 27.9176 46.2482 27.9294C46.2288 27.9412 46.2065 27.9475 46.1838 27.9475ZM44.5206 25.4084C44.4998 25.4085 44.4794 25.4033 44.4611 25.3934C44.4427 25.3835 44.4271 25.3691 44.4157 25.3516L43.5841 24.082C43.5657 24.054 43.5591 24.0196 43.5657 23.9866C43.5724 23.9537 43.5917 23.9247 43.6195 23.9061C43.6472 23.8875 43.6812 23.8808 43.7138 23.8875C43.7464 23.8943 43.7751 23.9138 43.7935 23.9419L44.6251 25.2114C44.6376 25.2305 44.6448 25.2527 44.6458 25.2756C44.6469 25.2985 44.6418 25.3213 44.631 25.3415C44.6203 25.3617 44.6044 25.3786 44.585 25.3904C44.5655 25.4022 44.5433 25.4084 44.5206 25.4084ZM42.8574 22.8694C42.8366 22.8694 42.8162 22.8643 42.7978 22.8543C42.7795 22.8444 42.7639 22.83 42.7525 22.8125L41.9208 21.543C41.9025 21.5149 41.8959 21.4806 41.9025 21.4476C41.9091 21.4146 41.9285 21.3856 41.9562 21.367C41.984 21.3484 42.0179 21.3418 42.0506 21.3485C42.0832 21.3552 42.1119 21.3747 42.1302 21.4028L42.9619 22.6724C42.9744 22.6915 42.9815 22.7137 42.9826 22.7366C42.9836 22.7595 42.9785 22.7822 42.9678 22.8024C42.9571 22.8226 42.9412 22.8395 42.9218 22.8513C42.9023 22.8631 42.8801 22.8693 42.8574 22.8694ZM41.1942 20.3303C41.1734 20.3304 41.1529 20.3252 41.1346 20.3153C41.1163 20.3053 41.1007 20.291 41.0892 20.2734L40.2576 19.0039C40.2392 18.9758 40.2326 18.9415 40.2393 18.9085C40.2459 18.8755 40.2653 18.8465 40.293 18.828C40.3208 18.8094 40.3547 18.8027 40.3874 18.8094C40.42 18.8161 40.4487 18.8357 40.467 18.8638L41.2986 20.1333C41.3112 20.1524 41.3183 20.1746 41.3194 20.1975C41.3204 20.2204 41.3153 20.2431 41.3046 20.2634C41.2939 20.2836 41.278 20.3004 41.2585 20.3122C41.2391 20.324 41.2169 20.3303 41.1942 20.3303Z" fill="#1B2A43"/>
<path d="M23.9634 49.7768C23.2368 49.7781 22.5212 49.5972 21.8808 49.2502C21.2403 48.9033 20.6949 48.4011 20.2935 47.7887L5.62076 25.3911C5.30168 24.9046 5.08054 24.3592 4.96999 23.7862C4.85943 23.2132 4.86163 22.6238 4.97645 22.0517C5.09127 21.4795 5.31646 20.9359 5.63916 20.4518C5.96186 19.9677 6.37573 19.5526 6.85713 19.2304L26.9443 5.77333C27.9163 5.12383 29.1033 4.8907 30.2449 5.12508C31.3866 5.35947 32.3898 6.04222 33.0343 7.02356L47.7075 29.4237C48.3498 30.4064 48.5804 31.6067 48.3487 32.7612C48.1171 33.9157 47.442 34.9301 46.4716 35.5819L26.3844 49.039C25.667 49.5208 24.8247 49.7775 23.9634 49.7768ZM29.3648 5.79719C28.6519 5.79749 27.955 6.01092 27.3616 6.41063L7.27444 19.8677C6.46965 20.4067 5.90947 21.2468 5.71708 22.2034C5.52469 23.1599 5.71584 24.1546 6.24849 24.9686L20.9212 47.3677C21.4545 48.1818 22.2857 48.7482 23.232 48.9425C24.1783 49.1367 25.1621 48.9429 25.9671 48.4037L46.0543 34.9467C46.8588 34.4069 47.4187 33.5664 47.611 32.6097C47.8034 31.653 47.6125 30.6582 47.0802 29.8436L32.4075 7.44911C32.1446 7.04529 31.805 6.69823 31.4085 6.42801C31.012 6.1578 30.5664 5.96979 30.0975 5.87489C29.8565 5.82426 29.611 5.79823 29.3648 5.79719Z" fill="#1B2A43"/>
<path d="M27.1594 23.8133C27.817 24.8171 28.5627 25.7478 29.3539 26.5522C30.1451 27.3566 30.9663 28.0189 31.7707 28.5014C32.5751 28.9839 33.3469 29.277 34.042 29.3641C34.7372 29.4512 35.342 29.3306 35.822 29.0091C36.3021 28.6875 36.6479 28.1714 36.8397 27.4902C37.0316 26.809 37.0657 25.976 36.9402 25.0388C36.8146 24.1016 36.5319 23.0786 36.1081 22.0281C35.6843 20.9776 35.1277 19.9203 34.4701 18.9164C33.1421 16.8891 31.4834 15.2027 29.8589 14.2283C28.2343 13.2539 26.777 13.0713 25.8075 13.7207C24.8381 14.37 24.4359 15.7982 24.6894 17.6909C24.9429 19.5836 25.8314 21.7859 27.1594 23.8133Z"/>
<path d="M34.4698 29.7743C33.6131 29.7743 32.6298 29.4564 31.5813 28.8272C29.8975 27.8172 28.2167 26.1109 26.8482 24.0223C25.4798 21.9337 24.5819 19.7028 24.3188 17.7412C24.0431 15.6825 24.4985 14.1413 25.6018 13.4024C26.7051 12.6635 28.286 12.8398 30.0532 13.8996C31.737 14.9096 33.4178 16.6159 34.7862 18.7045C36.1546 20.7931 37.0525 23.0239 37.3157 24.9856C37.5914 27.0443 37.1359 28.5855 36.0326 29.3244C35.5842 29.625 35.0564 29.7743 34.4698 29.7743ZM27.1691 13.7127C26.7287 13.7127 26.34 13.8203 26.0141 14.0372C25.1649 14.6059 24.8265 15.8851 25.06 17.6386C25.3081 19.4891 26.1648 21.6066 27.4704 23.6013C28.7761 25.596 30.3715 27.2195 31.9599 28.1716C33.4665 29.0745 34.7616 29.2578 35.6113 28.6891C36.461 28.1203 36.7989 26.8412 36.5654 25.0877C36.3174 23.2372 35.4606 21.1196 34.155 19.125C32.8493 17.1303 31.2539 15.5068 29.6655 14.5546C28.7375 13.996 27.8858 13.7127 27.1691 13.7127Z" fill="#1B2A43"/>
</svg>
