<svg width="52" height="52" viewBox="0 0 52 52" xmlns="http://www.w3.org/2000/svg" fill="#43B4BC">
<path d="M25.0849 6.73928L25.0849 6.73931L25.0887 6.73548C25.3992 6.42151 25.8843 6.42151 26.1947 6.73548L26.1947 6.7355L26.1985 6.73928C26.4946 7.03229 30.1441 10.7192 33.7156 15.3769C35.5016 17.706 37.2593 20.2666 38.5685 22.7589C39.8836 25.2627 40.717 27.6439 40.717 29.6283C40.717 38.0462 33.9527 44.8783 25.6417 44.8783C17.3307 44.8783 10.5664 38.0462 10.5664 29.6283C10.5664 27.6439 11.3998 25.2627 12.7149 22.7589C14.0241 20.2666 15.7819 17.706 17.5678 15.3769C21.1393 10.7192 24.7888 7.03229 25.0849 6.73928Z" fill="white" stroke="#1B2A43"/>
<path d="M23.0455 38.3158C19.0325 38.3158 15.7578 35.0125 15.7578 30.9408C15.7578 30.4864 16.1203 30.1283 16.5558 30.1283C16.9913 30.1283 17.3537 30.4864 17.3537 30.9408C17.3537 34.1072 19.9014 36.6908 23.0455 36.6908C23.481 36.6908 23.8434 37.0489 23.8434 37.5033C23.8434 37.9577 23.481 38.3158 23.0455 38.3158Z" stroke="#1B2A43"/>
</svg>
