<svg width="52" height="52" viewBox="0 0 52 52" fill="none" xmlns="http://www.w3.org/2000/svg">
<path d="M19.6944 7.29224C19.6944 7.29224 18.231 10.8444 15.7467 12.6177C13.2625 14.3909 17.2925 12.9894 17.887 12.7035C19.1259 12.1073 20.4652 11.1613 21.807 7.72692" fill="white"/>
<path d="M15.175 13.8811C14.8933 13.8811 14.7306 13.7963 14.6322 13.6272C14.3756 13.1844 14.9109 12.7502 15.5301 12.3069C17.8968 10.6164 19.3316 7.17799 19.3466 7.146L20.0421 7.439C19.9809 7.5883 18.508 11.1135 15.966 12.929L15.8801 12.9909C16.5329 12.8193 17.3942 12.5202 17.7271 12.3597C18.8399 11.824 20.1376 10.9698 21.4583 7.58881L22.1613 7.86861C20.8828 11.141 19.5942 12.3054 18.053 13.0483C17.7919 13.1737 17.0783 13.4368 16.4325 13.6277C15.8565 13.7963 15.4562 13.8811 15.175 13.8811Z" fill="#1B2A43"/>
<path d="M24.1504 11.9204H26.6613V16.7675H24.1504V11.9204Z" fill="white"/>
<path d="M26.659 17.1478H24.1481C24.0482 17.1478 23.9524 17.1077 23.8818 17.0363C23.8112 16.9649 23.7715 16.868 23.7715 16.767V11.9204C23.7715 11.8194 23.8112 11.7225 23.8818 11.6511C23.9524 11.5797 24.0482 11.5396 24.1481 11.5396H26.659C26.7589 11.5396 26.8547 11.5797 26.9253 11.6511C26.996 11.7225 27.0357 11.8194 27.0357 11.9204V16.7675C27.0355 16.8684 26.9958 16.9651 26.9252 17.0365C26.8545 17.1078 26.7588 17.1478 26.659 17.1478ZM24.5248 16.3861H26.2824V12.3013H24.5248V16.3861Z" fill="#1B2A43"/>
<path d="M20.3846 17.9075H30.4282C31.4937 17.9075 32.5156 18.3355 33.269 19.0973C34.0224 19.8592 34.4457 20.8925 34.4457 21.97V46.8528C34.4457 47.2568 34.2869 47.6443 34.0044 47.93C33.7219 48.2157 33.3387 48.3762 32.9391 48.3762H17.8737C17.4742 48.3762 17.091 48.2157 16.8084 47.93C16.5259 47.6443 16.3672 47.2568 16.3672 46.8528V21.97C16.3672 20.8925 16.7905 19.8592 17.5439 19.0973C18.2973 18.3355 19.3191 17.9075 20.3846 17.9075Z" fill="#43B4BC"/>
<path d="M32.9368 48.7571H17.8715C17.3722 48.7565 16.8935 48.5557 16.5404 48.1987C16.1874 47.8417 15.9888 47.3577 15.9883 46.8528V21.97C15.9896 20.7919 16.453 19.6625 17.2767 18.8295C18.1005 17.9965 19.2174 17.528 20.3824 17.5266H30.4259C31.5909 17.528 32.7078 17.9965 33.5316 18.8295C34.3553 19.6625 34.8187 20.7919 34.82 21.97V46.8528C34.8195 47.3577 34.6209 47.8417 34.2679 48.1987C33.9148 48.5557 33.4361 48.7565 32.9368 48.7571ZM20.3824 18.2883C19.4171 18.2894 18.4916 18.6776 17.8091 19.3678C17.1265 20.0581 16.7426 20.9939 16.7416 21.97V46.8528C16.7419 47.1557 16.8611 47.4461 17.0729 47.6603C17.2847 47.8744 17.5719 47.995 17.8715 47.9954H32.9368C33.2364 47.995 33.5236 47.8744 33.7354 47.6603C33.9472 47.4461 34.0664 47.1557 34.0668 46.8528V21.97C34.0657 20.9939 33.6818 20.0581 32.9992 19.3678C32.3167 18.6776 31.3912 18.2894 30.4259 18.2883H20.3824Z" fill="#1B2A43"/>
<path d="M22.5152 15.3628H28.2903C28.6233 15.3628 28.9426 15.4965 29.178 15.7346C29.4135 15.9727 29.5457 16.2956 29.5457 16.6323V17.621C29.5457 17.6956 29.5164 17.7672 29.4643 17.82C29.4121 17.8727 29.3413 17.9024 29.2675 17.9024H21.538C21.5014 17.9024 21.4653 17.8951 21.4315 17.8809C21.3978 17.8668 21.3671 17.8461 21.3413 17.82C21.3154 17.7938 21.2949 17.7628 21.2809 17.7287C21.267 17.6946 21.2598 17.658 21.2598 17.621V16.6323C21.2598 16.2956 21.392 15.9727 21.6275 15.7346C21.8629 15.4965 22.1822 15.3628 22.5152 15.3628Z" fill="white"/>
<path d="M29.2691 18.2812H21.5396C21.3667 18.2804 21.2011 18.2106 21.0788 18.087C20.9565 17.9633 20.8875 17.7959 20.8867 17.621V16.6323C20.8873 16.1948 21.0594 15.7753 21.3653 15.4659C21.6713 15.1565 22.0861 14.9825 22.5188 14.9819H28.2939C28.7266 14.9825 29.1414 15.1565 29.4473 15.4659C29.7533 15.7753 29.9254 16.1948 29.926 16.6323V17.621C29.9252 17.7966 29.8556 17.9646 29.7324 18.0884C29.6093 18.2121 29.4427 18.2815 29.2691 18.2812ZM21.636 17.5195H29.1687V16.6308C29.1684 16.3952 29.0757 16.1693 28.911 16.0027C28.7462 15.8361 28.5229 15.7424 28.2899 15.7421H22.5148C22.2818 15.7424 22.0584 15.8361 21.8937 16.0027C21.7289 16.1693 21.6362 16.3952 21.636 16.6308V17.5195Z" fill="#1B2A43"/>
<path d="M22.3644 3.70047L14.7729 4.96695C14.7142 4.9767 14.6608 5.00722 14.6223 5.05307C14.5837 5.09893 14.5625 5.15713 14.5625 5.2173V6.38172C14.5625 6.44167 14.5835 6.4997 14.6217 6.54552C14.6599 6.59134 14.713 6.622 14.7714 6.63207L21.2962 7.75586C21.2962 7.75586 22.404 7.895 22.404 9.43164V11.3105C22.404 11.4452 22.4569 11.5744 22.5511 11.6696C22.6453 11.7649 22.773 11.8184 22.9062 11.8184H27.8778C28.011 11.8184 28.1387 11.7649 28.2329 11.6696C28.3271 11.5744 28.38 11.4452 28.38 11.3105V5.2168C28.38 4.81276 28.2212 4.42526 27.9387 4.13956C27.6562 3.85386 27.273 3.69336 26.8734 3.69336H22.4462C22.4188 3.69346 22.3914 3.69584 22.3644 3.70047Z" fill="white"/>
<path d="M27.8789 12.1997H22.9074C22.6744 12.1994 22.451 12.1057 22.2862 11.9391C22.1215 11.7725 22.0288 11.5466 22.0285 11.311V9.4321C22.0285 8.91616 21.8889 8.54038 21.6142 8.31491C21.5088 8.2267 21.3842 8.16509 21.2507 8.13515H21.2336L14.7088 7.0078C14.5627 6.98269 14.4301 6.90598 14.3347 6.79134C14.2392 6.67669 14.1871 6.53153 14.1875 6.38167V5.21725C14.1871 5.0667 14.2399 4.92095 14.3363 4.80618C14.4326 4.69142 14.5663 4.61517 14.7133 4.59112L22.3032 3.32464C22.3505 3.31683 22.3984 3.31292 22.4464 3.31296H26.8746C27.3739 3.3135 27.8525 3.5143 28.2056 3.87131C28.5586 4.22832 28.7572 4.71237 28.7577 5.21725V11.311C28.7575 11.5466 28.6648 11.7725 28.5001 11.9391C28.3353 12.1057 28.1119 12.1994 27.8789 12.1997ZM21.3506 7.37952C21.8528 7.44706 22.7793 7.95944 22.7793 9.43058V11.3095C22.7793 11.3432 22.7925 11.3754 22.8161 11.3993C22.8396 11.4231 22.8715 11.4364 22.9048 11.4364H27.8764C27.9097 11.4364 27.9416 11.4231 27.9652 11.3993C27.9887 11.3754 28.002 11.3432 28.002 11.3095V5.21573C28.0016 4.91282 27.8824 4.62244 27.6706 4.40825C27.4588 4.19406 27.1716 4.07356 26.8721 4.07315H22.4464C22.4395 4.0726 22.4326 4.0726 22.4258 4.07315L14.9408 5.32491V6.27452L21.3506 7.37952Z" fill="#1B2A43"/>
<path d="M16.4863 30.0878C16.4863 30.0878 20.317 27.5996 25.5964 30.0878C30.8758 32.5761 34.3192 28.9823 34.3192 28.9823V46.8573C34.3194 47.0725 34.2777 47.2855 34.1964 47.4843C34.1152 47.6831 33.9959 47.8638 33.8456 48.016C33.6952 48.1682 33.5167 48.2889 33.3201 48.3713C33.1236 48.4536 32.9129 48.496 32.7002 48.496H18.2173C17.79 48.4961 17.38 48.3252 17.0768 48.0208C16.7735 47.7164 16.6015 47.3031 16.5983 46.871L16.4863 30.0878Z" fill="white"/>
<path d="M16.4899 30.9766C16.4568 30.9766 16.425 30.9633 16.4015 30.9397C16.378 30.9161 16.3647 30.8841 16.3644 30.8506L16.3594 30.0889C16.3592 30.0675 16.3645 30.0464 16.3746 30.0276C16.3847 30.0087 16.3993 29.9928 16.4171 29.9812C16.6378 29.8461 16.8679 29.7273 17.1056 29.6258C17.1208 29.6185 17.1373 29.6144 17.1541 29.6137C17.1709 29.613 17.1877 29.6157 17.2034 29.6216C17.2191 29.6276 17.2335 29.6367 17.2457 29.6484C17.2579 29.6601 17.2677 29.6741 17.2744 29.6897C17.2812 29.7053 17.2847 29.7221 17.2849 29.7391C17.2851 29.7561 17.2819 29.7729 17.2755 29.7887C17.2692 29.8044 17.2597 29.8187 17.2478 29.8306C17.2359 29.8426 17.2217 29.852 17.2061 29.8584C17.0022 29.947 16.8036 30.0472 16.611 30.1585L16.6155 30.8481C16.6156 30.8648 16.6125 30.8813 16.6063 30.8967C16.6001 30.9122 16.591 30.9263 16.5794 30.9382C16.5679 30.95 16.5541 30.9595 16.5389 30.966C16.5237 30.9725 16.5074 30.9759 16.4909 30.9761L16.4899 30.9766ZM29.276 31.0923C28.7643 31.0908 28.2539 31.0398 27.7518 30.94C27.7191 30.9333 27.6904 30.9137 27.672 30.8855C27.6536 30.8574 27.647 30.823 27.6537 30.7899C27.6603 30.7569 27.6797 30.7278 27.7075 30.7092C27.7354 30.6906 27.7694 30.6839 27.8021 30.6907C28.2885 30.7867 28.7829 30.8355 29.2785 30.8364H29.3407C29.374 30.8364 29.406 30.8498 29.4295 30.8736C29.453 30.8974 29.4663 30.9297 29.4663 30.9634C29.4663 30.997 29.453 31.0293 29.4295 31.0531C29.406 31.0769 29.374 31.0903 29.3407 31.0903L29.276 31.0923ZM30.898 30.9116C30.8671 30.9115 30.8373 30.8999 30.8143 30.8791C30.7913 30.8582 30.7768 30.8295 30.7734 30.7984C30.7701 30.7673 30.7781 30.7361 30.7961 30.7107C30.8141 30.6853 30.8407 30.6675 30.8709 30.6607C31.3742 30.5469 31.8645 30.3805 32.3337 30.1641C32.364 30.1501 32.3986 30.1488 32.4298 30.1606C32.461 30.1723 32.4863 30.1961 32.5002 30.2268C32.5141 30.2574 32.5153 30.2924 32.5037 30.3239C32.492 30.3555 32.4685 30.3811 32.4382 30.3951C31.9531 30.6196 31.4461 30.7923 30.9256 30.9105C30.9165 30.9119 30.9072 30.9122 30.898 30.9116ZM26.2669 30.5053C26.2516 30.5052 26.2364 30.5023 26.2222 30.4967C25.9967 30.4093 25.7702 30.3113 25.5417 30.2047C25.2907 30.0853 25.03 29.9741 24.7749 29.8736C24.7445 29.861 24.7201 29.8368 24.7071 29.8062C24.6942 29.7757 24.6936 29.7412 24.7055 29.7101C24.7174 29.6791 24.7409 29.6541 24.7708 29.6404C24.8008 29.6267 24.8349 29.6255 24.8658 29.637C25.1259 29.7385 25.3891 29.8528 25.6477 29.9746C25.8682 30.0762 26.0916 30.1747 26.3116 30.2595C26.3391 30.27 26.3622 30.29 26.3767 30.3159C26.3912 30.3418 26.3962 30.372 26.3909 30.4013C26.3855 30.4306 26.3702 30.4571 26.3475 30.4761C26.3249 30.4951 26.2963 30.5054 26.2669 30.5053ZM23.3211 29.4074C23.3113 29.4074 23.3015 29.4062 23.292 29.4039C22.7881 29.2813 22.276 29.1964 21.7598 29.15C21.7265 29.147 21.6958 29.1308 21.6743 29.1049C21.6528 29.079 21.6424 29.0455 21.6453 29.0118C21.6483 28.9782 21.6643 28.9471 21.6899 28.9253C21.7155 28.9036 21.7486 28.8931 21.7819 28.8961C22.3105 28.9434 22.8348 29.0302 23.3507 29.1555C23.3806 29.1628 23.4067 29.1809 23.4243 29.2064C23.4418 29.2319 23.4495 29.263 23.4459 29.2938C23.4423 29.3246 23.4277 29.353 23.4048 29.3737C23.3819 29.3943 23.3523 29.4058 23.3216 29.4059L23.3211 29.4074ZM18.6463 29.3734C18.6157 29.3732 18.5861 29.3616 18.5633 29.3409C18.5405 29.3202 18.526 29.2918 18.5225 29.261C18.5189 29.2302 18.5267 29.1992 18.5442 29.1738C18.5618 29.1484 18.5879 29.1303 18.6177 29.123C19.1348 28.9997 19.661 28.919 20.191 28.8818C20.2243 28.8795 20.2572 28.8906 20.2824 28.9127C20.3076 28.9349 20.323 28.9662 20.3253 28.9999C20.3277 29.0336 20.3167 29.0668 20.2948 29.0923C20.2729 29.1177 20.2419 29.1334 20.2086 29.1357C19.6923 29.1718 19.1797 29.2503 18.6759 29.3703C18.6663 29.3718 18.6565 29.3722 18.6468 29.3714L18.6463 29.3734ZM34.3178 29.8716C34.2845 29.8716 34.2526 29.8582 34.2291 29.8344C34.2055 29.8106 34.1923 29.7783 34.1923 29.7446V29.2723C34.0974 29.3551 33.9718 29.4587 33.8162 29.577C33.7895 29.5972 33.756 29.6059 33.7231 29.6011C33.6901 29.5964 33.6604 29.5786 33.6404 29.5516C33.6204 29.5247 33.6118 29.4908 33.6166 29.4575C33.6213 29.4242 33.6389 29.3941 33.6655 29.3739C33.8642 29.2283 34.0521 29.0681 34.2274 28.8945C34.2449 28.8765 34.2672 28.8641 34.2916 28.8589C34.316 28.8537 34.3414 28.856 34.3645 28.8655C34.3876 28.875 34.4074 28.8912 34.4214 28.9121C34.4353 28.933 34.4428 28.9577 34.4429 28.9829V29.7446C34.4429 29.7782 34.4297 29.8104 34.4063 29.8342C34.3829 29.858 34.351 29.8714 34.3178 29.8716ZM32.6988 48.621H31.2375C31.2042 48.621 31.1722 48.6076 31.1487 48.5838C31.1251 48.56 31.1119 48.5277 31.1119 48.4941C31.1119 48.4604 31.1251 48.4281 31.1487 48.4043C31.1722 48.3805 31.2042 48.3671 31.2375 48.3671H32.7325C32.7658 48.3668 32.7978 48.3798 32.8216 48.4034C32.8454 48.427 32.8589 48.4591 32.8593 48.4928C32.8596 48.5265 32.8467 48.5589 32.8234 48.5829C32.8001 48.607 32.7683 48.6207 32.735 48.621H32.6988ZM29.7425 48.621H28.249C28.2157 48.621 28.1838 48.6076 28.1602 48.5838C28.1367 48.56 28.1234 48.5277 28.1234 48.4941C28.1234 48.4604 28.1367 48.4281 28.1602 48.4043C28.1838 48.3805 28.2157 48.3671 28.249 48.3671H29.744C29.7773 48.3671 29.8092 48.3805 29.8328 48.4043C29.8563 48.4281 29.8695 48.4604 29.8695 48.4941C29.8695 48.5277 29.8563 48.56 29.8328 48.5838C29.8092 48.6076 29.7773 48.621 29.744 48.621H29.7425ZM26.7525 48.621H25.258C25.2247 48.621 25.1928 48.6076 25.1692 48.5838C25.1457 48.56 25.1325 48.5277 25.1325 48.4941C25.1325 48.4604 25.1457 48.4281 25.1692 48.4043C25.1928 48.3805 25.2247 48.3671 25.258 48.3671H26.753C26.7863 48.3671 26.8182 48.3805 26.8418 48.4043C26.8653 48.4281 26.8785 48.4604 26.8785 48.4941C26.8785 48.5277 26.8653 48.56 26.8418 48.5838C26.8182 48.6076 26.7863 48.621 26.753 48.621H26.7525ZM23.763 48.621H22.268C22.2347 48.621 22.2028 48.6076 22.1793 48.5838C22.1557 48.56 22.1425 48.5277 22.1425 48.4941C22.1425 48.4604 22.1557 48.4281 22.1793 48.4043C22.2028 48.3805 22.2347 48.3671 22.268 48.3671H23.763C23.7963 48.3671 23.8282 48.3805 23.8518 48.4043C23.8753 48.4281 23.8886 48.4604 23.8886 48.4941C23.8886 48.5277 23.8753 48.56 23.8518 48.5838C23.8282 48.6076 23.7963 48.621 23.763 48.621ZM20.773 48.621H19.2786C19.2453 48.621 19.2133 48.6076 19.1898 48.5838C19.1662 48.56 19.153 48.5277 19.153 48.4941C19.153 48.4604 19.1662 48.4281 19.1898 48.4043C19.2133 48.3805 19.2453 48.3671 19.2786 48.3671H20.7735C20.8068 48.3671 20.8388 48.3805 20.8623 48.4043C20.8859 48.4281 20.8991 48.4604 20.8991 48.4941C20.8991 48.5277 20.8859 48.56 20.8623 48.5838C20.8388 48.6076 20.8068 48.621 20.7735 48.621H20.773ZM17.7886 48.5636C17.7774 48.5636 17.7662 48.5621 17.7554 48.5591C17.4961 48.4861 17.2569 48.3539 17.0563 48.1725C16.8557 47.9911 16.699 47.7654 16.5984 47.513C16.5919 47.4974 16.5885 47.4807 16.5884 47.4638C16.5883 47.4469 16.5916 47.4302 16.598 47.4146C16.6044 47.399 16.6138 47.3848 16.6257 47.373C16.6376 47.3611 16.6517 47.3517 16.6672 47.3455C16.6827 47.3392 16.6993 47.3361 16.716 47.3364C16.7327 47.3366 16.7492 47.3403 16.7645 47.3471C16.7798 47.3539 16.7936 47.3637 16.8051 47.376C16.8166 47.3882 16.8255 47.4027 16.8314 47.4185C16.9178 47.6348 17.0523 47.8281 17.2244 47.9834C17.3966 48.1387 17.6019 48.2517 17.8242 48.3138C17.8535 48.3219 17.8789 48.3406 17.8956 48.3662C17.9123 48.3918 17.9193 48.4227 17.9153 48.4531C17.9112 48.4835 17.8964 48.5114 17.8736 48.5317C17.8508 48.5519 17.8215 48.5631 17.7911 48.5631L17.7886 48.5636ZM34.009 47.9446C33.9857 47.9446 33.9628 47.938 33.943 47.9256C33.9232 47.9133 33.9071 47.8955 33.8967 47.8744C33.8863 47.8533 33.8819 47.8297 33.884 47.8063C33.8861 47.7828 33.8946 47.7603 33.9086 47.7415C34.094 47.4841 34.1936 47.1738 34.1928 46.8553V46.3709C34.1928 46.3372 34.206 46.3049 34.2296 46.2811C34.2531 46.2573 34.285 46.2439 34.3183 46.2439C34.3516 46.2439 34.3836 46.2573 34.4071 46.2811C34.4307 46.3049 34.4439 46.3372 34.4439 46.3709V46.8553C34.4448 47.2274 34.3285 47.59 34.1119 47.8908C34.1004 47.9074 34.085 47.9209 34.0672 47.9303C34.0494 47.9397 34.0296 47.9446 34.0095 47.9446H34.009ZM16.5904 46.0962C16.5573 46.0962 16.5255 46.0829 16.502 46.0593C16.4784 46.0358 16.4651 46.0037 16.4648 45.9702L16.4548 44.4585C16.4547 44.4418 16.4578 44.4253 16.464 44.4098C16.4702 44.3944 16.4793 44.3803 16.4909 44.3684C16.5024 44.3565 16.5162 44.3471 16.5314 44.3406C16.5465 44.3341 16.5628 44.3306 16.5793 44.3305C16.6125 44.3305 16.6442 44.3437 16.6678 44.3673C16.6913 44.3909 16.7046 44.4229 16.7049 44.4564L16.7149 45.9682C16.7151 45.9849 16.7119 46.0014 16.7057 46.0169C16.6996 46.0323 16.6904 46.0464 16.6789 46.0583C16.6673 46.0702 16.6535 46.0796 16.6383 46.0861C16.6232 46.0926 16.6069 46.096 16.5904 46.0962ZM34.3173 44.9876C34.284 44.9876 34.2521 44.9742 34.2286 44.9504C34.205 44.9266 34.1918 44.8943 34.1918 44.8607V43.3489C34.1918 43.3152 34.205 43.2829 34.2286 43.2591C34.2521 43.2353 34.284 43.222 34.3173 43.222C34.3506 43.222 34.3826 43.2353 34.4061 43.2591C34.4297 43.2829 34.4429 43.3152 34.4429 43.3489V44.8607C34.4429 44.8942 34.4297 44.9265 34.4063 44.9503C34.3829 44.974 34.351 44.9875 34.3178 44.9876H34.3173ZM16.5703 43.0732C16.5372 43.0732 16.5054 43.0599 16.4819 43.0363C16.4584 43.0127 16.445 42.9807 16.4447 42.9472L16.4347 41.4355C16.4346 41.4188 16.4377 41.4023 16.4439 41.3868C16.4501 41.3714 16.4592 41.3573 16.4708 41.3454C16.4823 41.3335 16.4961 41.3241 16.5113 41.3176C16.5265 41.311 16.5428 41.3076 16.5592 41.3075C16.5924 41.3075 16.6242 41.3207 16.6477 41.3443C16.6712 41.3679 16.6845 41.3999 16.6848 41.4334L16.6948 42.9452C16.695 42.9619 16.6918 42.9784 16.6857 42.9939C16.6795 43.0093 16.6703 43.0234 16.6588 43.0353C16.6472 43.0471 16.6334 43.0566 16.6183 43.0631C16.6031 43.0696 16.5868 43.073 16.5703 43.0732ZM34.3173 41.9646C34.284 41.9646 34.2521 41.9512 34.2286 41.9274C34.205 41.9036 34.1918 41.8713 34.1918 41.8377V40.3259C34.1918 40.2922 34.205 40.2599 34.2286 40.2361C34.2521 40.2123 34.284 40.1989 34.3173 40.1989C34.3506 40.1989 34.3826 40.2123 34.4061 40.2361C34.4297 40.2599 34.4429 40.2922 34.4429 40.3259V41.8377C34.4428 41.8711 34.4295 41.9032 34.4061 41.9269C34.3827 41.9506 34.351 41.964 34.3178 41.9641L34.3173 41.9646ZM16.5482 40.0496C16.5151 40.0496 16.4833 40.0364 16.4598 40.0128C16.4363 39.9892 16.4229 39.9572 16.4227 39.9237L16.4126 38.412C16.4126 38.3783 16.4258 38.346 16.4494 38.3222C16.4729 38.2984 16.5049 38.285 16.5382 38.285C16.5715 38.285 16.6034 38.2984 16.6269 38.3222C16.6505 38.346 16.6637 38.3783 16.6637 38.412L16.6737 39.9237C16.6739 39.9404 16.6708 39.9569 16.6646 39.9724C16.6584 39.9878 16.6492 40.0019 16.6377 40.0138C16.6261 40.0257 16.6124 40.0351 16.5972 40.0416C16.582 40.0481 16.5657 40.0515 16.5492 40.0517L16.5482 40.0496ZM34.3153 38.9411C34.282 38.9411 34.2501 38.9277 34.2266 38.9039C34.203 38.8801 34.1898 38.8478 34.1898 38.8141V37.3024C34.1898 37.2687 34.203 37.2364 34.2266 37.2126C34.2501 37.1888 34.282 37.1754 34.3153 37.1754C34.3486 37.1754 34.3806 37.1888 34.4041 37.2126C34.4276 37.2364 34.4409 37.2687 34.4409 37.3024V38.8141C34.4409 38.8474 34.428 38.8793 34.405 38.903C34.382 38.9268 34.3507 38.9404 34.3178 38.9411H34.3153ZM16.5281 37.0266C16.495 37.0266 16.4632 37.0134 16.4397 36.9898C16.4162 36.9662 16.4028 36.9342 16.4026 36.9007L16.3925 35.3889C16.3924 35.3723 16.3955 35.3557 16.4017 35.3403C16.4079 35.3248 16.417 35.3108 16.4286 35.2989C16.4401 35.287 16.4539 35.2775 16.4691 35.271C16.4843 35.2645 16.5006 35.2611 16.5171 35.261C16.5502 35.2612 16.5819 35.2745 16.6056 35.298C16.6292 35.3215 16.6428 35.3534 16.6436 35.3869L16.6537 36.8987C16.6538 36.9153 16.6507 36.9319 16.6445 36.9473C16.6383 36.9628 16.6292 36.9769 16.6176 36.9887C16.606 37.0006 16.5923 37.0101 16.5771 37.0166C16.5619 37.0231 16.5456 37.0265 16.5291 37.0266H16.5281ZM34.3153 35.9181C34.282 35.9181 34.2501 35.9047 34.2266 35.8809C34.203 35.8571 34.1898 35.8248 34.1898 35.7911V34.2773C34.1898 34.2437 34.203 34.2114 34.2266 34.1876C34.2501 34.1638 34.282 34.1504 34.3153 34.1504C34.3486 34.1504 34.3806 34.1638 34.4041 34.1876C34.4276 34.2114 34.4409 34.2437 34.4409 34.2773V35.7906C34.4409 35.8239 34.428 35.8558 34.405 35.8795C34.382 35.9032 34.3507 35.9169 34.3178 35.9176L34.3153 35.9181ZM16.508 34.0036C16.4749 34.0036 16.4431 33.9904 16.4196 33.9668C16.3961 33.9432 16.3827 33.9112 16.3825 33.8777L16.3724 32.3659C16.3723 32.3493 16.3754 32.3327 16.3816 32.3173C16.3878 32.3018 16.3969 32.2878 16.4085 32.2759C16.4201 32.264 16.4338 32.2545 16.449 32.248C16.4642 32.2415 16.4805 32.2381 16.497 32.238C16.5301 32.238 16.5619 32.2512 16.5854 32.2748C16.6089 32.2984 16.6223 32.3304 16.6225 32.3639L16.6326 33.8757C16.6327 33.8923 16.6296 33.9089 16.6234 33.9243C16.6172 33.9398 16.6081 33.9538 16.5965 33.9657C16.5849 33.9776 16.5712 33.9871 16.556 33.9936C16.5408 34.0001 16.5245 34.0035 16.508 34.0036ZM34.3153 32.8951C34.282 32.8951 34.2501 32.8817 34.2266 32.8579C34.203 32.8341 34.1898 32.8018 34.1898 32.7681V31.2559C34.1898 31.2222 34.203 31.1899 34.2266 31.1661C34.2501 31.1423 34.282 31.1289 34.3153 31.1289C34.3486 31.1289 34.3806 31.1423 34.4041 31.1661C34.4276 31.1899 34.4409 31.2222 34.4409 31.2559V32.7676C34.4409 32.8009 34.428 32.8328 34.405 32.8565C34.382 32.8802 34.3507 32.8939 34.3178 32.8946L34.3153 32.8951Z" fill="#1B2A43"/>
<path d="M32.9386 48.7571H17.8732C17.3739 48.7566 16.8952 48.5558 16.5421 48.1988C16.1891 47.8418 15.9905 47.3577 15.99 46.8528V21.97C15.9913 20.792 16.4547 19.6626 17.2784 18.8296C18.1022 17.9966 19.2191 17.528 20.3841 17.5266H30.4277C31.5926 17.528 32.7095 17.9966 33.5333 18.8296C34.357 19.6626 34.8204 20.792 34.8217 21.97V46.8528C34.8212 47.3577 34.6226 47.8418 34.2696 48.1988C33.9165 48.5558 33.4378 48.7566 32.9386 48.7571ZM20.3841 18.2884C19.4188 18.2894 18.4933 18.6777 17.8108 19.3679C17.1282 20.0581 16.7443 20.9939 16.7433 21.97V46.8528C16.7437 47.1557 16.8628 47.4461 17.0746 47.6603C17.2864 47.8745 17.5736 47.995 17.8732 47.9954H32.9386C33.2381 47.995 33.5253 47.8745 33.7371 47.6603C33.9489 47.4461 34.0681 47.1557 34.0685 46.8528V21.97C34.0674 20.9939 33.6835 20.0581 33.0009 19.3679C32.3184 18.6777 31.3929 18.2894 30.4277 18.2884H20.3841ZM6.24418 3.84668C6.23749 3.84722 6.23078 3.84722 6.22409 3.84668L5.48036 3.72633C5.46408 3.7237 5.44846 3.71784 5.43441 3.70911C5.42035 3.70037 5.40814 3.68892 5.39847 3.67541C5.38879 3.6619 5.38184 3.64659 5.37801 3.63037C5.37419 3.61414 5.37356 3.59731 5.37616 3.58084C5.37877 3.56437 5.38455 3.54858 5.39319 3.53437C5.40183 3.52016 5.41316 3.50781 5.42652 3.49802C5.43988 3.48824 5.45501 3.48121 5.47106 3.47734C5.48711 3.47347 5.50375 3.47284 5.52004 3.47547L6.26376 3.59633C6.28025 3.59763 6.29632 3.6022 6.31106 3.60978C6.3258 3.61736 6.33892 3.62781 6.34967 3.64052C6.36042 3.65322 6.36859 3.66795 6.37371 3.68385C6.37883 3.69975 6.3808 3.71651 6.37952 3.73319C6.37823 3.74986 6.37371 3.76611 6.36621 3.78101C6.35872 3.79592 6.34839 3.80919 6.33582 3.82005C6.32325 3.83092 6.30869 3.83918 6.29297 3.84436C6.27724 3.84954 6.26067 3.85154 6.24418 3.85024V3.84668ZM11.1404 4.6409C11.1337 4.64144 11.127 4.64144 11.1203 4.6409L9.89653 4.44235C9.88024 4.43971 9.86463 4.43386 9.85058 4.42512C9.83652 4.41638 9.82431 4.40493 9.81463 4.39142C9.80496 4.37791 9.79801 4.36261 9.79418 4.34638C9.79035 4.33016 9.78973 4.31333 9.79233 4.29686C9.79494 4.28039 9.80072 4.26459 9.80936 4.25038C9.818 4.23617 9.82933 4.22382 9.84269 4.21404C9.85605 4.20426 9.87118 4.19723 9.88723 4.19336C9.90327 4.18949 9.91992 4.18885 9.93621 4.19149L11.16 4.39004C11.1933 4.39267 11.2242 4.40856 11.2459 4.43423C11.2676 4.45989 11.2784 4.49323 11.2758 4.5269C11.2732 4.56057 11.2575 4.59181 11.2321 4.61377C11.2067 4.63572 11.1737 4.64657 11.1404 4.64395V4.6409ZM8.69231 4.24379C8.68562 4.24433 8.6789 4.24433 8.67222 4.24379L7.44841 4.04524C7.43212 4.0426 7.4165 4.03675 7.40245 4.02801C7.3884 4.01928 7.37618 4.00783 7.36651 3.99432C7.35683 3.98081 7.34988 3.9655 7.34606 3.94927C7.34223 3.93305 7.3416 3.91622 7.3442 3.89975C7.34681 3.88328 7.3526 3.86748 7.36124 3.85327C7.36988 3.83907 7.3812 3.82672 7.39456 3.81693C7.40792 3.80715 7.42306 3.80012 7.4391 3.79625C7.45515 3.79238 7.47179 3.79174 7.48808 3.79438L8.71239 3.99293C8.74569 3.99556 8.77659 4.01145 8.7983 4.03712C8.82001 4.06278 8.83074 4.09612 8.82815 4.12979C8.82555 4.16346 8.80983 4.1947 8.78445 4.21666C8.75907 4.23861 8.7261 4.24946 8.69281 4.24684L8.69231 4.24379ZM13.1085 4.95981C13.1018 4.96035 13.0951 4.96035 13.0884 4.95981L12.3447 4.83946C12.3284 4.83682 12.3128 4.83097 12.2987 4.82223C12.2846 4.81349 12.2724 4.80204 12.2628 4.78853C12.2531 4.77502 12.2461 4.75972 12.2423 4.74349C12.2385 4.72727 12.2379 4.71044 12.2405 4.69397C12.2431 4.6775 12.2489 4.6617 12.2575 4.64749C12.2661 4.63328 12.2775 4.62093 12.2908 4.61115C12.3042 4.60137 12.3193 4.59434 12.3354 4.59047C12.3514 4.5866 12.368 4.58596 12.3843 4.5886L13.1281 4.70945C13.1614 4.71208 13.1923 4.72798 13.214 4.75364C13.2357 4.77931 13.2464 4.81264 13.2438 4.84631C13.2412 4.87998 13.2255 4.91123 13.2001 4.93318C13.1747 4.95513 13.1418 4.96599 13.1085 4.96336V4.95981ZM5.50095 8.03614C5.46766 8.03876 5.43469 8.0279 5.40931 8.00595C5.38393 7.984 5.36821 7.95275 5.36562 7.91908C5.36302 7.88541 5.37376 7.85208 5.39546 7.82641C5.41717 7.80075 5.44807 7.78486 5.48137 7.78223L6.2251 7.66137C6.24139 7.65874 6.25803 7.65937 6.27407 7.66324C6.29012 7.66711 6.30526 7.67414 6.31862 7.68392C6.33198 7.69371 6.3433 7.70606 6.35194 7.72027C6.36058 7.73448 6.36637 7.75027 6.36897 7.76674C6.37158 7.78321 6.37095 7.80004 6.36712 7.81627C6.36329 7.83249 6.35634 7.8478 6.34667 7.86131C6.33699 7.87482 6.32478 7.88627 6.31073 7.89501C6.29667 7.90374 6.28106 7.90959 6.26477 7.91223L5.52104 8.03309C5.51444 8.03465 5.50772 8.03567 5.50095 8.03614ZM7.46799 7.71875C7.4347 7.72138 7.40173 7.71052 7.37635 7.68857C7.35097 7.66662 7.33525 7.63537 7.33265 7.6017C7.33006 7.56803 7.34079 7.5347 7.3625 7.50903C7.38421 7.48337 7.41511 7.46747 7.44841 7.46485L8.67222 7.26629C8.70512 7.26097 8.73875 7.26908 8.76574 7.28885C8.79272 7.30861 8.81083 7.3384 8.81609 7.37166C8.82136 7.40493 8.81333 7.43895 8.79379 7.46623C8.77425 7.49351 8.74479 7.51183 8.71189 7.51715L7.48808 7.71571C7.48148 7.71727 7.47476 7.71828 7.46799 7.71875ZM9.91612 7.32164C9.88282 7.32427 9.84986 7.31341 9.82448 7.29146C9.7991 7.26951 9.78338 7.23826 9.78078 7.20459C9.77818 7.17092 9.78892 7.13759 9.81063 7.11192C9.83233 7.08626 9.86324 7.07036 9.89653 7.06774L11.1203 6.86918C11.1532 6.86386 11.1869 6.87198 11.2139 6.89174C11.2408 6.9115 11.259 6.94129 11.2642 6.97455C11.2695 7.00782 11.2615 7.04184 11.2419 7.06912C11.2224 7.0964 11.1929 7.11472 11.16 7.12004L9.93621 7.3186C9.92955 7.31947 9.92283 7.31981 9.91612 7.31961V7.32164ZM12.3642 6.92301C12.3309 6.92564 12.298 6.91478 12.2726 6.89283C12.2472 6.87088 12.2315 6.83963 12.2289 6.80596C12.2263 6.77229 12.237 6.73895 12.2588 6.71329C12.2805 6.68762 12.3114 6.67173 12.3447 6.6691L13.0884 6.55078C13.1213 6.54546 13.1549 6.55358 13.1819 6.57334C13.2089 6.5931 13.227 6.62289 13.2323 6.65615C13.2375 6.68942 13.2295 6.72344 13.21 6.75072C13.1904 6.77801 13.161 6.79632 13.1281 6.80164L12.3843 6.9225C12.3777 6.92321 12.3709 6.92338 12.3642 6.92301ZM6.27933 5.88098H5.52606C5.49277 5.88098 5.46083 5.8676 5.43729 5.84379C5.41375 5.81999 5.40052 5.7877 5.40052 5.75403C5.40052 5.72036 5.41375 5.68806 5.43729 5.66426C5.46083 5.64045 5.49277 5.62707 5.52606 5.62707H6.27933C6.31263 5.62707 6.34456 5.64045 6.36811 5.66426C6.39165 5.68806 6.40488 5.72036 6.40488 5.75403C6.40488 5.7877 6.39165 5.81999 6.36811 5.84379C6.34456 5.8676 6.31263 5.88098 6.27933 5.88098ZM11.1193 5.88098H9.90909C9.87579 5.88098 9.84386 5.8676 9.82031 5.84379C9.79677 5.81999 9.78354 5.7877 9.78354 5.75403C9.78354 5.72036 9.79677 5.68806 9.82031 5.66426C9.84386 5.64045 9.87579 5.62707 9.90909 5.62707H11.1188C11.1521 5.62707 11.1841 5.64045 11.2076 5.66426C11.2312 5.68806 11.2444 5.72036 11.2444 5.75403C11.2444 5.7877 11.2312 5.81999 11.2076 5.84379C11.1841 5.8676 11.1521 5.88098 11.1188 5.88098H11.1193ZM8.69934 5.88098H7.48959C7.45629 5.88098 7.42436 5.8676 7.40081 5.84379C7.37727 5.81999 7.36404 5.7877 7.36404 5.75403C7.36404 5.72036 7.37727 5.68806 7.40081 5.66426C7.42436 5.64045 7.45629 5.62707 7.48959 5.62707H8.69934C8.73263 5.62707 8.76457 5.64045 8.78811 5.66426C8.81165 5.68806 8.82488 5.72036 8.82488 5.75403C8.82488 5.7877 8.81165 5.81999 8.78811 5.84379C8.76457 5.8676 8.73263 5.88098 8.69934 5.88098ZM13.0839 5.88098H12.3306C12.2973 5.88098 12.2654 5.8676 12.2418 5.84379C12.2183 5.81999 12.2051 5.7877 12.2051 5.75403C12.2051 5.72036 12.2183 5.68806 12.2418 5.66426C12.2654 5.64045 12.2973 5.62707 12.3306 5.62707H13.0839C13.1172 5.62707 13.1491 5.64045 13.1726 5.66426C13.1962 5.68806 13.2094 5.72036 13.2094 5.75403C13.2094 5.7877 13.1962 5.81999 13.1726 5.84379C13.1491 5.8676 13.1172 5.88098 13.0839 5.88098Z" fill="#1B2A43"/>
</svg>
