<svg width="32" height="32" viewBox="0 0 32 32" fill="none" xmlns="http://www.w3.org/2000/svg">
<path d="M3.52344 4.41333C3.74804 5.12743 3.86228 5.87164 3.8622 6.62023C3.86232 7.36882 3.74808 8.11303 3.52344 8.82712H9.7182C9.26651 7.39053 9.26651 5.84993 9.7182 4.41333H3.52344Z" fill="#43B4BC"/>
<path d="M6.28125 2.20654C6.39076 2.56758 6.47247 2.93648 6.52566 3.30999H10.4821C10.5695 3.30997 10.6557 3.33072 10.7335 3.37054C10.8113 3.41036 10.8786 3.4681 10.9297 3.53901C10.9808 3.60992 11.0144 3.69196 11.0276 3.77838C11.0408 3.8648 11.0333 3.95312 11.0057 4.03606L10.8026 4.64296C10.5898 5.28046 10.4815 5.94823 10.4821 6.62034H12.476C12.0243 5.18374 12.0243 3.64314 12.476 2.20654H6.28125Z" fill="#43B4BC"/>
<path d="M0 13.6448C0.29259 14.1907 0.728046 14.6468 1.25981 14.9644C1.79158 15.282 2.39966 15.4491 3.01903 15.4478H28.981C29.6003 15.4491 30.2084 15.282 30.7402 14.9644C31.272 14.6468 31.7074 14.1907 32 13.6448V12.1375H0V13.6448Z" fill="#43B4BC"/>
<path d="M3.01903 16.5512C1.90466 16.5521 0.829344 16.1408 0 15.3965V30.8961C0 31.1887 0.116256 31.4694 0.323192 31.6763C0.530129 31.8833 0.810796 31.9995 1.10345 31.9995H30.8966C31.1892 31.9995 31.4699 31.8833 31.6768 31.6763C31.8837 31.4694 32 31.1887 32 30.8961V15.3965C31.1707 16.1408 30.0953 16.5521 28.981 16.5512H3.01903Z" fill="#43B4BC"/>
<path d="M30.8966 -0.000488281H1.10345C0.810796 -0.000488281 0.530129 0.115768 0.323192 0.322704C0.116256 0.529641 0 0.810307 0 1.10296V11.034H32V1.10296C32 0.810307 31.8837 0.529641 31.6768 0.322704C31.4699 0.115768 31.1892 -0.000488281 30.8966 -0.000488281ZM13.5619 6.38903L13.765 6.99593C13.7929 7.07896 13.8007 7.16747 13.7876 7.2541C13.7746 7.34074 13.7411 7.42303 13.6899 7.49415C13.6387 7.56527 13.5714 7.62318 13.4934 7.66309C13.4154 7.703 13.329 7.72376 13.2414 7.72365H10.5843C10.6367 8.01935 10.7105 8.31087 10.805 8.59593L11.008 9.20282C11.036 9.28599 11.0437 9.37464 11.0306 9.46141C11.0175 9.54818 10.9838 9.63056 10.9325 9.70172C10.8811 9.77288 10.8135 9.83076 10.7353 9.87056C10.6571 9.91035 10.5705 9.93092 10.4828 9.93055H2.75862C2.6712 9.93057 2.58502 9.90981 2.5072 9.87C2.42937 9.83018 2.36212 9.77244 2.31098 9.70153C2.25985 9.63062 2.2263 9.54858 2.21309 9.46216C2.19989 9.37574 2.20741 9.28742 2.23503 9.20448L2.43807 8.59758C2.65094 7.96007 2.75919 7.29231 2.75862 6.6202C2.75901 5.94865 2.65076 5.28146 2.43807 4.64448L2.23503 4.03758C2.20708 3.95454 2.19931 3.86604 2.21236 3.7794C2.22541 3.69276 2.25891 3.61048 2.31008 3.53936C2.36125 3.46824 2.42862 3.41032 2.50662 3.37042C2.58462 3.33051 2.671 3.30975 2.75862 3.30986H5.41186C5.36121 3.0143 5.2893 2.72279 5.19669 2.43758L4.99365 1.83068C4.96571 1.74765 4.95793 1.65914 4.97098 1.57251C4.98403 1.48587 5.01753 1.40358 5.0687 1.33246C5.11987 1.26134 5.18724 1.20343 5.26524 1.16352C5.34324 1.12361 5.42963 1.10285 5.51724 1.10296H13.2414C13.3288 1.10294 13.415 1.12369 13.4928 1.16351C13.5706 1.20333 13.6379 1.26107 13.689 1.33198C13.7401 1.40289 13.7737 1.48493 13.7869 1.57135C13.8001 1.65777 13.7926 1.74609 13.765 1.82903L13.5619 2.43593C13.1345 3.7184 13.1345 5.1049 13.5619 6.38737V6.38903ZM29.5619 8.59593L29.765 9.20282C29.7929 9.28586 29.8007 9.37436 29.7876 9.461C29.7746 9.54764 29.7411 9.62993 29.6899 9.70105C29.6387 9.77217 29.5714 9.83008 29.4934 9.86999C29.4154 9.9099 29.329 9.93065 29.2414 9.93055H21.5172C21.4298 9.93057 21.3436 9.90981 21.2658 9.87C21.188 9.83018 21.1207 9.77244 21.0696 9.70153C21.0185 9.63062 20.9849 9.54858 20.9717 9.46216C20.9585 9.37574 20.966 9.28742 20.9937 9.20448L21.1967 8.59758C21.2912 8.31252 21.3649 8.021 21.4174 7.72531H18.7586C18.6712 7.72533 18.585 7.70457 18.5072 7.66475C18.4294 7.62494 18.3621 7.5672 18.311 7.49629C18.2598 7.42538 18.2263 7.34334 18.2131 7.25692C18.1999 7.1705 18.2074 7.08218 18.235 6.99924L18.4381 6.39234C18.8655 5.10986 18.8655 3.72337 18.4381 2.44089L18.235 1.83399C18.2064 1.75076 18.1982 1.6619 18.2109 1.57482C18.2236 1.48774 18.257 1.40497 18.3083 1.33342C18.3595 1.26187 18.4271 1.20362 18.5055 1.16353C18.5838 1.12344 18.6706 1.10267 18.7586 1.10296H26.4828C26.5702 1.10294 26.6564 1.12369 26.7342 1.16351C26.812 1.20333 26.8793 1.26107 26.9304 1.33198C26.9815 1.40289 27.0151 1.48493 27.0283 1.57135C27.0415 1.65777 27.034 1.74609 27.0063 1.82903L26.8033 2.43593C26.7106 2.72167 26.6387 3.01374 26.5881 3.30986H29.2414C29.3288 3.30984 29.415 3.33059 29.4928 3.37041C29.5706 3.41022 29.6379 3.46797 29.689 3.53887C29.7402 3.60978 29.7737 3.69183 29.7869 3.77824C29.8001 3.86466 29.7926 3.95298 29.765 4.03593L29.5619 4.64282C29.1345 5.9253 29.1345 7.31179 29.5619 8.59427V8.59593Z" fill="#43B4BC"/>
<path d="M21.5174 3.30999H25.4738C25.5267 2.93643 25.6084 2.56751 25.7182 2.20654H19.5234C19.9751 3.64314 19.9751 5.18374 19.5234 6.62034H21.5174C21.5178 5.94878 21.4095 5.28159 21.1968 4.64461L20.9938 4.03772C20.9658 3.95468 20.9581 3.86618 20.9711 3.77954C20.9842 3.6929 21.0177 3.61061 21.0688 3.53949C21.12 3.46837 21.1874 3.41046 21.2654 3.37055C21.3434 3.33064 21.4298 3.30988 21.5174 3.30999Z" fill="#43B4BC"/>
<path d="M22.2812 4.41333C22.7329 5.84993 22.7329 7.39053 22.2812 8.82712H28.476C28.0243 7.39053 28.0243 5.84993 28.476 4.41333H22.2812Z" fill="#43B4BC"/>
</svg>
