<?xml version="1.0" encoding="UTF-8" standalone="no"?>
<svg
   width="28"
   height="32"
   viewBox="0 0 28 32"
   fill="none"
   version="1.1"
   id="svg20"
   sodipodi:docname="office-chair.svg"
   inkscape:version="1.2 (dc2aedaf03, 2022-05-15)"
   xmlns:inkscape="http://www.inkscape.org/namespaces/inkscape"
   xmlns:sodipodi="http://sodipodi.sourceforge.net/DTD/sodipodi-0.dtd"
   xmlns="http://www.w3.org/2000/svg"
   xmlns:svg="http://www.w3.org/2000/svg">
  <defs
     id="defs24" />
  <sodipodi:namedview
     id="namedview22"
     pagecolor="#ffffff"
     bordercolor="#666666"
     borderopacity="1.0"
     inkscape:showpageshadow="2"
     inkscape:pageopacity="0.0"
     inkscape:pagecheckerboard="0"
     inkscape:deskcolor="#d1d1d1"
     showgrid="false"
     inkscape:zoom="10.17"
     inkscape:cx="8.4565"
     inkscape:cy="31.27"
     inkscape:current-layer="svg20" />
  <g
     id="g262"
     transform="translate(0,4)">
    <path
       d="M 22.75,16.118 C 22.75,14.948 21.802,14 20.632,14 H 7.3684 C 6.1985,14 5.25,14.948 5.25,16.118 V 19.25 H 22.75 Z"
       fill="#43b4bc"
       id="path2" />
    <path
       d="M 20.632,12.634 C 21.403,12.634 22.127,12.813 22.75,13.125 V 1.9335 C 22.75,0.86553 21.742,0 20.5,0 H 7.5002 C 6.2576,0 5.25,0.86553 5.25,1.9335 V 13.125 C 5.8733,12.813 6.5974,12.634 7.3684,12.634 Z"
       fill="#43b4bc"
       id="path4" />
    <rect
       y="10.5"
       width="3.5"
       height="7"
       rx="1"
       fill="#43b4bc"
       id="rect6"
       x="0"
       ry="1" />
    <path
       d="M 12.25,21.125 C 12.25,20.572 12.698,20.125 13.25,20.125 H 14.75 C 15.302,20.125 15.75,20.572 15.75,21.125 V 23.625 H 12.25 Z"
       fill="#43b4bc"
       id="path8" />
    <path
       d="M 5.25,26.25 H 7.875 V 27 C 7.875,27.552 7.4273,28 6.875,28 H 6.25 C 5.6977,28 5.25,27.552 5.25,27 Z"
       fill="#43b4bc"
       id="path10" />
    <path
       d="M 12.25,26.25 H 15.75 V 27 C 15.75,27.552 15.302,28 14.75,28 H 13.25 C 12.698,28 12.25,27.552 12.25,27 Z"
       fill="#43b4bc"
       id="path12" />
    <path
       d="M 20.125,26.25 H 22.75 V 27 C 22.75,27.552 22.302,28 21.75,28 H 21.125 C 20.573,28 20.125,27.552 20.125,27 Z"
       fill="#43b4bc"
       id="path14" />
    <path
       d="M 5.25,24.625 C 5.25,24.072 5.6977,23.625 6.25,23.625 H 21.75 C 22.302,23.625 22.75,24.072 22.75,24.625 V 26.25 H 5.25 Z"
       fill="#43b4bc"
       id="path16" />
    <rect
       x="24.5"
       y="10.5"
       width="3.5"
       height="7"
       rx="1"
       fill="#43b4bc"
       id="rect18"
       ry="1" />
  </g>
</svg>
