<svg width="26" height="32" viewBox="0 0 26 32" fill="none" xmlns="http://www.w3.org/2000/svg">
<path d="M0 13.6448C0.292871 14.1904 0.728391 14.6464 1.26009 14.9639C1.79179 15.2815 2.39973 15.4487 3.01903 15.4478H22.3603C22.9796 15.4487 23.5875 15.2815 24.1192 14.9639C24.6509 14.6464 25.0864 14.1904 25.3793 13.6448V12.1375H0V13.6448Z" fill="#43B4BC"/>
<path d="M3.01903 16.5512C1.90464 16.5522 0.829288 16.1409 0 15.3965V30.8961C0 31.1887 0.116256 31.4694 0.323193 31.6763C0.530129 31.8833 0.810796 31.9995 1.10345 31.9995H24.2759C24.5685 31.9995 24.8492 31.8833 25.0561 31.6763C25.2631 31.4694 25.3793 31.1887 25.3793 30.8961V15.3965C24.55 16.1409 23.4747 16.5522 22.3603 16.5512H3.01903Z" fill="#43B4BC"/>
<path d="M2.9707 3.30981C3.4231 4.7463 3.4231 6.28712 2.9707 7.72361H9.16656C8.71416 6.28712 8.71416 4.7463 9.16656 3.30981H2.9707Z" fill="#43B4BC"/>
<path d="M24.2759 -0.000488281H1.10345C0.810796 -0.000488281 0.530129 0.115768 0.323193 0.322704C0.116256 0.529641 0 0.810307 0 1.10296V11.034H25.3793V1.10296C25.3793 0.810307 25.2631 0.529641 25.0561 0.322704C24.8492 0.115768 24.5685 -0.000488281 24.2759 -0.000488281ZM10.2516 7.49248L10.4546 8.09937C10.4826 8.18241 10.4903 8.27091 10.4773 8.35755C10.4642 8.44419 10.4307 8.52648 10.3796 8.5976C10.3284 8.66872 10.261 8.72663 10.183 8.76654C10.105 8.80645 10.0187 8.82721 9.93103 8.8271H2.2069C2.11947 8.82712 2.0333 8.80637 1.95547 8.76655C1.87764 8.72673 1.81039 8.66899 1.75926 8.59808C1.70813 8.52717 1.67457 8.44513 1.66137 8.35871C1.64816 8.27229 1.65568 8.18397 1.68331 8.10103L1.88579 7.49413C2.09902 6.8567 2.20746 6.1889 2.2069 5.51675C2.20715 4.84521 2.0989 4.17804 1.88634 3.54103L1.68331 2.93413C1.65536 2.85109 1.64759 2.76259 1.66064 2.67595C1.67369 2.58932 1.70719 2.50703 1.75836 2.43591C1.80953 2.36479 1.8769 2.30688 1.9549 2.26697C2.0329 2.22706 2.11928 2.2063 2.2069 2.20641H9.93103C10.0185 2.20639 10.1046 2.22714 10.1825 2.26696C10.2603 2.30678 10.3275 2.36452 10.3787 2.43543C10.4298 2.50633 10.4634 2.58838 10.4766 2.6748C10.4898 2.76122 10.4822 2.84954 10.4546 2.93248L10.2521 3.53937C9.82437 4.82179 9.82437 6.2084 10.2521 7.49082L10.2516 7.49248ZM23.493 7.49248L23.696 8.09937C23.724 8.18241 23.7317 8.27091 23.7187 8.35755C23.7056 8.44419 23.6721 8.52648 23.621 8.5976C23.5698 8.66872 23.5024 8.72663 23.4244 8.76654C23.3464 8.80645 23.26 8.82721 23.1724 8.8271H15.4483C15.3609 8.82712 15.2747 8.80637 15.1969 8.76655C15.119 8.72673 15.0518 8.66899 15.0006 8.59808C14.9495 8.52717 14.916 8.44513 14.9028 8.35871C14.8895 8.27229 14.8971 8.18397 14.9247 8.10103L15.1272 7.49413C15.5549 6.21171 15.5549 4.8251 15.1272 3.54268L14.9241 2.93579C14.8958 2.85261 14.8878 2.76388 14.9008 2.67697C14.9137 2.59007 14.9472 2.50751 14.9984 2.43617C15.0497 2.36482 15.1173 2.30675 15.1955 2.26678C15.2738 2.22682 15.3604 2.20612 15.4483 2.20641H23.1724C23.2598 2.20639 23.346 2.22714 23.4238 2.26696C23.5017 2.30678 23.5689 2.36452 23.6201 2.43543C23.6712 2.50633 23.7047 2.58838 23.7179 2.6748C23.7311 2.76122 23.7236 2.84954 23.696 2.93248L23.4935 3.53937C23.0657 4.82179 23.0657 6.2084 23.4935 7.49082L23.493 7.49248Z" fill="#43B4BC"/>
<path d="M16.2129 3.30981C16.6653 4.7463 16.6653 6.28712 16.2129 7.72361H22.4088C21.9564 6.28712 21.9564 4.7463 22.4088 3.30981H16.2129Z" fill="#43B4BC"/>
</svg>
