<svg width="21" height="32" viewBox="0 0 21 32" fill="none" xmlns="http://www.w3.org/2000/svg">
<path d="M0 30.8959C0 31.1885 0.116256 31.4692 0.323193 31.6762C0.530129 31.8831 0.810796 31.9993 1.10345 31.9993H19.8621C20.1547 31.9993 20.4354 31.8831 20.6423 31.6762C20.8493 31.4692 20.9655 31.1885 20.9655 30.8959V13.2407H0V30.8959Z" fill="#43B4BC"/>
<path d="M0 9.93066H20.9655V12.1376H0V9.93066Z" fill="#43B4BC"/>
<path d="M7.38477 2.20654C7.83717 3.64303 7.83717 5.18385 7.38477 6.62034H13.5806C13.1282 5.18385 13.1282 3.64303 13.5806 2.20654H7.38477Z" fill="#43B4BC"/>
<path d="M19.8621 -0.000488281H1.10345C0.810796 -0.000488281 0.530129 0.115768 0.323193 0.322704C0.116256 0.529641 0 0.810307 0 1.10296V8.8271H20.9655V1.10296C20.9655 0.810307 20.8493 0.529641 20.6423 0.322704C20.4354 0.115768 20.1547 -0.000488281 19.8621 -0.000488281ZM14.6654 6.38903L14.8684 6.99593C14.8964 7.07896 14.9041 7.16747 14.8911 7.2541C14.878 7.34074 14.8445 7.42303 14.7934 7.49415C14.7422 7.56527 14.6748 7.62318 14.5968 7.66309C14.5188 7.703 14.4324 7.72376 14.3448 7.72365H6.62069C6.53327 7.72367 6.44709 7.70292 6.36926 7.6631C6.29144 7.62328 6.22419 7.56554 6.17305 7.49463C6.12192 7.42372 6.08837 7.34168 6.07516 7.25526C6.06196 7.16884 6.06948 7.08052 6.0971 6.99758L6.29959 6.39068C6.72736 5.10827 6.72736 3.72165 6.29959 2.43924L6.09655 1.83234C6.06826 1.74916 6.06024 1.66043 6.07317 1.57353C6.08609 1.48662 6.11958 1.40406 6.17085 1.33272C6.22212 1.26137 6.28969 1.2033 6.36793 1.16334C6.44618 1.12337 6.53283 1.10267 6.62069 1.10296H14.3448C14.4322 1.10294 14.5184 1.12369 14.5963 1.16351C14.6741 1.20333 14.7413 1.26107 14.7925 1.33198C14.8436 1.40289 14.8771 1.48493 14.8904 1.57135C14.9036 1.65777 14.896 1.74609 14.8684 1.82903L14.6659 2.43593C14.2382 3.71834 14.2382 5.10496 14.6659 6.38737L14.6654 6.38903Z" fill="#43B4BC"/>
</svg>
