<?xml version="1.0" encoding="UTF-8" standalone="no"?>
<svg
   width="95"
   height="32"
   viewBox="0 0 95 32"
   fill="none"
   version="1.1"
   id="svg20"
   sodipodi:docname="sofa4.svg"
   inkscape:version="1.2 (dc2aedaf03, 2022-05-15)"
   xmlns:inkscape="http://www.inkscape.org/namespaces/inkscape"
   xmlns:sodipodi="http://sodipodi.sourceforge.net/DTD/sodipodi-0.dtd"
   xmlns="http://www.w3.org/2000/svg"
   xmlns:svg="http://www.w3.org/2000/svg">
  <defs
     id="defs24" />
  <sodipodi:namedview
     id="namedview22"
     pagecolor="#ffffff"
     bordercolor="#666666"
     borderopacity="1.0"
     inkscape:showpageshadow="2"
     inkscape:pageopacity="0.0"
     inkscape:pagecheckerboard="0"
     inkscape:deskcolor="#d1d1d1"
     showgrid="false"
     inkscape:zoom="4.8868"
     inkscape:cx="-4.5019"
     inkscape:cy="64.663"
     inkscape:current-layer="svg20" />
  <g
     id="g262"
     transform="translate(0,4)">
    <path
       d="M 1.931,7.7236 C 0.86423,7.7236 0,8.5871 0,9.6543 V 26.068 C 0,27.135 0.86423,28 1.931,28 H 5.7931 C 6.86,28 7.7241,27.135 7.7241,26.068 34.109,26.068 60.496,26.068 86.882,26.068 86.882,27.135 87.747,28 88.814,28 H 92.676 C 93.744,28 94.606,27.135 94.606,26.068 V 9.6545 C 94.606,8.5872 93.744,7.7236 92.676,7.7236 H 88.814 C 87.747,7.7236 86.882,8.5872 86.882,9.6545 V 14.482 18.344 20.275 H 84.952 C 59.853,20.275 34.754,20.275 9.6552,20.275 H 7.7241 V 18.344 14.482 9.6543 C 7.7241,8.5871 6.86,7.7236 5.7931,7.7236 Z"
       fill="#43b4bc"
       id="path2" />
    <path
       d="M 25.124,10.62 C 25.821,10.62 26.469,10.823 27.033,11.152 V 1.9302 C 27.033,0.86392 26.169,0 25.101,0 H 11.585 C 10.518,0 9.6543,0.86392 9.6543,1.9302 V 11.169 C 10.234,10.829 10.903,10.62 11.625,10.62 Z"
       fill="#43b4bc"
       id="path4" />
    <path
       d="M 27.033,14.482 C 27.033,13.416 26.18,12.551 25.111,12.551 H 25.101 11.625 C 10.559,12.551 9.6543,13.416 9.6543,14.482 V 18.344 H 27.033 Z"
       fill="#43b4bc"
       id="path6" />
    <path
       d="M 63.744,10.618 C 64.442,10.618 65.09,10.821 65.654,11.151 V 1.9294 C 65.654,0.86329 64.79,0 63.722,0 H 50.206 C 49.139,0 48.275,0.86329 48.275,1.9294 V 11.168 C 48.855,10.827 49.524,10.618 50.246,10.618 Z"
       fill="#43b4bc"
       id="path8" />
    <path
       d="M 65.654,14.48 C 65.654,13.414 64.8,12.55 63.733,12.55 H 63.722 50.246 C 49.18,12.55 48.275,13.414 48.275,14.48 V 18.342 H 65.654 Z"
       fill="#43b4bc"
       id="path10" />
    <path
       d="M 44.434,10.62 C 45.133,10.62 45.781,10.823 46.344,11.152 V 1.9302 C 46.344,0.86392 45.48,0 44.413,0 H 30.896 C 29.829,0 28.965,0.86392 28.965,1.9302 V 11.169 C 29.545,10.829 30.215,10.62 30.937,10.62 Z"
       fill="#43b4bc"
       id="path12" />
    <path
       d="M 46.344,14.482 C 46.344,13.416 45.491,12.551 44.424,12.551 H 44.413 30.937 C 29.87,12.551 28.965,13.416 28.965,14.482 V 18.344 H 46.344 Z"
       fill="#43b4bc"
       id="path14" />
    <path
       d="M 83.041,10.618 C 83.739,10.618 84.387,10.821 84.951,11.151 V 1.9294 C 84.951,0.86329 84.087,0 83.019,0 H 69.503 C 68.436,0 67.572,0.86329 67.572,1.9294 V 11.168 C 68.152,10.827 68.821,10.618 69.543,10.618 Z"
       fill="#43b4bc"
       id="path16" />
    <path
       d="M 84.951,14.48 C 84.951,13.414 84.097,12.55 83.03,12.55 H 83.019 69.543 C 68.477,12.55 67.572,13.414 67.572,14.48 V 18.342 H 84.951 Z"
       fill="#43b4bc"
       id="path18" />
  </g>
</svg>
