<?xml version="1.0" encoding="UTF-8" standalone="no"?>
<svg
   width="76"
   height="32"
   viewBox="0 0 76 32"
   fill="none"
   version="1.1"
   id="svg16"
   sodipodi:docname="sofa3.svg"
   inkscape:version="1.2 (dc2aedaf03, 2022-05-15)"
   xmlns:inkscape="http://www.inkscape.org/namespaces/inkscape"
   xmlns:sodipodi="http://sodipodi.sourceforge.net/DTD/sodipodi-0.dtd"
   xmlns="http://www.w3.org/2000/svg"
   xmlns:svg="http://www.w3.org/2000/svg">
  <defs
     id="defs20" />
  <sodipodi:namedview
     id="namedview18"
     pagecolor="#ffffff"
     bordercolor="#666666"
     borderopacity="1.0"
     inkscape:showpageshadow="2"
     inkscape:pageopacity="0.0"
     inkscape:pagecheckerboard="0"
     inkscape:deskcolor="#d1d1d1"
     showgrid="false"
     inkscape:zoom="4.3194"
     inkscape:cx="84.734"
     inkscape:cy="68.991"
     inkscape:current-layer="svg16" />
  <g
     id="g256"
     transform="translate(0,4)">
    <path
       d="M 1.9305,7.7236 C 0.86429,7.7236 0,8.5868 0,9.654 V 26.068 C 0,27.135 0.86429,28 1.9305,28 H 5.7935 C 6.8598,28 7.7241,27.135 7.7241,26.068 27.672,26.068 47.621,26.068 67.57,26.068 67.57,27.135 68.439,28 69.499,28 H 73.365 C 74.436,28 75.294,27.135 75.294,26.068 V 9.654 C 75.294,8.5868 74.436,7.7236 73.365,7.7236 H 69.499 C 68.439,7.7236 67.57,8.5868 67.57,9.654 V 14.482 18.344 20.276 H 65.641 C 46.979,20.276 28.317,20.276 9.6556,20.276 H 7.7241 V 18.344 14.482 9.654 C 7.7241,8.5868 6.8598,7.7236 5.7935,7.7236 Z"
       fill="#43b4bc"
       id="path2" />
    <path
       d="M 63.73,10.618 C 64.429,10.618 65.076,10.821 65.64,11.151 V 1.9294 C 65.64,0.86329 64.776,0 63.709,0 H 50.192 C 49.125,0 48.262,0.86329 48.262,1.9294 V 11.168 C 48.841,10.827 49.511,10.618 50.233,10.618 Z"
       fill="#43b4bc"
       id="path4" />
    <path
       d="M 65.64,14.48 C 65.64,13.414 64.786,12.55 63.719,12.55 H 63.709 50.233 C 49.166,12.55 48.262,13.414 48.262,14.48 V 18.342 H 65.64 Z"
       fill="#43b4bc"
       id="path6" />
    <path
       d="M 25.119,10.62 C 25.826,10.62 26.472,10.823 27.038,11.152 V 1.9298 C 27.038,0.86365 26.169,0 25.1,0 H 11.585 C 10.518,0 9.6543,0.86365 9.6543,1.9298 V 11.169 C 10.234,10.829 10.904,10.62 11.626,10.62 Z"
       fill="#43b4bc"
       id="path8" />
    <path
       d="M 27.038,14.482 C 27.038,13.416 26.179,12.551 25.11,12.551 H 25.1 11.626 C 10.56,12.551 9.6543,13.416 9.6543,14.482 V 18.344 H 27.038 Z"
       fill="#43b4bc"
       id="path10" />
    <path
       d="M 44.435,10.62 C 45.132,10.62 45.778,10.823 46.343,11.152 V 1.9298 C 46.343,0.86365 45.485,0 44.415,0 H 30.895 C 29.825,0 28.967,0.86365 28.967,1.9298 V 11.169 C 29.542,10.829 30.219,10.62 30.936,10.62 Z"
       fill="#43b4bc"
       id="path12" />
    <path
       d="M 46.343,14.482 C 46.343,13.416 45.485,12.551 44.425,12.551 H 44.415 30.936 C 29.865,12.551 28.967,13.416 28.967,14.482 V 18.344 H 46.343 Z"
       fill="#43b4bc"
       id="path14" />
  </g>
</svg>
