<svg width="88" height="88" viewBox="0 0 88 88" fill="none" xmlns="http://www.w3.org/2000/svg">
<path d="M28 38C28 33.5813 31.5813 30 36 30H52C56.4188 30 60 33.5813 60 38V40.1C57.7188 40.5625 56 42.5813 56 45V48H32V45C32 42.5813 30.2812 40.5625 28 40.1V38ZM58 45C58 43.6938 58.8375 42.5813 60 42.1687C60.3125 42.0562 60.65 42 61 42C62.6562 42 64 43.3438 64 45V56C64 57.1063 63.1063 58 62 58H60C58.8937 58 58 57.1063 58 56H30C30 57.1063 29.1062 58 28 58H26C24.8937 58 24 57.1063 24 56V45C24 43.3438 25.3438 42 27 42C27.35 42 27.6875 42.0625 28 42.1687C29.1625 42.5813 30 43.6938 30 45V48V50H32H56H58V48V45Z" fill="#3E9197"/>
<circle cx="44" cy="44" r="43" stroke="#3E9197" stroke-width="2"/>
</svg>
