<svg width="88" height="88" viewBox="0 0 88 88" fill="none" xmlns="http://www.w3.org/2000/svg">
<g clip-path="url(#clip0_1_568)">
<path d="M43.9993 56C52.8368 56 59.9993 50.1812 59.9993 43C59.9993 35.8187 52.8368 30 43.9993 30C35.1618 30 27.9993 35.8187 27.9993 43C27.9993 45.8188 29.1056 48.425 30.9806 50.5562C30.8618 52.0875 30.2681 53.45 29.6431 54.4875C29.2993 55.0625 28.9493 55.525 28.6931 55.8375C28.5618 55.9937 28.4618 56.1125 28.3868 56.1938C28.3493 56.2313 28.3243 56.2625 28.3056 56.2812L28.2868 56.3C27.9993 56.5875 27.9181 57.0125 28.0743 57.3875C28.2306 57.7625 28.5931 58.0063 28.9993 58.0063C30.7931 58.0063 32.5993 57.45 34.0993 56.8C35.5306 56.175 36.7493 55.4313 37.4931 54.8875C39.4806 55.6063 41.6806 56.0063 43.9993 56.0063V56ZM45.2493 36.5V37.3687C45.7181 37.4437 46.1618 37.55 46.5681 37.6625C47.2368 37.8375 47.6306 38.525 47.4556 39.1938C47.2806 39.8625 46.5931 40.2563 45.9243 40.0813C45.2368 39.9 44.5743 39.7688 43.9743 39.7563C43.4806 39.75 42.9743 39.8688 42.6306 40.0688C42.3306 40.2438 42.2431 40.4187 42.2431 40.65C42.2431 40.7625 42.2493 40.8688 42.5743 41.0688C42.9681 41.3063 43.5431 41.4875 44.3431 41.725L44.3868 41.7375C45.0868 41.95 45.9868 42.2188 46.7056 42.675C47.5118 43.1813 48.2243 44.0062 48.2431 45.275C48.2618 46.5812 47.5868 47.5312 46.6931 48.0875C46.2431 48.3687 45.7431 48.5437 45.2431 48.65V49.5C45.2431 50.1875 44.6806 50.75 43.9931 50.75C43.3056 50.75 42.7431 50.1875 42.7431 49.5V48.5875C42.0993 48.45 41.4931 48.2437 40.9806 48.0625C40.8493 48.0187 40.7243 47.975 40.5993 47.9312C39.9431 47.7125 39.5931 47.0063 39.8118 46.35C40.0306 45.6938 40.7368 45.3438 41.3931 45.5625C41.5493 45.6125 41.6993 45.6687 41.8431 45.7125C42.6931 46 43.3431 46.2188 44.0368 46.2437C44.5743 46.2625 45.0681 46.1438 45.3743 45.95C45.6306 45.7938 45.7493 45.6063 45.7431 45.2938C45.7431 45.1125 45.6931 44.9812 45.3743 44.7812C44.9806 44.5312 44.4118 44.35 43.6243 44.1125L43.5181 44.0812C42.8368 43.875 41.9806 43.6188 41.2931 43.2063C40.4993 42.725 39.7556 41.925 39.7493 40.6625C39.7431 39.3438 40.4868 38.4312 41.3618 37.9187C41.7931 37.6625 42.2681 37.4937 42.7493 37.3875V36.5C42.7493 35.8125 43.3118 35.25 43.9993 35.25C44.6868 35.25 45.2493 35.8125 45.2493 36.5Z" fill="#3E9197"/>
</g>
<circle cx="44" cy="44" r="43" stroke="#3E9197" stroke-width="2"/>
<defs>
<clipPath id="clip0_1_568">
<rect width="32" height="32" fill="white" transform="translate(28 28)"/>
</clipPath>
</defs>
</svg>
