<?xml version="1.0" encoding="UTF-8" standalone="no"?>
<svg
   width="180"
   height="52"
   viewBox="0 0 180 52"
   fill="none"
   version="1.1"
   id="svg16"
   sodipodi:docname="logo_chisto.svg"
   inkscape:version="1.2 (dc2aedaf03, 2022-05-15)"
   xmlns:inkscape="http://www.inkscape.org/namespaces/inkscape"
   xmlns:sodipodi="http://sodipodi.sourceforge.net/DTD/sodipodi-0.dtd"
   xmlns="http://www.w3.org/2000/svg"
   xmlns:svg="http://www.w3.org/2000/svg">
  <defs
     id="defs20" />
  <sodipodi:namedview
     id="namedview18"
     pagecolor="#ffffff"
     bordercolor="#666666"
     borderopacity="1.0"
     inkscape:showpageshadow="2"
     inkscape:pageopacity="0.0"
     inkscape:pagecheckerboard="0"
     inkscape:deskcolor="#d1d1d1"
     showgrid="false"
     inkscape:zoom="2.2584"
     inkscape:cx="154.76"
     inkscape:cy="64.648"
     inkscape:current-layer="svg16" />
  <path
     d="M 47.601,12.939 47.475,9.8496 47.387,12.94 C 47.276,16.807 44.202,19.928 40.352,20.084 L 37.273,20.209 40.353,20.3 C 44.205,20.411 47.315,23.495 47.471,27.36 L 47.595,30.449 47.684,27.36 C 47.796,23.492 50.869,20.371 54.72,20.215 L 57.798,20.089 54.72,19.999 C 50.866,19.888 47.758,16.804 47.601,12.939 Z"
     fill="#43b4bc"
     id="path2" />
  <path
     d="M 58.498,9.1501 C 56.668,9.0977 55.195,7.6334 55.12,5.7984 L 55.061,4.333 55.017,5.7984 C 54.966,7.6346 53.507,9.1156 51.679,9.1895 L 50.219,9.2503 51.68,9.292 C 53.508,9.3457 54.984,10.809 55.059,12.644 L 55.118,14.11 55.16,12.643 C 55.213,10.807 56.672,9.3266 58.498,9.2527 L 59.96,9.1931 Z"
     fill="#43b4bc"
     id="path4" />
  <path
     d="M 39.888,16.35 39.92,17.143 39.943,16.35 C 39.971,15.359 40.759,14.559 41.746,14.518 L 42.535,14.487 41.746,14.464 C 40.758,14.435 39.961,13.644 39.92,12.653 L 39.889,11.861 39.867,12.653 C 39.837,13.645 39.05,14.446 38.064,14.486 L 37.273,14.518 38.064,14.54 C 39.051,14.57 39.849,15.36 39.888,16.35 Z"
     fill="#43b4bc"
     id="path6" />
  <path
     d="M 17.674,10.084 C 17.346,10.053 17.015,10.087 16.689,10.186 14.585,10.82 14.16,12.214 15.217,15.015 16.939,19.564 20.363,35.385 20.363,38.8 20.363,40.512 20.465,40.957 20.945,41.292 21.541,41.712 21.487,42.403 20.508,46.622 20.001,48.828 21.582,47.218 22.323,44.786 22.744,43.391 23.089,42.092 23.089,41.891 23.089,41.221 40.881,41.383 41.072,42.059 42.355,46.634 42.62,47.301 43.141,47.301 43.768,47.301 43.77,47.278 43.396,45.632 42.594,42.137 42.644,41.579 43.744,41.472 44.667,41.383 44.759,41.28 44.844,40.234 44.901,39.535 45.095,39.094 45.341,39.094 45.902,39.094 46.114,38.395 46.109,36.561 46.105,34.561 45.852,33.62 45.318,33.62 44.982,33.62 44.901,32.792 44.901,29.402 44.901,24.532 44.968,24.653 42.175,24.389 41.094,24.288 39.66,24.133 38.994,24.044 38.327,23.957 34.998,23.546 31.597,23.13 28.194,22.713 25.389,22.339 25.361,22.297 25.335,22.254 24.933,21.126 24.469,19.789 22.337,13.652 19.98,10.303 17.674,10.084 Z"
     fill="#43b4bc"
     id="path8" />
  <path
     d="M 65.782,6.4998 C 65.782,5.3031 65.596,4.333 65.366,4.333 65.136,4.333 64.949,5.3031 64.949,6.4998 V 45.5 C 64.949,46.696 65.136,47.666 65.366,47.666 65.596,47.666 65.782,46.696 65.782,45.5 Z"
     fill="#43b4bc"
     id="path10" />
  <path
     d="M 76.268,37.449 C 76.776,37.449 77.161,37.627 77.423,37.982 77.684,38.338 77.815,38.883 77.815,39.617 V 44 H 76.913 V 39.799 C 76.913,39.279 76.844,38.891 76.708,38.633 76.575,38.375 76.364,38.246 76.075,38.246 75.653,38.246 75.344,38.434 75.149,38.809 74.954,39.184 74.856,39.785 74.856,40.613 V 44 H 73.954 V 37.566 H 74.675 L 74.774,38.498 H 74.833 C 74.923,38.283 75.038,38.098 75.179,37.941 75.319,37.785 75.481,37.664 75.665,37.578 75.848,37.492 76.05,37.449 76.268,37.449 Z M 81.317,37.461 C 81.755,37.461 82.114,37.588 82.396,37.842 82.681,38.096 82.892,38.438 83.028,38.867 83.169,39.297 83.239,39.775 83.239,40.303 V 40.941 H 80.175 C 80.183,41.742 80.306,42.344 80.544,42.746 80.786,43.148 81.15,43.35 81.634,43.35 81.864,43.35 82.091,43.315 82.314,43.244 82.536,43.174 82.767,43.06 83.005,42.904 V 43.713 C 82.782,43.85 82.55,43.951 82.308,44.018 82.066,44.084 81.808,44.117 81.534,44.117 80.999,44.117 80.566,43.975 80.234,43.69 79.902,43.4 79.659,43.008 79.507,42.512 79.359,42.012 79.284,41.447 79.284,40.818 79.284,40.1 79.36,39.49 79.513,38.99 79.665,38.49 79.892,38.111 80.192,37.853 80.497,37.592 80.872,37.461 81.317,37.461 Z M 81.317,38.199 C 80.978,38.199 80.712,38.365 80.521,38.697 80.329,39.025 80.218,39.533 80.187,40.221 H 82.396 C 82.396,39.857 82.356,39.523 82.278,39.219 82.204,38.91 82.087,38.664 81.927,38.481 81.771,38.293 81.567,38.199 81.317,38.199 Z M 88.488,44 87.714,40.01 C 87.695,39.9 87.675,39.787 87.656,39.67 87.636,39.553 87.617,39.435 87.597,39.318 87.582,39.201 87.566,39.086 87.55,38.973 87.535,38.856 87.519,38.742 87.503,38.633 H 87.474 C 87.458,38.746 87.441,38.863 87.421,38.984 87.406,39.102 87.388,39.219 87.369,39.336 87.353,39.453 87.335,39.568 87.316,39.682 87.296,39.795 87.277,39.904 87.257,40.01 L 86.437,44 H 85.406 L 84.017,37.566 H 84.919 L 85.605,40.918 C 85.644,41.129 85.683,41.346 85.722,41.568 85.761,41.787 85.798,42.008 85.833,42.231 85.869,42.449 85.902,42.668 85.933,42.887 H 85.968 C 85.988,42.75 86.007,42.607 86.027,42.459 86.05,42.307 86.074,42.15 86.097,41.99 86.124,41.826 86.154,41.658 86.185,41.486 86.216,41.31 86.251,41.133 86.29,40.953 L 86.988,37.566 H 87.99 L 88.681,40.971 C 88.716,41.119 88.749,41.291 88.781,41.486 88.816,41.682 88.851,41.897 88.886,42.131 88.921,42.365 88.958,42.617 88.998,42.887 H 89.033 C 89.044,42.77 89.06,42.643 89.079,42.506 89.099,42.369 89.123,42.221 89.15,42.06 89.177,41.897 89.208,41.723 89.244,41.539 L 90.064,37.566 H 90.943 L 89.525,44 Z M 95.322,44 H 94.42 V 34.883 H 95.322 Z M 97.969,37.566 V 44 H 97.073 V 37.566 Z M 97.536,35.152 C 97.719,35.152 97.852,35.211 97.934,35.328 98.02,35.445 98.063,35.607 98.063,35.815 98.063,36.018 98.018,36.178 97.928,36.295 97.838,36.412 97.707,36.471 97.536,36.471 97.368,36.471 97.235,36.412 97.137,36.295 97.039,36.178 96.991,36.018 96.991,35.815 96.991,35.6 97.037,35.435 97.131,35.322 97.225,35.209 97.36,35.152 97.536,35.152 Z M 101.75,38.328 H 100.73 V 44 H 99.837 V 38.328 H 99.046 V 37.842 L 99.837,37.537 V 37.103 C 99.837,36.615 99.878,36.201 99.96,35.861 100.05,35.522 100.19,35.264 100.4,35.088 100.61,34.908 100.9,34.818 101.27,34.818 101.44,34.818 101.6,34.834 101.74,34.865 101.89,34.897 102.04,34.943 102.2,35.006 L 101.96,35.732 C 101.85,35.693 101.75,35.664 101.65,35.645 101.56,35.621 101.47,35.609 101.37,35.609 101.13,35.609 100.96,35.717 100.87,35.932 100.79,36.143 100.74,36.525 100.73,37.08 V 37.566 H 101.75 Z M 104.66,37.461 C 105.1,37.461 105.46,37.588 105.74,37.842 106.03,38.096 106.24,38.438 106.37,38.867 106.51,39.297 106.58,39.775 106.58,40.303 V 40.941 H 103.52 C 103.53,41.742 103.65,42.344 103.89,42.746 104.13,43.148 104.5,43.35 104.98,43.35 105.21,43.35 105.44,43.315 105.66,43.244 105.88,43.174 106.11,43.06 106.35,42.904 V 43.713 C 106.13,43.85 105.9,43.951 105.65,44.018 105.41,44.084 105.15,44.117 104.88,44.117 104.34,44.117 103.91,43.975 103.58,43.69 103.25,43.4 103,43.008 102.85,42.512 102.7,42.012 102.63,41.447 102.63,40.818 102.63,40.1 102.71,39.49 102.86,38.99 103.01,38.49 103.24,38.111 103.54,37.853 103.84,37.592 104.22,37.461 104.66,37.461 Z M 104.66,38.199 C 104.32,38.199 104.06,38.365 103.87,38.697 103.67,39.025 103.56,39.533 103.53,40.221 H 105.74 C 105.74,39.857 105.7,39.523 105.62,39.219 105.55,38.91 105.43,38.664 105.27,38.481 105.12,38.293 104.91,38.199 104.66,38.199 Z M 112.47,38.328 H 111.46 V 44 H 110.56 V 38.328 H 109.77 V 37.842 L 110.56,37.537 V 37.103 C 110.56,36.615 110.6,36.201 110.68,35.861 110.77,35.522 110.92,35.264 111.12,35.088 111.33,34.908 111.62,34.818 111.99,34.818 112.16,34.818 112.32,34.834 112.46,34.865 112.61,34.897 112.76,34.943 112.92,35.006 L 112.69,35.732 C 112.58,35.693 112.47,35.664 112.38,35.645 112.28,35.621 112.19,35.609 112.09,35.609 111.85,35.609 111.69,35.717 111.6,35.932 111.51,36.143 111.46,36.525 111.46,37.08 V 37.566 H 112.47 Z M 117.61,40.777 C 117.61,41.285 117.56,41.744 117.48,42.154 117.39,42.565 117.26,42.916 117.09,43.209 116.91,43.502 116.69,43.727 116.42,43.883 116.15,44.039 115.83,44.117 115.46,44.117 115.11,44.117 114.8,44.039 114.54,43.883 114.27,43.727 114.05,43.504 113.87,43.215 113.7,42.922 113.57,42.57 113.48,42.16 113.39,41.746 113.34,41.285 113.34,40.777 113.34,40.066 113.42,39.465 113.57,38.973 113.72,38.477 113.96,38.1 114.27,37.842 114.59,37.58 114.99,37.449 115.48,37.449 115.94,37.449 116.32,37.576 116.64,37.83 116.96,38.08 117.2,38.453 117.36,38.949 117.53,39.441 117.61,40.051 117.61,40.777 Z M 114.26,40.777 C 114.26,41.336 114.31,41.805 114.39,42.184 114.48,42.563 114.61,42.848 114.79,43.039 114.97,43.231 115.2,43.326 115.49,43.326 115.76,43.326 115.99,43.232 116.17,43.045 116.35,42.857 116.48,42.576 116.56,42.201 116.65,41.822 116.69,41.348 116.69,40.777 116.69,40.219 116.65,39.752 116.56,39.377 116.48,38.998 116.35,38.715 116.17,38.527 115.99,38.336 115.76,38.24 115.48,38.24 115.05,38.24 114.74,38.453 114.55,38.879 114.36,39.301 114.26,39.934 114.26,40.777 Z M 121.23,37.455 C 121.32,37.455 121.41,37.463 121.5,37.478 121.59,37.49 121.69,37.512 121.78,37.543 L 121.64,38.469 C 121.57,38.438 121.5,38.416 121.42,38.404 121.34,38.393 121.26,38.387 121.17,38.387 120.99,38.387 120.83,38.445 120.68,38.563 120.54,38.676 120.41,38.836 120.31,39.043 120.2,39.25 120.12,39.49 120.06,39.764 120.01,40.037 119.98,40.332 119.98,40.648 V 44 H 119.08 V 37.566 H 119.78 L 119.91,38.709 H 119.97 C 120.06,38.463 120.16,38.246 120.28,38.059 120.4,37.871 120.54,37.725 120.7,37.619 120.86,37.51 121.04,37.455 121.23,37.455 Z M 127.29,38.328 H 126.27 V 44 H 125.38 V 38.328 H 124.59 V 37.842 L 125.38,37.537 V 37.103 C 125.38,36.615 125.42,36.201 125.5,35.861 125.59,35.522 125.73,35.264 125.94,35.088 126.15,34.908 126.44,34.818 126.81,34.818 126.98,34.818 127.14,34.834 127.28,34.865 127.43,34.897 127.58,34.943 127.74,35.006 L 127.5,35.732 C 127.39,35.693 127.29,35.664 127.19,35.645 127.1,35.621 127.01,35.609 126.91,35.609 126.67,35.609 126.5,35.717 126.42,35.932 126.33,36.143 126.28,36.525 126.27,37.08 V 37.566 H 127.29 Z M 132.27,37.566 V 44 H 131.55 L 131.45,43.086 H 131.39 C 131.3,43.297 131.19,43.481 131.05,43.637 130.91,43.789 130.75,43.908 130.57,43.994 130.39,44.076 130.19,44.117 129.97,44.117 129.59,44.117 129.29,44.023 129.06,43.836 128.84,43.648 128.67,43.381 128.56,43.033 128.46,42.685 128.41,42.272 128.41,41.791 V 37.566 H 129.31 V 41.621 C 129.31,42.199 129.38,42.625 129.51,42.898 129.65,43.172 129.86,43.309 130.13,43.309 130.43,43.309 130.68,43.227 130.85,43.063 131.03,42.895 131.16,42.643 131.25,42.307 131.33,41.967 131.37,41.537 131.37,41.018 V 37.566 Z M 136.18,37.455 C 136.27,37.455 136.36,37.463 136.45,37.478 136.54,37.49 136.63,37.512 136.73,37.543 L 136.59,38.469 C 136.52,38.438 136.44,38.416 136.37,38.404 136.29,38.393 136.21,38.387 136.12,38.387 135.94,38.387 135.78,38.445 135.63,38.563 135.48,38.676 135.36,38.836 135.25,39.043 135.15,39.25 135.07,39.49 135.01,39.764 134.95,40.037 134.93,40.332 134.93,40.648 V 44 H 134.03 V 37.566 H 134.73 L 134.85,38.709 H 134.91 C 135,38.463 135.11,38.246 135.23,38.059 135.35,37.871 135.49,37.725 135.65,37.619 135.81,37.51 135.98,37.455 136.18,37.455 Z M 140.12,37.449 C 140.63,37.449 141.01,37.627 141.28,37.982 141.54,38.338 141.67,38.883 141.67,39.617 V 44 H 140.77 V 39.799 C 140.77,39.279 140.7,38.891 140.56,38.633 140.43,38.375 140.22,38.246 139.93,38.246 139.51,38.246 139.2,38.434 139,38.809 138.81,39.184 138.71,39.785 138.71,40.613 V 44 H 137.81 V 37.566 H 138.53 L 138.63,38.498 H 138.68 C 138.78,38.283 138.89,38.098 139.03,37.941 139.17,37.785 139.33,37.664 139.52,37.578 139.7,37.492 139.9,37.449 140.12,37.449 Z M 144.31,37.566 V 44 H 143.41 V 37.566 Z M 143.87,35.152 C 144.06,35.152 144.19,35.211 144.27,35.328 144.36,35.445 144.4,35.607 144.4,35.815 144.4,36.018 144.36,36.178 144.27,36.295 144.18,36.412 144.05,36.471 143.87,36.471 143.71,36.471 143.57,36.412 143.48,36.295 143.38,36.178 143.33,36.018 143.33,35.815 143.33,35.6 143.38,35.435 143.47,35.322 143.56,35.209 143.7,35.152 143.87,35.152 Z M 147.58,43.32 C 147.67,43.32 147.77,43.31 147.87,43.291 147.97,43.268 148.06,43.236 148.15,43.197 V 43.935 C 148.03,43.99 147.9,44.033 147.76,44.065 147.62,44.1 147.46,44.117 147.29,44.117 147.01,44.117 146.78,44.055 146.6,43.93 146.43,43.805 146.3,43.619 146.21,43.373 146.13,43.123 146.09,42.81 146.09,42.435 V 38.322 H 145.49 V 37.83 L 146.13,37.59 146.37,36.107 H 146.99 V 37.566 H 148.08 V 38.322 H 146.99 V 42.33 C 146.99,42.662 147.03,42.91 147.11,43.074 147.19,43.238 147.35,43.32 147.58,43.32 Z M 153.13,37.566 V 44 H 152.41 L 152.31,43.086 H 152.25 C 152.16,43.297 152.05,43.481 151.9,43.637 151.77,43.789 151.61,43.908 151.43,43.994 151.25,44.076 151.05,44.117 150.83,44.117 150.45,44.117 150.15,44.023 149.92,43.836 149.69,43.648 149.53,43.381 149.42,43.033 149.32,42.685 149.27,42.272 149.27,41.791 V 37.566 H 150.17 V 41.621 C 150.17,42.199 150.24,42.625 150.37,42.898 150.51,43.172 150.71,43.309 150.99,43.309 151.29,43.309 151.53,43.227 151.71,43.063 151.89,42.895 152.02,42.643 152.1,42.307 152.19,41.967 152.23,41.537 152.23,41.018 V 37.566 Z M 157.04,37.455 C 157.13,37.455 157.22,37.463 157.31,37.478 157.4,37.49 157.49,37.512 157.59,37.543 L 157.45,38.469 C 157.38,38.438 157.3,38.416 157.22,38.404 157.15,38.393 157.06,38.387 156.97,38.387 156.8,38.387 156.63,38.445 156.49,38.563 156.34,38.676 156.22,38.836 156.11,39.043 156,39.25 155.92,39.49 155.86,39.764 155.81,40.037 155.78,40.332 155.79,40.648 V 44 H 154.89 V 37.566 H 155.59 L 155.71,38.709 H 155.77 C 155.86,38.463 155.97,38.246 156.09,38.059 156.21,37.871 156.35,37.725 156.5,37.619 156.66,37.51 156.84,37.455 157.04,37.455 Z M 160.43,37.461 C 160.87,37.461 161.23,37.588 161.51,37.842 161.8,38.096 162.01,38.438 162.14,38.867 162.28,39.297 162.35,39.775 162.35,40.303 V 40.941 H 159.29 C 159.3,41.742 159.42,42.344 159.66,42.746 159.9,43.148 160.26,43.35 160.75,43.35 160.98,43.35 161.21,43.315 161.43,43.244 161.65,43.174 161.88,43.06 162.12,42.904 V 43.713 C 161.9,43.85 161.67,43.951 161.42,44.018 161.18,44.084 160.92,44.117 160.65,44.117 160.12,44.117 159.68,43.975 159.35,43.69 159.02,43.4 158.78,43.008 158.62,42.512 158.47,42.012 158.4,41.447 158.4,40.818 158.4,40.1 158.48,39.49 158.63,38.99 158.78,38.49 159.01,38.111 159.31,37.853 159.61,37.592 159.99,37.461 160.43,37.461 Z M 160.43,38.199 C 160.09,38.199 159.83,38.365 159.64,38.697 159.44,39.025 159.33,39.533 159.3,40.221 H 161.51 C 161.51,39.857 161.47,39.523 161.39,39.219 161.32,38.91 161.2,38.664 161.04,38.481 160.89,38.293 160.68,38.199 160.43,38.199 Z"
     fill="#000000"
     id="path12" />
  <text
     xml:space="preserve"
     style="font-style:normal;font-variant:normal;font-weight:normal;font-stretch:normal;font-size:26px;line-height:1.25;font-family:Oswald;-inkscape-font-specification:'Oswald, Normal';font-variant-ligatures:normal;font-variant-caps:normal;font-variant-numeric:normal;font-variant-east-asian:normal;text-align:center;text-anchor:middle;fill:#43b4bc;fill-opacity:1"
     x="102.55"
     y="30.435"
     id="text334-5"><tspan
       sodipodi:role="line"
       id="tspan332-8"
       x="102.55"
       y="30.435">Chisto</tspan></text>
</svg>
