<svg width="209" height="52" viewBox="0 0 209 52" fill="none" xmlns="http://www.w3.org/2000/svg">
<path d="M47.6012 12.939L47.4753 9.84961L47.3874 12.9402C47.2757 16.8075 44.2019 19.9279 40.3516 20.0841L37.2734 20.2093L40.3527 20.2999C44.2054 20.4108 47.3149 23.4954 47.4705 27.3599L47.5953 30.4493L47.6844 27.3599C47.796 23.4918 50.8694 20.3714 54.7197 20.2152L57.7978 20.0889L54.7197 19.9994C50.8658 19.8885 47.758 16.8039 47.6012 12.939Z" fill="#43B4BC"/>
<path d="M58.4979 9.15013C56.6684 9.09767 55.1953 7.63345 55.1204 5.79842L55.061 4.33301L55.0171 5.79842C54.966 7.63465 53.5071 9.11555 51.6788 9.18948L50.2188 9.25029L51.68 9.29202C53.5083 9.34568 54.9838 10.8087 55.0587 12.6437L55.1181 14.1103L55.1596 12.6425C55.2131 10.8075 56.672 9.3266 58.4979 9.25268L59.9604 9.19306L58.4979 9.15013Z" fill="#43B4BC"/>
<path d="M39.8882 16.3498L39.9203 17.1428L39.9429 16.3498C39.9714 15.359 40.759 14.5589 41.7463 14.5184L42.5351 14.4874L41.7463 14.4635C40.7578 14.4349 39.9607 13.6439 39.9203 12.6531L39.8894 11.8613L39.8668 12.6531C39.8371 13.6451 39.0495 14.4456 38.0635 14.4862L37.2734 14.5184L38.0635 14.5398C39.0507 14.5696 39.849 15.3602 39.8882 16.3498Z" fill="#43B4BC"/>
<path d="M17.6745 10.0844C17.3455 10.0534 17.0152 10.0868 16.6885 10.1858C14.5845 10.8201 14.1604 12.214 15.2166 15.0148C16.9392 19.5637 20.363 35.3851 20.363 38.8C20.363 40.5122 20.4651 40.9569 20.9451 41.292C21.5415 41.7117 21.4868 42.4033 20.5079 46.6218C20.0006 48.8277 21.5819 47.218 22.3232 44.7856C22.7437 43.3905 23.0894 42.0921 23.0894 41.8906C23.0894 41.2205 40.881 41.3826 41.0722 42.0587C42.3553 46.6338 42.6202 47.3015 43.1405 47.3015C43.7678 47.3015 43.7702 47.2776 43.396 45.6322C42.5941 42.1374 42.644 41.5794 43.744 41.472C44.6671 41.3826 44.7586 41.2801 44.8441 40.2344C44.9012 39.5345 45.0948 39.0945 45.3407 39.0945C45.9015 39.0945 46.1141 38.3946 46.1094 36.5607C46.1046 34.5611 45.8516 33.6204 45.3181 33.6204C44.9819 33.6204 44.9012 32.7917 44.9012 29.4018C44.9012 24.5322 44.9677 24.6526 42.1747 24.3891C41.0936 24.2878 39.6597 24.1328 38.9944 24.0445C38.3268 23.9575 34.998 23.5461 31.5967 23.13C28.1943 22.7127 25.3894 22.3395 25.3609 22.2965C25.3348 22.2536 24.9332 21.1257 24.4687 19.789C22.3374 13.652 19.9804 10.3026 17.6745 10.0844Z" fill="#43B4BC"/>
<path d="M65.7819 6.49982C65.7819 5.30312 65.5955 4.33301 65.3656 4.33301C65.1356 4.33301 64.9492 5.30312 64.9492 6.49982V45.4995C64.9492 46.6962 65.1356 47.6663 65.3656 47.6663C65.5955 47.6663 65.7819 46.6962 65.7819 45.4995V6.49982Z" fill="#43B4BC"/>
<path d="M76.2683 37.4492C76.7761 37.4492 77.1609 37.627 77.4226 37.9824C77.6843 38.3379 77.8152 38.8828 77.8152 39.6172V44H76.9129V39.7988C76.9129 39.2793 76.8445 38.8906 76.7078 38.6328C76.575 38.375 76.364 38.2461 76.075 38.2461C75.6531 38.2461 75.3445 38.4336 75.1492 38.8086C74.9539 39.1836 74.8562 39.7852 74.8562 40.6133V44H73.9539V37.5664H74.6746L74.7742 38.498H74.8328C74.9226 38.2832 75.0379 38.0977 75.1785 37.9414C75.3191 37.7852 75.4812 37.6641 75.6648 37.5781C75.8484 37.4922 76.0496 37.4492 76.2683 37.4492ZM81.3175 37.4609C81.755 37.4609 82.1143 37.5879 82.3956 37.8418C82.6807 38.0957 82.8917 38.4375 83.0284 38.8672C83.169 39.2969 83.2393 39.7754 83.2393 40.3027V40.9414H80.1749C80.1827 41.7422 80.3057 42.3438 80.544 42.7461C80.7862 43.1484 81.1495 43.3496 81.6339 43.3496C81.8643 43.3496 82.0909 43.3145 82.3136 43.2441C82.5362 43.1738 82.7667 43.0605 83.005 42.9043V43.7129C82.7823 43.8496 82.5499 43.9512 82.3077 44.0176C82.0655 44.084 81.8077 44.1172 81.5343 44.1172C80.9991 44.1172 80.5655 43.9746 80.2335 43.6895C79.9015 43.4004 79.6593 43.0078 79.5069 42.5117C79.3585 42.0117 79.2843 41.4473 79.2843 40.8184C79.2843 40.0996 79.3604 39.4902 79.5128 38.9902C79.6651 38.4902 79.8917 38.1113 80.1925 37.8535C80.4972 37.5918 80.8722 37.4609 81.3175 37.4609ZM81.3175 38.1992C80.9776 38.1992 80.712 38.3652 80.5206 38.6973C80.3292 39.0254 80.2179 39.5332 80.1866 40.2207H82.3956C82.3956 39.8574 82.3565 39.5234 82.2784 39.2188C82.2042 38.9102 82.087 38.6641 81.9268 38.4805C81.7706 38.293 81.5675 38.1992 81.3175 38.1992ZM88.4877 44L87.7143 40.0098C87.6947 39.9004 87.6752 39.7871 87.6557 39.6699C87.6361 39.5527 87.6166 39.4355 87.5971 39.3184C87.5815 39.2012 87.5658 39.0859 87.5502 38.9727C87.5346 38.8555 87.519 38.7422 87.5033 38.6328H87.474C87.4584 38.7461 87.4408 38.8633 87.4213 38.9844C87.4057 39.1016 87.3881 39.2188 87.3686 39.3359C87.3529 39.4531 87.3354 39.5684 87.3158 39.6816C87.2963 39.7949 87.2768 39.9043 87.2572 40.0098L86.4369 44H85.4057L84.017 37.5664H84.9193L85.6049 40.918C85.644 41.1289 85.683 41.3457 85.7221 41.5684C85.7611 41.7871 85.7982 42.0078 85.8334 42.2305C85.8686 42.4492 85.9018 42.668 85.933 42.8867H85.9682C85.9877 42.75 86.0072 42.6074 86.0268 42.459C86.0502 42.3066 86.0736 42.1504 86.0971 41.9902C86.1244 41.8262 86.1537 41.6582 86.185 41.4863C86.2162 41.3105 86.2514 41.1328 86.2904 40.9531L86.9877 37.5664H87.9897L88.6811 40.9707C88.7162 41.1191 88.7494 41.291 88.7807 41.4863C88.8158 41.6816 88.851 41.8965 88.8861 42.1309C88.9213 42.3652 88.9584 42.6172 88.9975 42.8867H89.0326C89.0443 42.7695 89.06 42.6426 89.0795 42.5059C89.099 42.3691 89.1225 42.2207 89.1498 42.0605C89.1772 41.8965 89.2084 41.7227 89.2436 41.5391L90.0639 37.5664H90.9428L89.5248 44H88.4877ZM95.3223 44H94.42V34.8828H95.3223V44ZM97.9691 37.5664V44H97.0726V37.5664H97.9691ZM97.5355 35.1523C97.7191 35.1523 97.8519 35.2109 97.934 35.3281C98.0199 35.4453 98.0629 35.6074 98.0629 35.8145C98.0629 36.0176 98.0179 36.1777 97.9281 36.2949C97.8382 36.4121 97.7074 36.4707 97.5355 36.4707C97.3675 36.4707 97.2347 36.4121 97.1371 36.2949C97.0394 36.1777 96.9906 36.0176 96.9906 35.8145C96.9906 35.5996 97.0375 35.4355 97.1312 35.3223C97.225 35.209 97.3597 35.1523 97.5355 35.1523ZM101.747 38.3281H100.733V44H99.8366V38.3281H99.0456V37.8418L99.8366 37.5371V37.1035C99.8366 36.6152 99.8776 36.2012 99.9597 35.8613C100.046 35.5215 100.192 35.2637 100.399 35.0879C100.61 34.9082 100.899 34.8184 101.266 34.8184C101.438 34.8184 101.596 34.834 101.741 34.8652C101.889 34.8965 102.042 34.9434 102.198 35.0059L101.964 35.7324C101.854 35.6934 101.751 35.6641 101.653 35.6445C101.559 35.6211 101.466 35.6094 101.372 35.6094C101.13 35.6094 100.964 35.7168 100.874 35.9316C100.788 36.1426 100.741 36.5254 100.733 37.0801V37.5664H101.747V38.3281ZM104.663 37.4609C105.101 37.4609 105.46 37.5879 105.741 37.8418C106.026 38.0957 106.237 38.4375 106.374 38.8672C106.515 39.2969 106.585 39.7754 106.585 40.3027V40.9414H103.521C103.528 41.7422 103.651 42.3438 103.89 42.7461C104.132 43.1484 104.495 43.3496 104.979 43.3496C105.21 43.3496 105.437 43.3145 105.659 43.2441C105.882 43.1738 106.112 43.0605 106.351 42.9043V43.7129C106.128 43.8496 105.896 43.9512 105.653 44.0176C105.411 44.084 105.153 44.1172 104.88 44.1172C104.345 44.1172 103.911 43.9746 103.579 43.6895C103.247 43.4004 103.005 43.0078 102.853 42.5117C102.704 42.0117 102.63 41.4473 102.63 40.8184C102.63 40.0996 102.706 39.4902 102.858 38.9902C103.011 38.4902 103.237 38.1113 103.538 37.8535C103.843 37.5918 104.218 37.4609 104.663 37.4609ZM104.663 38.1992C104.323 38.1992 104.058 38.3652 103.866 38.6973C103.675 39.0254 103.563 39.5332 103.532 40.2207H105.741C105.741 39.8574 105.702 39.5234 105.624 39.2188C105.55 38.9102 105.433 38.6641 105.272 38.4805C105.116 38.293 104.913 38.1992 104.663 38.1992ZM112.47 38.3281H111.457V44H110.56V38.3281H109.769V37.8418L110.56 37.5371V37.1035C110.56 36.6152 110.601 36.2012 110.683 35.8613C110.769 35.5215 110.916 35.2637 111.123 35.0879C111.334 34.9082 111.623 34.8184 111.99 34.8184C112.162 34.8184 112.32 34.834 112.464 34.8652C112.613 34.8965 112.765 34.9434 112.922 35.0059L112.687 35.7324C112.578 35.6934 112.474 35.6641 112.377 35.6445C112.283 35.6211 112.189 35.6094 112.095 35.6094C111.853 35.6094 111.687 35.7168 111.597 35.9316C111.511 36.1426 111.464 36.5254 111.457 37.0801V37.5664H112.47V38.3281ZM117.607 40.7773C117.607 41.2852 117.564 41.7441 117.478 42.1543C117.393 42.5645 117.262 42.916 117.086 43.209C116.91 43.502 116.687 43.7266 116.418 43.8828C116.148 44.0391 115.83 44.1172 115.463 44.1172C115.111 44.1172 114.803 44.0391 114.537 43.8828C114.271 43.7266 114.051 43.5039 113.875 43.2148C113.699 42.9219 113.566 42.5703 113.477 42.1602C113.387 41.7461 113.342 41.2852 113.342 40.7773C113.342 40.0664 113.418 39.4648 113.57 38.9727C113.723 38.4766 113.957 38.0996 114.273 37.8418C114.59 37.5801 114.992 37.4492 115.48 37.4492C115.937 37.4492 116.324 37.5762 116.641 37.8301C116.957 38.0801 117.197 38.4531 117.361 38.9492C117.525 39.4414 117.607 40.0508 117.607 40.7773ZM114.262 40.7773C114.262 41.3359 114.305 41.8047 114.391 42.1836C114.477 42.5625 114.609 42.8477 114.789 43.0391C114.973 43.2305 115.205 43.3262 115.486 43.3262C115.764 43.3262 115.99 43.2324 116.166 43.0449C116.346 42.8574 116.478 42.5762 116.564 42.2012C116.65 41.8223 116.693 41.3477 116.693 40.7773C116.693 40.2188 116.65 39.752 116.564 39.377C116.478 38.998 116.346 38.7148 116.166 38.5273C115.99 38.3359 115.762 38.2402 115.48 38.2402C115.051 38.2402 114.74 38.4531 114.549 38.8789C114.357 39.3008 114.262 39.9336 114.262 40.7773ZM121.233 37.4551C121.323 37.4551 121.412 37.4629 121.502 37.4785C121.592 37.4902 121.686 37.5117 121.783 37.543L121.643 38.4688C121.573 38.4375 121.498 38.416 121.42 38.4043C121.342 38.3926 121.258 38.3867 121.168 38.3867C120.992 38.3867 120.83 38.4453 120.682 38.5625C120.537 38.6758 120.412 38.8359 120.307 39.043C120.201 39.25 120.119 39.4902 120.061 39.7637C120.006 40.0371 119.981 40.332 119.985 40.6484V44H119.082V37.5664H119.785L119.908 38.709H119.967C120.057 38.4629 120.162 38.2461 120.283 38.0586C120.405 37.8711 120.543 37.7246 120.699 37.6191C120.86 37.5098 121.037 37.4551 121.233 37.4551ZM127.288 38.3281H126.274V44H125.378V38.3281H124.587V37.8418L125.378 37.5371V37.1035C125.378 36.6152 125.419 36.2012 125.501 35.8613C125.587 35.5215 125.733 35.2637 125.94 35.0879C126.151 34.9082 126.44 34.8184 126.808 34.8184C126.979 34.8184 127.138 34.834 127.282 34.8652C127.431 34.8965 127.583 34.9434 127.739 35.0059L127.505 35.7324C127.395 35.6934 127.292 35.6641 127.194 35.6445C127.101 35.6211 127.007 35.6094 126.913 35.6094C126.671 35.6094 126.505 35.7168 126.415 35.9316C126.329 36.1426 126.282 36.5254 126.274 37.0801V37.5664H127.288V38.3281ZM132.273 37.5664V44H131.552L131.452 43.0859H131.388C131.302 43.2969 131.189 43.4805 131.048 43.6367C130.911 43.7891 130.753 43.9082 130.573 43.9941C130.394 44.0762 130.193 44.1172 129.97 44.1172C129.595 44.1172 129.292 44.0234 129.062 43.8359C128.835 43.6484 128.669 43.3809 128.564 43.0332C128.462 42.6855 128.411 42.2715 128.411 41.791V37.5664H129.314V41.6211C129.314 42.1992 129.38 42.625 129.513 42.8984C129.65 43.1719 129.857 43.3086 130.134 43.3086C130.435 43.3086 130.675 43.2266 130.855 43.0625C131.034 42.8945 131.165 42.6426 131.247 42.3066C131.329 41.9668 131.37 41.5371 131.37 41.0176V37.5664H132.273ZM136.179 37.4551C136.269 37.4551 136.359 37.4629 136.449 37.4785C136.539 37.4902 136.632 37.5117 136.73 37.543L136.589 38.4688C136.519 38.4375 136.445 38.416 136.367 38.4043C136.289 38.3926 136.205 38.3867 136.115 38.3867C135.939 38.3867 135.777 38.4453 135.628 38.5625C135.484 38.6758 135.359 38.8359 135.253 39.043C135.148 39.25 135.066 39.4902 135.007 39.7637C134.953 40.0371 134.927 40.332 134.931 40.6484V44H134.029V37.5664H134.732L134.855 38.709H134.914C135.003 38.4629 135.109 38.2461 135.23 38.0586C135.351 37.8711 135.49 37.7246 135.646 37.6191C135.806 37.5098 135.984 37.4551 136.179 37.4551ZM140.121 37.4492C140.629 37.4492 141.014 37.627 141.275 37.9824C141.537 38.3379 141.668 38.8828 141.668 39.6172V44H140.766V39.7988C140.766 39.2793 140.697 38.8906 140.56 38.6328C140.428 38.375 140.217 38.2461 139.928 38.2461C139.506 38.2461 139.197 38.4336 139.002 38.8086C138.807 39.1836 138.709 39.7852 138.709 40.6133V44H137.807V37.5664H138.527L138.627 38.498H138.685C138.775 38.2832 138.891 38.0977 139.031 37.9414C139.172 37.7852 139.334 37.6641 139.517 37.5781C139.701 37.4922 139.902 37.4492 140.121 37.4492ZM144.309 37.5664V44H143.412V37.5664H144.309ZM143.875 35.1523C144.059 35.1523 144.192 35.2109 144.274 35.3281C144.36 35.4453 144.403 35.6074 144.403 35.8145C144.403 36.0176 144.358 36.1777 144.268 36.2949C144.178 36.4121 144.047 36.4707 143.875 36.4707C143.707 36.4707 143.574 36.4121 143.477 36.2949C143.379 36.1777 143.33 36.0176 143.33 35.8145C143.33 35.5996 143.377 35.4355 143.471 35.3223C143.565 35.209 143.699 35.1523 143.875 35.1523ZM147.577 43.3203C147.674 43.3203 147.772 43.3105 147.87 43.291C147.967 43.2676 148.061 43.2363 148.151 43.1973V43.9355C148.03 43.9902 147.899 44.0332 147.758 44.0645C147.618 44.0996 147.461 44.1172 147.29 44.1172C147.012 44.1172 146.784 44.0547 146.604 43.9297C146.428 43.8047 146.297 43.6191 146.211 43.373C146.129 43.123 146.088 42.8105 146.088 42.4355V38.3223H145.491V37.8301L146.129 37.5898L146.37 36.1074H146.991V37.5664H148.081V38.3223H146.991V42.3301C146.991 42.6621 147.03 42.9102 147.108 43.0742C147.19 43.2383 147.346 43.3203 147.577 43.3203ZM153.13 37.5664V44H152.409L152.309 43.0859H152.245C152.159 43.2969 152.046 43.4805 151.905 43.6367C151.768 43.7891 151.61 43.9082 151.431 43.9941C151.251 44.0762 151.05 44.1172 150.827 44.1172C150.452 44.1172 150.149 44.0234 149.919 43.8359C149.692 43.6484 149.526 43.3809 149.421 43.0332C149.319 42.6855 149.268 42.2715 149.268 41.791V37.5664H150.171V41.6211C150.171 42.1992 150.237 42.625 150.37 42.8984C150.507 43.1719 150.714 43.3086 150.991 43.3086C151.292 43.3086 151.532 43.2266 151.712 43.0625C151.891 42.8945 152.022 42.6426 152.104 42.3066C152.186 41.9668 152.227 41.5371 152.227 41.0176V37.5664H153.13ZM157.036 37.4551C157.126 37.4551 157.216 37.4629 157.306 37.4785C157.396 37.4902 157.489 37.5117 157.587 37.543L157.446 38.4688C157.376 38.4375 157.302 38.416 157.224 38.4043C157.146 38.3926 157.062 38.3867 156.972 38.3867C156.796 38.3867 156.634 38.4453 156.486 38.5625C156.341 38.6758 156.216 38.8359 156.111 39.043C156.005 39.25 155.923 39.4902 155.864 39.7637C155.81 40.0371 155.784 40.332 155.788 40.6484V44H154.886V37.5664H155.589L155.712 38.709H155.771C155.861 38.4629 155.966 38.2461 156.087 38.0586C156.208 37.8711 156.347 37.7246 156.503 37.6191C156.663 37.5098 156.841 37.4551 157.036 37.4551ZM160.433 37.4609C160.871 37.4609 161.23 37.5879 161.511 37.8418C161.796 38.0957 162.007 38.4375 162.144 38.8672C162.285 39.2969 162.355 39.7754 162.355 40.3027V40.9414H159.291C159.298 41.7422 159.421 42.3438 159.66 42.7461C159.902 43.1484 160.265 43.3496 160.749 43.3496C160.98 43.3496 161.207 43.3145 161.429 43.2441C161.652 43.1738 161.882 43.0605 162.121 42.9043V43.7129C161.898 43.8496 161.666 43.9512 161.423 44.0176C161.181 44.084 160.923 44.1172 160.65 44.1172C160.115 44.1172 159.681 43.9746 159.349 43.6895C159.017 43.4004 158.775 43.0078 158.623 42.5117C158.474 42.0117 158.4 41.4473 158.4 40.8184C158.4 40.0996 158.476 39.4902 158.628 38.9902C158.781 38.4902 159.007 38.1113 159.308 37.8535C159.613 37.5918 159.988 37.4609 160.433 37.4609ZM160.433 38.1992C160.093 38.1992 159.828 38.3652 159.636 38.6973C159.445 39.0254 159.333 39.5332 159.302 40.2207H161.511C161.511 39.8574 161.472 39.5234 161.394 39.2188C161.32 38.9102 161.203 38.6641 161.042 38.4805C160.886 38.293 160.683 38.1992 160.433 38.1992Z" fill="black"/>
<path d="M77.08 27.18C76.1467 27.18 75.3667 26.98 74.74 26.58C74.1267 26.18 73.66 25.6267 73.34 24.92C73.02 24.2133 72.8333 23.3933 72.78 22.46L74.78 21.92C74.82 22.4933 74.9067 23.0467 75.04 23.58C75.1867 24.1133 75.42 24.5533 75.74 24.9C76.06 25.2333 76.5067 25.4 77.08 25.4C77.6667 25.4 78.1067 25.24 78.4 24.92C78.7067 24.5867 78.86 24.1133 78.86 23.5C78.86 22.7667 78.6933 22.18 78.36 21.74C78.0267 21.2867 77.6067 20.8333 77.1 20.38L74.38 17.98C73.8467 17.5133 73.4533 17.0067 73.2 16.46C72.9467 15.9 72.82 15.2133 72.82 14.4C72.82 13.2133 73.16 12.2933 73.84 11.64C74.52 10.9867 75.4467 10.66 76.62 10.66C77.26 10.66 77.82 10.7467 78.3 10.92C78.7933 11.08 79.2 11.3333 79.52 11.68C79.8533 12.0267 80.1133 12.4667 80.3 13C80.5 13.52 80.6333 14.1333 80.7 14.84L78.78 15.36C78.74 14.8267 78.66 14.34 78.54 13.9C78.42 13.4467 78.2067 13.0867 77.9 12.82C77.6067 12.54 77.18 12.4 76.62 12.4C76.06 12.4 75.62 12.5533 75.3 12.86C74.9933 13.1533 74.84 13.5933 74.84 14.18C74.84 14.6733 74.92 15.08 75.08 15.4C75.2533 15.72 75.5267 16.0467 75.9 16.38L78.64 18.78C79.2533 19.3133 79.7933 19.9533 80.26 20.7C80.7267 21.4333 80.96 22.3067 80.96 23.32C80.96 24.12 80.7933 24.8133 80.46 25.4C80.1267 25.9733 79.6667 26.4133 79.08 26.72C78.5067 27.0267 77.84 27.18 77.08 27.18ZM85.7131 27.16C84.8598 27.16 84.1865 26.9867 83.6931 26.64C83.1998 26.2933 82.8465 25.8 82.6331 25.16C82.4331 24.52 82.3331 23.7667 82.3331 22.9V19.54C82.3331 18.6733 82.4331 17.92 82.6331 17.28C82.8465 16.64 83.1998 16.1467 83.6931 15.8C84.1865 15.4533 84.8598 15.28 85.7131 15.28C86.5665 15.28 87.2331 15.4533 87.7131 15.8C88.2065 16.1467 88.5531 16.64 88.7531 17.28C88.9665 17.92 89.0731 18.6733 89.0731 19.54V22.9C89.0731 23.7667 88.9665 24.52 88.7531 25.16C88.5531 25.8 88.2065 26.2933 87.7131 26.64C87.2331 26.9867 86.5665 27.16 85.7131 27.16ZM85.7131 25.58C86.1265 25.58 86.4131 25.46 86.5731 25.22C86.7465 24.98 86.8465 24.6667 86.8731 24.28C86.9131 23.88 86.9331 23.4667 86.9331 23.04V19.42C86.9331 18.98 86.9131 18.5667 86.8731 18.18C86.8465 17.7933 86.7465 17.48 86.5731 17.24C86.4131 16.9867 86.1265 16.86 85.7131 16.86C85.2998 16.86 85.0065 16.9867 84.8331 17.24C84.6598 17.48 84.5531 17.7933 84.5131 18.18C84.4865 18.5667 84.4731 18.98 84.4731 19.42V23.04C84.4731 23.4667 84.4865 23.88 84.5131 24.28C84.5531 24.6667 84.6598 24.98 84.8331 25.22C85.0065 25.46 85.2998 25.58 85.7131 25.58ZM91.7092 27V17.02H90.3292V15.44H91.7092V14.84C91.7092 14.12 91.7626 13.5067 91.8692 13C91.9892 12.48 92.2292 12.08 92.5892 11.8C92.9492 11.52 93.4892 11.38 94.2092 11.38C94.4759 11.38 94.7092 11.3933 94.9092 11.42C95.1226 11.4333 95.3559 11.4667 95.6092 11.52V13.08C95.4892 13.0533 95.3559 13.0333 95.2092 13.02C95.0626 12.9933 94.9292 12.98 94.8092 12.98C94.3959 12.98 94.1292 13.12 94.0092 13.4C93.9026 13.6667 93.8492 14.0267 93.8492 14.48V15.44H95.6092V17.02H93.8492V27H91.7092ZM98.2966 27.16C97.8432 27.16 97.4432 27.0333 97.0966 26.78C96.7499 26.5133 96.4766 26.18 96.2766 25.78C96.0766 25.3667 95.9766 24.9333 95.9766 24.48C95.9766 23.76 96.0966 23.1533 96.3366 22.66C96.5766 22.1667 96.9032 21.7533 97.3166 21.42C97.7432 21.0733 98.2299 20.7733 98.7766 20.52C99.3366 20.2667 99.9232 20.02 100.537 19.78V18.96C100.537 18.4933 100.51 18.1067 100.457 17.8C100.403 17.4933 100.29 17.2667 100.117 17.12C99.9566 16.96 99.7099 16.88 99.3766 16.88C99.0832 16.88 98.8432 16.9467 98.6566 17.08C98.4832 17.2133 98.3566 17.4067 98.2766 17.66C98.1966 17.9 98.1566 18.1867 98.1566 18.52V19.1L96.0366 19.02C96.0632 17.74 96.3566 16.8 96.9166 16.2C97.4766 15.5867 98.3432 15.28 99.5166 15.28C100.663 15.28 101.477 15.5933 101.957 16.22C102.437 16.8467 102.677 17.7533 102.677 18.94V24.22C102.677 24.58 102.683 24.9267 102.697 25.26C102.723 25.5933 102.75 25.9067 102.777 26.2C102.817 26.48 102.85 26.7467 102.877 27H100.917C100.877 26.7867 100.823 26.52 100.757 26.2C100.703 25.8667 100.663 25.5667 100.637 25.3C100.503 25.7533 100.243 26.18 99.8566 26.58C99.4832 26.9667 98.9632 27.16 98.2966 27.16ZM99.1366 25.32C99.3499 25.32 99.5499 25.26 99.7366 25.14C99.9232 25.02 100.09 24.8867 100.237 24.74C100.383 24.58 100.483 24.4533 100.537 24.36V21.08C100.203 21.2667 99.8899 21.4533 99.5966 21.64C99.3032 21.8267 99.0432 22.0267 98.8166 22.24C98.6032 22.44 98.4299 22.6733 98.2966 22.94C98.1766 23.1933 98.1166 23.4867 98.1166 23.82C98.1166 24.2867 98.2032 24.6533 98.3766 24.92C98.5499 25.1867 98.8032 25.32 99.1366 25.32ZM113.55 27.18C112.404 27.18 111.51 26.94 110.87 26.46C110.244 25.98 109.804 25.3333 109.55 24.52C109.31 23.7067 109.19 22.8 109.19 21.8V16.08C109.19 14.9867 109.31 14.0333 109.55 13.22C109.804 12.4067 110.244 11.78 110.87 11.34C111.51 10.8867 112.404 10.66 113.55 10.66C114.564 10.66 115.364 10.8467 115.95 11.22C116.55 11.5933 116.977 12.1267 117.23 12.82C117.497 13.5133 117.63 14.3467 117.63 15.32V16.6H115.49V15.46C115.49 14.86 115.457 14.3333 115.39 13.88C115.337 13.4133 115.177 13.0533 114.91 12.8C114.644 12.5467 114.197 12.42 113.57 12.42C112.93 12.42 112.464 12.56 112.17 12.84C111.877 13.1067 111.684 13.4933 111.59 14C111.51 14.4933 111.47 15.0733 111.47 15.74V22.16C111.47 22.9733 111.537 23.62 111.67 24.1C111.804 24.5667 112.024 24.9 112.33 25.1C112.637 25.3 113.05 25.4 113.57 25.4C114.184 25.4 114.624 25.2667 114.89 25C115.157 24.72 115.324 24.34 115.39 23.86C115.457 23.38 115.49 22.82 115.49 22.18V20.98H117.63V22.18C117.63 23.1667 117.51 24.04 117.27 24.8C117.03 25.5467 116.617 26.1333 116.03 26.56C115.444 26.9733 114.617 27.18 113.55 27.18ZM119.803 27V10.8H121.943V27H119.803ZM127.374 27.16C126.467 27.16 125.767 26.9867 125.274 26.64C124.78 26.28 124.434 25.76 124.234 25.08C124.047 24.3867 123.954 23.54 123.954 22.54V19.9C123.954 18.8733 124.054 18.02 124.254 17.34C124.454 16.66 124.8 16.1467 125.294 15.8C125.8 15.4533 126.494 15.28 127.374 15.28C128.347 15.28 129.06 15.48 129.514 15.88C129.98 16.28 130.287 16.86 130.434 17.62C130.58 18.3667 130.654 19.2667 130.654 20.32V21.26H126.094V23.58C126.094 24.0467 126.134 24.4267 126.214 24.72C126.307 25.0133 126.447 25.2333 126.634 25.38C126.834 25.5133 127.087 25.58 127.394 25.58C127.714 25.58 127.954 25.5067 128.114 25.36C128.287 25.2 128.4 24.98 128.454 24.7C128.52 24.4067 128.554 24.0667 128.554 23.68V22.98H130.634V23.42C130.634 24.58 130.387 25.4933 129.894 26.16C129.4 26.8267 128.56 27.16 127.374 27.16ZM126.094 20.1H128.554V19.06C128.554 18.58 128.527 18.18 128.474 17.86C128.42 17.5267 128.307 17.28 128.134 17.12C127.974 16.9467 127.714 16.86 127.354 16.86C127.007 16.86 126.74 16.94 126.554 17.1C126.38 17.26 126.26 17.5333 126.194 17.92C126.127 18.2933 126.094 18.8133 126.094 19.48V20.1ZM134.332 27.16C133.878 27.16 133.478 27.0333 133.132 26.78C132.785 26.5133 132.512 26.18 132.312 25.78C132.112 25.3667 132.012 24.9333 132.012 24.48C132.012 23.76 132.132 23.1533 132.372 22.66C132.612 22.1667 132.938 21.7533 133.352 21.42C133.778 21.0733 134.265 20.7733 134.812 20.52C135.372 20.2667 135.958 20.02 136.572 19.78V18.96C136.572 18.4933 136.545 18.1067 136.492 17.8C136.438 17.4933 136.325 17.2667 136.152 17.12C135.992 16.96 135.745 16.88 135.412 16.88C135.118 16.88 134.878 16.9467 134.692 17.08C134.518 17.2133 134.392 17.4067 134.312 17.66C134.232 17.9 134.192 18.1867 134.192 18.52V19.1L132.072 19.02C132.098 17.74 132.392 16.8 132.952 16.2C133.512 15.5867 134.378 15.28 135.552 15.28C136.698 15.28 137.512 15.5933 137.992 16.22C138.472 16.8467 138.712 17.7533 138.712 18.94V24.22C138.712 24.58 138.718 24.9267 138.732 25.26C138.758 25.5933 138.785 25.9067 138.812 26.2C138.852 26.48 138.885 26.7467 138.912 27H136.952C136.912 26.7867 136.858 26.52 136.792 26.2C136.738 25.8667 136.698 25.5667 136.672 25.3C136.538 25.7533 136.278 26.18 135.892 26.58C135.518 26.9667 134.998 27.16 134.332 27.16ZM135.172 25.32C135.385 25.32 135.585 25.26 135.772 25.14C135.958 25.02 136.125 24.8867 136.272 24.74C136.418 24.58 136.518 24.4533 136.572 24.36V21.08C136.238 21.2667 135.925 21.4533 135.632 21.64C135.338 21.8267 135.078 22.0267 134.852 22.24C134.638 22.44 134.465 22.6733 134.332 22.94C134.212 23.1933 134.152 23.4867 134.152 23.82C134.152 24.2867 134.238 24.6533 134.412 24.92C134.585 25.1867 134.838 25.32 135.172 25.32ZM140.775 27V15.44H142.915V16.58C143.302 16.22 143.729 15.9133 144.195 15.66C144.662 15.4067 145.175 15.28 145.735 15.28C146.202 15.28 146.555 15.4 146.795 15.64C147.049 15.88 147.222 16.18 147.315 16.54C147.422 16.9 147.475 17.2667 147.475 17.64V27H145.335V18.26C145.335 17.8467 145.275 17.5267 145.155 17.3C145.035 17.0733 144.789 16.96 144.415 16.96C144.175 16.96 143.922 17.0333 143.655 17.18C143.402 17.3133 143.155 17.48 142.915 17.68V27H140.775ZM154.315 27V10.8H160.595V12.48H156.575V17.84H159.835V19.44H156.575V25.38H160.635V27H154.315ZM161.379 27L163.979 20.92L161.439 15.44H163.479L165.179 19.1L166.679 15.44H168.779L166.139 21.18L168.819 27H166.779L164.959 23.08L163.399 27H161.379ZM170.053 30.8V15.44H172.193V16.36C172.446 16.0667 172.753 15.8133 173.113 15.6C173.473 15.3867 173.899 15.28 174.393 15.28C174.993 15.28 175.466 15.44 175.813 15.76C176.173 16.0667 176.439 16.46 176.613 16.94C176.786 17.4067 176.899 17.8867 176.953 18.38C177.006 18.86 177.033 19.2733 177.033 19.62V22.42C177.033 23.2333 176.953 24.0067 176.793 24.74C176.633 25.46 176.339 26.0467 175.913 26.5C175.499 26.94 174.913 27.16 174.153 27.16C173.739 27.16 173.373 27.06 173.053 26.86C172.733 26.6467 172.446 26.4067 172.193 26.14V30.8H170.053ZM173.733 25.48C174.106 25.48 174.373 25.3467 174.533 25.08C174.693 24.8 174.793 24.4267 174.833 23.96C174.873 23.4933 174.893 22.98 174.893 22.42V19.62C174.893 19.14 174.866 18.7 174.813 18.3C174.759 17.8867 174.646 17.56 174.473 17.32C174.299 17.08 174.026 16.96 173.653 16.96C173.373 16.96 173.106 17.02 172.853 17.14C172.599 17.26 172.379 17.4 172.193 17.56V24.96C172.393 25.1067 172.619 25.2333 172.873 25.34C173.126 25.4333 173.413 25.48 173.733 25.48ZM182.178 27.16C181.272 27.16 180.572 26.9867 180.078 26.64C179.585 26.28 179.238 25.76 179.038 25.08C178.852 24.3867 178.758 23.54 178.758 22.54V19.9C178.758 18.8733 178.858 18.02 179.058 17.34C179.258 16.66 179.605 16.1467 180.098 15.8C180.605 15.4533 181.298 15.28 182.178 15.28C183.152 15.28 183.865 15.48 184.318 15.88C184.785 16.28 185.092 16.86 185.238 17.62C185.385 18.3667 185.458 19.2667 185.458 20.32V21.26H180.898V23.58C180.898 24.0467 180.938 24.4267 181.018 24.72C181.112 25.0133 181.252 25.2333 181.438 25.38C181.638 25.5133 181.892 25.58 182.198 25.58C182.518 25.58 182.758 25.5067 182.918 25.36C183.092 25.2 183.205 24.98 183.258 24.7C183.325 24.4067 183.358 24.0667 183.358 23.68V22.98H185.438V23.42C185.438 24.58 185.192 25.4933 184.698 26.16C184.205 26.8267 183.365 27.16 182.178 27.16ZM180.898 20.1H183.358V19.06C183.358 18.58 183.332 18.18 183.278 17.86C183.225 17.5267 183.112 17.28 182.938 17.12C182.778 16.9467 182.518 16.86 182.158 16.86C181.812 16.86 181.545 16.94 181.358 17.1C181.185 17.26 181.065 17.5333 180.998 17.92C180.932 18.2933 180.898 18.8133 180.898 19.48V20.1ZM187.456 27V15.44H189.596V17.08C190.023 16.3733 190.45 15.9 190.876 15.66C191.303 15.42 191.73 15.3 192.156 15.3C192.21 15.3 192.256 15.3 192.296 15.3C192.35 15.3 192.416 15.3067 192.496 15.32V17.68C192.336 17.6133 192.15 17.56 191.936 17.52C191.736 17.4667 191.53 17.44 191.316 17.44C190.983 17.44 190.676 17.52 190.396 17.68C190.13 17.8267 189.863 18.12 189.596 18.56V27H187.456ZM196.902 27.16C196.302 27.16 195.816 27.0467 195.442 26.82C195.082 26.5933 194.816 26.2733 194.642 25.86C194.482 25.4467 194.402 24.96 194.402 24.4V16.86H193.182V15.44H194.402V12.06H196.542V15.44H198.402V16.86H196.542V24.26C196.542 24.7133 196.616 25.04 196.762 25.24C196.909 25.4267 197.189 25.52 197.602 25.52C197.709 25.52 197.829 25.5133 197.962 25.5C198.109 25.4867 198.249 25.4733 198.382 25.46V27.04C198.116 27.08 197.869 27.1067 197.642 27.12C197.416 27.1467 197.169 27.16 196.902 27.16Z" fill="#43B4BC"/>
</svg>
