<svg width="22" height="24" viewBox="0 0 22 24" fill="white" stroke="white" xmlns="http://www.w3.org/2000/svg">
<path d="M5.32427 1.02456L5.32471 1.02443C5.6347 0.935461 6.00217 1.08886 6.15517 1.47715L6.15599 1.47921L7.87474 5.81287L7.87489 5.81326C8.01517 6.16653 7.90748 6.56017 7.65768 6.7728L7.65767 6.77278L7.65342 6.77644L5.53506 8.60019L4.96902 9.08751L5.27566 9.76858C6.79813 13.1501 9.40855 15.8983 12.6476 17.5079L13.3797 17.8718L13.8818 17.2265L15.6134 15.001C15.6134 15.001 15.6134 15.001 15.6135 15.001C15.823 14.7317 16.1449 14.6619 16.4123 14.7791L16.4127 14.7793L20.5377 16.585L20.5398 16.5859C20.8597 16.725 21.0794 17.1277 20.9677 17.557L20.9676 17.5574L19.9364 21.5299L19.9358 21.5322C19.8398 21.9056 19.5368 22.1129 19.25 22.1129C9.21774 22.1129 1 13.5521 1 2.88915C1 2.49664 1.24916 2.19374 1.54479 2.10746C1.54518 2.10735 1.54556 2.10724 1.54594 2.10713L5.32427 1.02456ZM12.0256 1.00606C12.0288 1.00279 12.0312 1.00096 12.0326 1.00004C16.9381 1.0008 21 5.19601 21 10.473C21 10.515 20.9849 10.5394 20.9744 10.5504C20.9721 10.5528 20.9702 10.5545 20.9688 10.5555C20.9687 10.5555 20.9686 10.5554 20.9685 10.5554C20.9672 10.5543 20.9653 10.5527 20.9631 10.5504C20.9526 10.5394 20.9375 10.515 20.9375 10.473C20.9375 5.38184 16.9958 1.16763 12.0326 1.16687C12.0312 1.16595 12.0288 1.16412 12.0256 1.16086C12.0151 1.14981 12 1.12537 12 1.08346C12 1.04154 12.0151 1.0171 12.0256 1.00606ZM12.375 9.66735C12.4581 9.66735 12.5484 9.70157 12.6229 9.77991C12.6991 9.85992 12.75 9.97852 12.75 10.1119C12.75 10.2453 12.6991 10.3639 12.6229 10.4439C12.5484 10.5222 12.4581 10.5565 12.375 10.5565C12.2919 10.5565 12.2016 10.5222 12.1271 10.4439C12.0509 10.3639 12 10.2453 12 10.1119C12 9.97852 12.0509 9.85992 12.1271 9.77991C12.2016 9.70157 12.2919 9.66735 12.375 9.66735ZM12 5.41711C12 5.3752 12.0151 5.35076 12.0256 5.33971C12.0288 5.33644 12.0312 5.33461 12.0326 5.3337C14.6607 5.33446 16.875 7.58856 16.875 10.473C16.875 10.515 16.8599 10.5394 16.8494 10.5504C16.8471 10.5528 16.8452 10.5545 16.8438 10.5555C16.8423 10.5545 16.8404 10.5528 16.8381 10.5504C16.8276 10.5394 16.8125 10.515 16.8125 10.473C16.8125 7.77437 14.7184 5.50128 12.0326 5.50053C12.0312 5.49961 12.0288 5.49778 12.0256 5.49451C12.0151 5.48347 12 5.45903 12 5.41711Z" stroke-width="2" fill="none"/>
</svg>
