<?xml version="1.0" encoding="UTF-8" standalone="no"?>
<svg
   width="100"
   height="100"
   viewBox="0 0 100 100"
   fill="none"
   version="1.1"
   id="svg16"
   sodipodi:docname="chisto_preloader.svg"
   inkscape:version="1.2 (dc2aedaf03, 2022-05-15)"
   xmlns:inkscape="http://www.inkscape.org/namespaces/inkscape"
   xmlns:sodipodi="http://sodipodi.sourceforge.net/DTD/sodipodi-0.dtd"
   xmlns="http://www.w3.org/2000/svg"
   xmlns:svg="http://www.w3.org/2000/svg">
  <defs
     id="defs20" />
  <sodipodi:namedview
     id="namedview18"
     pagecolor="#ffffff"
     bordercolor="#666666"
     borderopacity="1.0"
     inkscape:showpageshadow="2"
     inkscape:pageopacity="0.0"
     inkscape:pagecheckerboard="0"
     inkscape:deskcolor="#d1d1d1"
     showgrid="false"
     inkscape:zoom="2.2584"
     inkscape:cx="59.555"
     inkscape:cy="65.09"
     inkscape:current-layer="svg16" />
  <path
     d="M 64.29,40.884 64.164,37.795 64.076,40.885 C 63.965,44.752 60.891,47.873 57.041,48.029 L 53.962,48.154 57.042,48.245 C 60.894,48.356 64.004,51.44 64.16,55.305 L 64.284,58.394 64.373,55.305 C 64.485,51.437 67.558,48.316 71.409,48.16 L 74.487,48.034 71.409,47.944 C 67.555,47.833 64.447,44.749 64.29,40.884 Z"
     fill="#43b4bc"
     id="path2" />
  <path
     d="M 75.187,37.095 C 73.357,37.043 71.884,35.578 71.809,33.743 L 71.75,32.278 71.706,33.743 C 71.655,35.58 70.196,37.061 68.368,37.135 L 66.908,37.195 68.369,37.237 C 70.197,37.291 71.673,38.754 71.748,40.589 L 71.807,42.055 71.849,40.588 C 71.902,38.752 73.361,37.272 75.187,37.198 L 76.649,37.138 Z"
     fill="#43b4bc"
     id="path4" />
  <path
     d="M 56.577,44.295 56.609,45.088 56.632,44.295 C 56.66,43.304 57.448,42.504 58.435,42.463 L 59.224,42.432 58.435,42.409 C 57.447,42.38 56.65,41.589 56.609,40.598 L 56.578,39.806 56.556,40.598 C 56.526,41.59 55.739,42.391 54.753,42.431 L 53.962,42.463 54.753,42.485 C 55.74,42.515 56.538,43.305 56.577,44.295 Z"
     fill="#43b4bc"
     id="path6" />
  <path
     d="M 34.363,38.029 C 34.035,37.998 33.704,38.032 33.378,38.131 31.274,38.765 30.849,40.159 31.906,42.96 33.628,47.509 37.052,63.33 37.052,66.745 37.052,68.457 37.154,68.902 37.634,69.237 38.23,69.657 38.176,70.348 37.197,74.567 36.69,76.773 38.271,75.163 39.012,72.731 39.433,71.336 39.778,70.037 39.778,69.836 39.778,69.166 57.57,69.328 57.761,70.004 59.044,74.579 59.309,75.246 59.83,75.246 60.457,75.246 60.459,75.223 60.085,73.577 59.283,70.082 59.333,69.524 60.433,69.417 61.356,69.328 61.448,69.225 61.533,68.179 61.59,67.48 61.784,67.039 62.03,67.039 62.591,67.039 62.803,66.34 62.798,64.506 62.794,62.506 62.541,61.565 62.007,61.565 61.671,61.565 61.59,60.737 61.59,57.347 61.59,52.477 61.657,52.598 58.864,52.334 57.783,52.233 56.349,52.078 55.683,51.989 55.016,51.902 51.687,51.491 48.286,51.075 44.883,50.658 42.078,50.284 42.05,50.242 42.024,50.199 41.622,49.071 41.158,47.734 39.026,41.597 36.669,38.248 34.363,38.029 Z"
     fill="#43b4bc"
     id="path8" />
  <path
     d="M 8.114,84.877 C 8.622,84.877 9.007,85.055 9.269,85.41 9.53,85.766 9.661,86.311 9.661,87.045 V 91.428 H 8.759 V 87.227 C 8.759,86.707 8.69,86.319 8.554,86.061 8.421,85.803 8.21,85.674 7.921,85.674 7.499,85.674 7.19,85.862 6.995,86.237 6.8,86.612 6.702,87.213 6.702,88.041 V 91.428 H 5.8 V 84.994 H 6.521 L 6.62,85.926 H 6.679 C 6.769,85.711 6.884,85.526 7.025,85.369 7.165,85.213 7.327,85.092 7.511,85.006 7.694,84.92 7.896,84.877 8.114,84.877 Z M 13.163,84.889 C 13.601,84.889 13.96,85.016 14.242,85.27 14.527,85.524 14.738,85.866 14.874,86.295 15.015,86.725 15.085,87.203 15.085,87.731 V 88.369 H 12.021 C 12.029,89.17 12.152,89.772 12.39,90.174 12.632,90.576 12.996,90.778 13.48,90.778 13.71,90.778 13.937,90.743 14.16,90.672 14.382,90.602 14.613,90.488 14.851,90.332 V 91.141 C 14.628,91.278 14.396,91.379 14.154,91.446 13.912,91.512 13.654,91.545 13.38,91.545 12.845,91.545 12.412,91.403 12.08,91.118 11.748,90.828 11.505,90.436 11.353,89.94 11.205,89.44 11.13,88.875 11.13,88.246 11.13,87.528 11.206,86.918 11.359,86.418 11.511,85.918 11.738,85.539 12.038,85.281 12.343,85.02 12.718,84.889 13.163,84.889 Z M 13.163,85.627 C 12.824,85.627 12.558,85.793 12.367,86.125 12.175,86.453 12.064,86.961 12.033,87.649 H 14.242 C 14.242,87.285 14.202,86.951 14.124,86.647 14.05,86.338 13.933,86.092 13.773,85.909 13.617,85.721 13.413,85.627 13.163,85.627 Z M 20.334,91.428 19.56,87.438 C 19.541,87.328 19.521,87.215 19.502,87.098 19.482,86.981 19.463,86.863 19.443,86.746 19.428,86.629 19.412,86.514 19.396,86.401 19.381,86.284 19.365,86.17 19.349,86.061 H 19.32 C 19.304,86.174 19.287,86.291 19.267,86.412 19.252,86.53 19.234,86.647 19.215,86.764 19.199,86.881 19.181,86.996 19.162,87.11 19.142,87.223 19.123,87.332 19.103,87.438 L 18.283,91.428 H 17.252 L 15.863,84.994 H 16.765 L 17.451,88.346 C 17.49,88.557 17.529,88.774 17.568,88.996 17.607,89.215 17.644,89.436 17.679,89.659 17.715,89.877 17.748,90.096 17.779,90.315 H 17.814 C 17.834,90.178 17.853,90.035 17.873,89.887 17.896,89.735 17.92,89.578 17.943,89.418 17.97,89.254 18,89.086 18.031,88.914 18.062,88.738 18.097,88.561 18.136,88.381 L 18.834,84.994 H 19.836 L 20.527,88.399 C 20.562,88.547 20.595,88.719 20.627,88.914 20.662,89.11 20.697,89.325 20.732,89.559 20.767,89.793 20.804,90.045 20.844,90.315 H 20.879 C 20.89,90.198 20.906,90.071 20.925,89.934 20.945,89.797 20.969,89.649 20.996,89.488 21.023,89.325 21.054,89.151 21.09,88.967 L 21.91,84.994 H 22.789 L 21.371,91.428 Z M 27.168,91.428 H 26.266 V 82.311 H 27.168 Z M 29.815,84.994 V 91.428 H 28.919 V 84.994 Z M 29.382,82.58 C 29.565,82.58 29.698,82.639 29.78,82.756 29.866,82.873 29.909,83.035 29.909,83.243 29.909,83.446 29.864,83.606 29.774,83.723 29.684,83.84 29.553,83.899 29.382,83.899 29.214,83.899 29.081,83.84 28.983,83.723 28.885,83.606 28.837,83.446 28.837,83.243 28.837,83.028 28.883,82.863 28.977,82.75 29.071,82.637 29.206,82.58 29.382,82.58 Z M 33.596,85.756 H 32.576 V 91.428 H 31.683 V 85.756 H 30.892 V 85.27 L 31.683,84.965 V 84.531 C 31.683,84.043 31.724,83.629 31.806,83.289 31.896,82.95 32.036,82.692 32.246,82.516 32.456,82.336 32.746,82.246 33.116,82.246 33.286,82.246 33.446,82.262 33.586,82.293 33.736,82.325 33.886,82.371 34.046,82.434 L 33.806,83.16 C 33.696,83.121 33.596,83.092 33.496,83.073 33.406,83.049 33.316,83.037 33.216,83.037 32.976,83.037 32.806,83.145 32.716,83.36 32.636,83.571 32.586,83.953 32.576,84.508 V 84.994 H 33.596 Z M 36.506,84.889 C 36.946,84.889 37.306,85.016 37.586,85.27 37.876,85.524 38.086,85.866 38.216,86.295 38.356,86.725 38.426,87.203 38.426,87.731 V 88.369 H 35.366 C 35.376,89.17 35.496,89.772 35.736,90.174 35.976,90.576 36.346,90.778 36.826,90.778 37.056,90.778 37.286,90.743 37.506,90.672 37.726,90.602 37.956,90.488 38.196,90.332 V 91.141 C 37.976,91.278 37.746,91.379 37.496,91.446 37.256,91.512 36.996,91.545 36.726,91.545 36.186,91.545 35.756,91.403 35.426,91.118 35.096,90.828 34.846,90.436 34.696,89.94 34.546,89.44 34.476,88.875 34.476,88.246 34.476,87.528 34.556,86.918 34.706,86.418 34.856,85.918 35.086,85.539 35.386,85.281 35.686,85.02 36.066,84.889 36.506,84.889 Z M 36.506,85.627 C 36.166,85.627 35.906,85.793 35.716,86.125 35.516,86.453 35.406,86.961 35.376,87.649 H 37.586 C 37.586,87.285 37.546,86.951 37.466,86.647 37.396,86.338 37.276,86.092 37.116,85.909 36.966,85.721 36.756,85.627 36.506,85.627 Z M 44.316,85.756 H 43.306 V 91.428 H 42.406 V 85.756 H 41.616 V 85.27 L 42.406,84.965 V 84.531 C 42.406,84.043 42.446,83.629 42.526,83.289 42.616,82.95 42.766,82.692 42.966,82.516 43.176,82.336 43.466,82.246 43.836,82.246 44.006,82.246 44.166,82.262 44.306,82.293 44.456,82.325 44.606,82.371 44.766,82.434 L 44.536,83.16 C 44.426,83.121 44.316,83.092 44.226,83.073 44.126,83.049 44.036,83.037 43.936,83.037 43.696,83.037 43.536,83.145 43.446,83.36 43.356,83.571 43.306,83.953 43.306,84.508 V 84.994 H 44.316 Z M 49.456,88.205 C 49.456,88.713 49.406,89.172 49.326,89.582 49.236,89.993 49.106,90.344 48.936,90.637 48.756,90.93 48.536,91.155 48.266,91.311 47.996,91.467 47.676,91.545 47.306,91.545 46.956,91.545 46.646,91.467 46.386,91.311 46.116,91.155 45.896,90.932 45.716,90.643 45.546,90.35 45.416,89.998 45.326,89.588 45.236,89.174 45.186,88.713 45.186,88.205 45.186,87.494 45.266,86.893 45.416,86.401 45.566,85.905 45.806,85.528 46.116,85.27 46.436,85.008 46.836,84.877 47.326,84.877 47.786,84.877 48.166,85.004 48.486,85.258 48.806,85.508 49.046,85.881 49.206,86.377 49.376,86.869 49.456,87.479 49.456,88.205 Z M 46.106,88.205 C 46.106,88.764 46.156,89.233 46.236,89.612 46.326,89.991 46.456,90.276 46.636,90.467 46.816,90.659 47.046,90.754 47.336,90.754 47.606,90.754 47.836,90.66 48.016,90.473 48.196,90.285 48.326,90.004 48.406,89.629 48.496,89.25 48.536,88.776 48.536,88.205 48.536,87.647 48.496,87.18 48.406,86.805 48.326,86.426 48.196,86.143 48.016,85.955 47.836,85.764 47.606,85.668 47.326,85.668 46.896,85.668 46.586,85.881 46.396,86.307 46.206,86.729 46.106,87.362 46.106,88.205 Z M 53.076,84.883 C 53.166,84.883 53.256,84.891 53.346,84.906 53.436,84.918 53.536,84.94 53.626,84.971 L 53.486,85.897 C 53.416,85.866 53.346,85.844 53.266,85.832 53.186,85.821 53.106,85.815 53.016,85.815 52.836,85.815 52.676,85.873 52.526,85.991 52.386,86.104 52.256,86.264 52.156,86.471 52.046,86.678 51.966,86.918 51.906,87.192 51.856,87.465 51.826,87.76 51.826,88.076 V 91.428 H 50.926 V 84.994 H 51.626 L 51.756,86.137 H 51.816 C 51.906,85.891 52.006,85.674 52.126,85.487 52.246,85.299 52.386,85.153 52.546,85.047 52.706,84.938 52.886,84.883 53.076,84.883 Z M 59.136,85.756 H 58.116 V 91.428 H 57.226 V 85.756 H 56.436 V 85.27 L 57.226,84.965 V 84.531 C 57.226,84.043 57.266,83.629 57.346,83.289 57.436,82.95 57.576,82.692 57.786,82.516 57.996,82.336 58.286,82.246 58.656,82.246 58.826,82.246 58.986,82.262 59.126,82.293 59.276,82.325 59.426,82.371 59.586,82.434 L 59.346,83.16 C 59.236,83.121 59.136,83.092 59.036,83.073 58.946,83.049 58.856,83.037 58.756,83.037 58.516,83.037 58.346,83.145 58.266,83.36 58.176,83.571 58.126,83.953 58.116,84.508 V 84.994 H 59.136 Z M 64.116,84.994 V 91.428 H 63.396 L 63.296,90.514 H 63.236 C 63.146,90.725 63.036,90.909 62.896,91.065 62.756,91.217 62.596,91.336 62.416,91.422 62.236,91.504 62.036,91.545 61.816,91.545 61.436,91.545 61.136,91.451 60.906,91.264 60.686,91.076 60.516,90.809 60.406,90.461 60.306,90.113 60.256,89.7 60.256,89.219 V 84.994 H 61.156 V 89.049 C 61.156,89.627 61.226,90.053 61.356,90.326 61.496,90.6 61.706,90.737 61.976,90.737 62.276,90.737 62.526,90.655 62.696,90.491 62.876,90.323 63.006,90.071 63.096,89.735 63.176,89.395 63.216,88.965 63.216,88.446 V 84.994 Z M 68.026,84.883 C 68.116,84.883 68.206,84.891 68.296,84.906 68.386,84.918 68.476,84.94 68.576,84.971 L 68.436,85.897 C 68.366,85.866 68.286,85.844 68.216,85.832 68.136,85.821 68.056,85.815 67.966,85.815 67.786,85.815 67.626,85.873 67.476,85.991 67.326,86.104 67.206,86.264 67.096,86.471 66.996,86.678 66.916,86.918 66.856,87.192 66.796,87.465 66.776,87.76 66.776,88.076 V 91.428 H 65.876 V 84.994 H 66.576 L 66.696,86.137 H 66.756 C 66.846,85.891 66.956,85.674 67.076,85.487 67.196,85.299 67.336,85.153 67.496,85.047 67.656,84.938 67.826,84.883 68.026,84.883 Z M 71.966,84.877 C 72.476,84.877 72.856,85.055 73.126,85.41 73.386,85.766 73.516,86.311 73.516,87.045 V 91.428 H 72.616 V 87.227 C 72.616,86.707 72.546,86.319 72.406,86.061 72.276,85.803 72.066,85.674 71.776,85.674 71.356,85.674 71.046,85.862 70.846,86.237 70.656,86.612 70.556,87.213 70.556,88.041 V 91.428 H 69.656 V 84.994 H 70.376 L 70.476,85.926 H 70.526 C 70.626,85.711 70.736,85.526 70.876,85.369 71.016,85.213 71.176,85.092 71.366,85.006 71.546,84.92 71.746,84.877 71.966,84.877 Z M 76.156,84.994 V 91.428 H 75.256 V 84.994 Z M 75.716,82.58 C 75.906,82.58 76.036,82.639 76.116,82.756 76.206,82.873 76.246,83.035 76.246,83.243 76.246,83.446 76.206,83.606 76.116,83.723 76.026,83.84 75.896,83.899 75.716,83.899 75.556,83.899 75.416,83.84 75.326,83.723 75.226,83.606 75.176,83.446 75.176,83.243 75.176,83.028 75.226,82.863 75.316,82.75 75.406,82.637 75.546,82.58 75.716,82.58 Z M 79.429,90.748 C 79.519,90.748 79.619,90.738 79.719,90.719 79.819,90.696 79.909,90.664 79.999,90.625 V 91.363 C 79.879,91.418 79.749,91.461 79.609,91.493 79.469,91.528 79.309,91.545 79.139,91.545 78.859,91.545 78.629,91.483 78.449,91.358 78.279,91.233 78.149,91.047 78.059,90.801 77.979,90.551 77.939,90.238 77.939,89.863 V 85.75 H 77.339 V 85.258 L 77.979,85.018 78.219,83.535 H 78.839 V 84.994 H 79.929 V 85.75 H 78.839 V 89.758 C 78.839,90.09 78.879,90.338 78.959,90.502 79.039,90.666 79.199,90.748 79.429,90.748 Z M 84.979,84.994 V 91.428 H 84.259 L 84.159,90.514 H 84.099 C 84.009,90.725 83.899,90.909 83.749,91.065 83.619,91.217 83.459,91.336 83.279,91.422 83.099,91.504 82.899,91.545 82.679,91.545 82.299,91.545 81.999,91.451 81.769,91.264 81.539,91.076 81.379,90.809 81.269,90.461 81.169,90.113 81.119,89.7 81.119,89.219 V 84.994 H 82.019 V 89.049 C 82.019,89.627 82.089,90.053 82.219,90.326 82.359,90.6 82.559,90.737 82.839,90.737 83.139,90.737 83.379,90.655 83.559,90.491 83.739,90.323 83.869,90.071 83.949,89.735 84.039,89.395 84.079,88.965 84.079,88.446 V 84.994 Z M 88.889,84.883 C 88.979,84.883 89.069,84.891 89.159,84.906 89.249,84.918 89.339,84.94 89.439,84.971 L 89.299,85.897 C 89.229,85.866 89.149,85.844 89.069,85.832 88.999,85.821 88.909,85.815 88.819,85.815 88.649,85.815 88.479,85.873 88.339,85.991 88.189,86.104 88.069,86.264 87.959,86.471 87.849,86.678 87.769,86.918 87.709,87.192 87.659,87.465 87.629,87.76 87.639,88.076 V 91.428 H 86.739 V 84.994 H 87.439 L 87.559,86.137 H 87.619 C 87.709,85.891 87.819,85.674 87.939,85.487 88.059,85.299 88.199,85.153 88.349,85.047 88.509,84.938 88.689,84.883 88.889,84.883 Z M 92.279,84.889 C 92.719,84.889 93.079,85.016 93.359,85.27 93.649,85.524 93.859,85.866 93.989,86.295 94.129,86.725 94.199,87.203 94.199,87.731 V 88.369 H 91.139 C 91.149,89.17 91.269,89.772 91.509,90.174 91.749,90.576 92.109,90.778 92.599,90.778 92.829,90.778 93.059,90.743 93.279,90.672 93.499,90.602 93.729,90.488 93.969,90.332 V 91.141 C 93.749,91.278 93.519,91.379 93.269,91.446 93.029,91.512 92.769,91.545 92.499,91.545 91.969,91.545 91.529,91.403 91.199,91.118 90.869,90.828 90.629,90.436 90.469,89.94 90.319,89.44 90.249,88.875 90.249,88.246 90.249,87.528 90.329,86.918 90.479,86.418 90.629,85.918 90.859,85.539 91.159,85.281 91.459,85.02 91.839,84.889 92.279,84.889 Z M 92.279,85.627 C 91.939,85.627 91.679,85.793 91.489,86.125 91.289,86.453 91.179,86.961 91.149,87.649 H 93.359 C 93.359,87.285 93.319,86.951 93.239,86.647 93.169,86.338 93.049,86.092 92.889,85.909 92.739,85.721 92.529,85.627 92.279,85.627 Z"
     fill="#000000"
     id="path12"
     style="fill:#43b4bc;fill-opacity:1" />
  <text
     xml:space="preserve"
     style="font-style:normal;font-variant:normal;font-weight:normal;font-stretch:normal;font-size:26px;line-height:1.25;font-family:Oswald;-inkscape-font-specification:'Oswald, Normal';font-variant-ligatures:normal;font-variant-caps:normal;font-variant-numeric:normal;font-variant-east-asian:normal;text-align:center;text-anchor:middle;fill:#43b4bc;fill-opacity:1"
     x="49.947"
     y="29.697"
     id="text334-5"><tspan
       sodipodi:role="line"
       id="tspan332-8"
       x="49.947"
       y="29.697">Chisto</tspan></text>
</svg>
