<svg width="88" height="88" viewBox="0 0 88 88" fill="none" xmlns="http://www.w3.org/2000/svg">
<g clip-path="url(#clip0_1_559)">
<path d="M38 29.5C38 28.6687 38.6687 28 39.5 28H44.5C45.3313 28 46 28.6687 46 29.5V31H46.5C47.3313 31 48 31.6688 48 32.5C48 33.3313 47.3313 34 46.5 34H37.5C36.6687 34 36 33.3313 36 32.5C36 31.6688 36.6687 31 37.5 31H38V29.5ZM32 44C32 39.5813 35.5813 36 40 36H48C52.4188 36 56 39.5813 56 44V56C56 58.2062 54.2062 60 52 60H36C33.7938 60 32 58.2062 32 56V44ZM48 44V50C48 51.1063 48.8937 52 50 52C51.1063 52 52 51.1063 52 50V44C52 42.8938 51.1063 42 50 42C48.8937 42 48 42.8938 48 44Z" fill="#3E9197"/>
</g>
<circle cx="44" cy="44" r="43" stroke="#3E9197" stroke-width="2"/>
<defs>
<clipPath id="clip0_1_559">
<rect width="24" height="32" fill="white" transform="translate(32 28)"/>
</clipPath>
</defs>
</svg>
