<svg width="88" height="88" viewBox="0 0 88 88" fill="none" xmlns="http://www.w3.org/2000/svg">
<path d="M42 30C40.8938 30 40 30.8937 40 32V32.1438V38.3687C40 38.7188 39.7188 39 39.3687 39C39.1437 39 38.9313 38.8812 38.8188 38.6812L35.8188 33.4375C31.1875 35.7188 28 40.4875 28 46V50H60V45.85C59.9437 40.4 56.7687 35.7 52.1812 33.4375L49.1812 38.6812C49.0688 38.8812 48.8563 39 48.6313 39C48.2812 39 48 38.7188 48 38.3687V32.1438V32C48 30.8937 47.1063 30 46 30H42ZM27.0375 52C26.4625 52 26 52.4625 26 53.0375C26 53.3313 26.125 53.6125 26.3625 53.7812C27.7188 54.775 32.9875 58 44 58C55.0125 58 60.2812 54.775 61.6375 53.7812C61.875 53.6063 62 53.3313 62 53.0375C62 52.4625 61.5375 52 60.9625 52H27.0375Z" fill="#3E9197"/>
<circle cx="44" cy="44" r="43" stroke="#3E9197" stroke-width="2"/>
</svg>
