<svg width="32" height="32" viewBox="0 0 32 32" fill="none" xmlns="http://www.w3.org/2000/svg">
<g clip-path="url(#clip0_1_608)">
<path d="M14.7766 3.8375L14.1891 4.71875C12.8578 6.71875 10.4766 7.75 8.10783 7.35L4.38283 6.73125C2.08908 6.35 0.0015765 8.11875 0.0078265 10.4438C0.0078265 11.4375 0.407827 12.3938 1.10783 13.1L2.93283 14.925C3.62033 15.6125 4.00783 16.5437 4.00783 17.5187C4.00783 18.5062 3.60783 19.45 2.90158 20.1437L2.08283 20.9438C1.38908 21.6187 1.00158 22.5438 1.00158 23.5125C1.00158 25.8125 3.13283 27.525 5.38283 27.025L9.27658 26.1625C9.75783 26.0562 10.2578 26 10.7516 26H11.3766C13.0766 26 14.7328 26.5812 16.0641 27.6437L17.9891 29.1875C18.6453 29.7125 19.4641 30 20.3016 30C22.3453 30 24.0078 28.3438 24.0078 26.2938V24.7188C24.0078 22.5375 25.3453 20.5813 27.3766 19.7938L29.6828 18.9C31.0828 18.3562 32.0078 17.0063 32.0078 15.5063C32.0078 13.75 30.7516 12.2375 29.0203 11.925L27.2703 11.6062C24.9891 11.1875 23.1828 9.45 22.6703 7.1875L22.2266 5.21875C21.8078 3.3375 20.1328 2 18.2078 2C16.8328 2 15.5453 2.6875 14.7766 3.8375ZM10.0016 12C10.532 12 11.0407 12.2107 11.4158 12.5858C11.7909 12.9609 12.0016 13.4696 12.0016 14C12.0016 14.5304 11.7909 15.0391 11.4158 15.4142C11.0407 15.7893 10.532 16 10.0016 16C9.47114 16 8.96244 15.7893 8.58736 15.4142C8.21229 15.0391 8.00158 14.5304 8.00158 14C8.00158 13.4696 8.21229 12.9609 8.58736 12.5858C8.96244 12.2107 9.47114 12 10.0016 12ZM18.0016 13C18.0016 12.7348 18.1069 12.4804 18.2945 12.2929C18.482 12.1054 18.7364 12 19.0016 12C19.2668 12 19.5211 12.1054 19.7087 12.2929C19.8962 12.4804 20.0016 12.7348 20.0016 13C20.0016 13.2652 19.8962 13.5196 19.7087 13.7071C19.5211 13.8946 19.2668 14 19.0016 14C18.7364 14 18.482 13.8946 18.2945 13.7071C18.1069 13.5196 18.0016 13.2652 18.0016 13ZM18.0016 18C18.532 18 19.0407 18.2107 19.4158 18.5858C19.7909 18.9609 20.0016 19.4696 20.0016 20C20.0016 20.5304 19.7909 21.0391 19.4158 21.4142C19.0407 21.7893 18.532 22 18.0016 22C17.4711 22 16.9624 21.7893 16.5874 21.4142C16.2123 21.0391 16.0016 20.5304 16.0016 20C16.0016 19.4696 16.2123 18.9609 16.5874 18.5858C16.9624 18.2107 17.4711 18 18.0016 18Z" fill="#3E9197"/>
</g>
<defs>
<clipPath id="clip0_1_608">
<rect width="32" height="32" fill="white"/>
</clipPath>
</defs>
</svg>
