<?xml version="1.0" encoding="UTF-8" standalone="no"?>
<svg
   width="32"
   height="32"
   viewBox="0 0 32 32"
   fill="none"
   version="1.1"
   id="svg190"
   sodipodi:docname="feather.svg"
   inkscape:version="1.2 (dc2aedaf03, 2022-05-15)"
   xmlns:inkscape="http://www.inkscape.org/namespaces/inkscape"
   xmlns:sodipodi="http://sodipodi.sourceforge.net/DTD/sodipodi-0.dtd"
   xmlns="http://www.w3.org/2000/svg"
   xmlns:svg="http://www.w3.org/2000/svg">
  <defs
     id="defs194" />
  <sodipodi:namedview
     id="namedview192"
     pagecolor="#ffffff"
     bordercolor="#666666"
     borderopacity="1.0"
     inkscape:showpageshadow="2"
     inkscape:pageopacity="0.0"
     inkscape:pagecheckerboard="0"
     inkscape:deskcolor="#d1d1d1"
     showgrid="false"
     inkscape:zoom="11.865"
     inkscape:cx="1.6857"
     inkscape:cy="23.347"
     inkscape:current-layer="svg190" />
  <path
     d="M 16.937,14.16 0.45479,25.803 C -0.1516,26.231 -0.1516,26.924 0.45479,27.348 1.0612,27.772 2.0417,27.777 2.6417,27.348 L 6.3187,24.75 H 10.705 C 13.912,24.75 17.021,24.093 19.672,22.881 20.388,22.552 20.027,21.832 19.169,21.832 18.84,21.832 18.576,21.645 18.576,21.413 18.576,21.226 18.75,21.066 18.995,21.012 L 24.22,19.904 C 24.381,19.868 24.53,19.808 24.652,19.722 L 26.097,18.7 C 26.749,18.24 26.284,17.456 25.368,17.456 H 23.291 C 22.962,17.456 22.698,17.269 22.698,17.037 22.698,16.85 22.872,16.69 23.117,16.636 L 30.342,15.104 C 30.6,15.049 30.82,14.926 30.942,14.753 31.639,13.796 32,12.724 32,11.626 32,9.7567 30.948,7.9652 29.078,6.6433 L 28.723,6.3926 C 26.859,5.0751 24.323,4.3321 21.678,4.3321 19.034,4.3321 16.498,5.0751 14.628,6.3971 L 7.9379,11.124 C 4.8414,13.312 3.0997,16.28 3.0997,19.375 V 21.896 L 15.331,13.258 C 15.731,12.975 16.389,12.975 16.789,13.258 17.137,13.504 17.182,13.878 16.931,14.16 Z"
     fill="#3e9197"
     id="path188" />
</svg>
