<?xml version="1.0" encoding="UTF-8" standalone="no"?>
<svg
   width="32"
   height="32"
   viewBox="0 0 32 32"
   fill="none"
   version="1.1"
   id="svg322"
   sodipodi:docname="microbes.svg"
   inkscape:version="1.2 (dc2aedaf03, 2022-05-15)"
   xmlns:inkscape="http://www.inkscape.org/namespaces/inkscape"
   xmlns:sodipodi="http://sodipodi.sourceforge.net/DTD/sodipodi-0.dtd"
   xmlns="http://www.w3.org/2000/svg"
   xmlns:svg="http://www.w3.org/2000/svg">
  <sodipodi:namedview
     id="namedview324"
     pagecolor="#ffffff"
     bordercolor="#666666"
     borderopacity="1.0"
     inkscape:showpageshadow="2"
     inkscape:pageopacity="0.0"
     inkscape:pagecheckerboard="0"
     inkscape:deskcolor="#d1d1d1"
     showgrid="false"
     inkscape:zoom="10.952"
     inkscape:cx="10.774"
     inkscape:cy="29.675"
     inkscape:current-layer="svg322" />
  <g
     clip-path="url(#clip0_1_604)"
     id="g315"
     transform="translate(0,3.2)">
    <path
       d="M 9.6,0 C 10.265,0 10.8,0.535 10.8,1.2 V 1.875 C 10.8,3.655 12.955,4.55 14.215,3.29 L 14.69,2.815 C 15.16,2.345 15.92,2.345 16.385,2.815 16.85,3.285 16.855,4.045 16.385,4.51 L 15.91,4.985 C 14.65,6.245 15.545,8.4 17.325,8.4 H 18 C 18.665,8.4 19.2,8.935 19.2,9.6 19.2,10.265 18.665,10.8 18,10.8 H 17.325 C 15.545,10.8 14.65,12.955 15.91,14.215 L 16.385,14.69 C 16.855,15.16 16.855,15.92 16.385,16.385 15.915,16.85 15.155,16.855 14.69,16.385 L 14.215,15.91 C 12.955,14.65 10.8,15.545 10.8,17.325 V 18 C 10.8,18.665 10.265,19.2 9.6,19.2 8.935,19.2 8.4,18.665 8.4,18 V 17.325 C 8.4,15.545 6.245,14.65 4.985,15.91 L 4.51,16.385 C 4.04,16.855 3.28,16.855 2.815,16.385 2.35,15.915 2.345,15.155 2.815,14.69 L 3.29,14.215 C 4.55,12.955 3.655,10.8 1.875,10.8 H 1.2 C 0.535,10.8 0,10.265 0,9.6 0,8.935 0.535,8.4 1.2,8.4 H 1.875 C 3.655,8.4 4.55,6.245 3.29,4.985 L 2.815,4.51 C 2.345,4.04 2.345,3.28 2.815,2.815 3.285,2.35 4.045,2.345 4.51,2.815 L 4.985,3.29 C 6.245,4.55 8.4,3.655 8.4,1.875 V 1.2 C 8.4,0.535 8.935,0 9.6,0 Z M 12,11.2 C 12.212,11.2 12.416,11.116 12.566,10.966 12.716,10.816 12.8,10.612 12.8,10.4 12.8,10.188 12.716,9.9843 12.566,9.8343 12.416,9.6843 12.212,9.6 12,9.6 11.788,9.6 11.584,9.6843 11.434,9.8343 11.284,9.9843 11.2,10.188 11.2,10.4 11.2,10.612 11.284,10.816 11.434,10.966 11.584,11.116 11.788,11.2 12,11.2 Z M 9.6,8 C 9.6,7.5757 9.4314,7.1687 9.1314,6.8686 8.8313,6.5686 8.4244,6.4 8,6.4 7.5757,6.4 7.1687,6.5686 6.8686,6.8686 6.5686,7.1687 6.4,7.5757 6.4,8 6.4,8.4244 6.5686,8.8313 6.8686,9.1314 7.1687,9.4314 7.5757,9.6 8,9.6 8.4244,9.6 8.8313,9.4314 9.1314,9.1314 9.4314,8.8313 9.6,8.4244 9.6,8 Z M 25.6,12 C 25.6,13.65 27.595,14.475 28.76,13.31 29.07,13 29.58,13 29.89,13.31 30.2,13.62 30.2,14.13 29.89,14.44 28.725,15.605 29.55,17.6 31.2,17.6 31.64,17.6 32,17.96 32,18.4 32,18.84 31.64,19.2 31.2,19.2 29.55,19.2 28.725,21.195 29.89,22.36 30.2,22.67 30.2,23.18 29.89,23.49 29.58,23.8 29.07,23.8 28.76,23.49 27.595,22.325 25.6,23.15 25.6,24.8 25.6,25.24 25.24,25.6 24.8,25.6 24.36,25.6 24,25.24 24,24.8 24,23.15 22.005,22.325 20.84,23.49 20.53,23.8 20.02,23.8 19.71,23.49 19.4,23.18 19.4,22.67 19.71,22.36 20.875,21.195 20.05,19.2 18.4,19.2 17.96,19.2 17.6,18.84 17.6,18.4 17.6,17.96 17.96,17.6 18.4,17.6 20.05,17.6 20.875,15.605 19.71,14.44 19.4,14.13 19.4,13.62 19.71,13.31 20.02,13 20.53,13 20.84,13.31 22.005,14.475 24,13.65 24,12 24,11.56 24.36,11.2 24.8,11.2 25.24,11.2 25.6,11.56 25.6,12 Z M 25.6,17.6 C 25.6,17.176 25.431,16.769 25.131,16.469 24.831,16.169 24.424,16 24,16 23.576,16 23.169,16.169 22.869,16.469 22.569,16.769 22.4,17.176 22.4,17.6 22.4,18.024 22.569,18.431 22.869,18.731 23.169,19.031 23.576,19.2 24,19.2 24.424,19.2 24.831,19.031 25.131,18.731 25.431,18.431 25.6,18.024 25.6,17.6 Z"
       fill="#3e9197"
       id="path313" />
  </g>
  <defs
     id="defs320">
    <clipPath
       id="clip0_1_604">
      <rect
         width="32"
         height="25.6"
         fill="#ffffff"
         id="rect317"
         x="0"
         y="0" />
    </clipPath>
  </defs>
</svg>
