<svg width="32" height="32" viewBox="0 0 32 32" fill="#3E9197" xmlns="http://www.w3.org/2000/svg">
<path d="M16 0C11.7565 0 7.68687 1.68571 4.68629 4.68629C1.68571 7.68687 0 11.7565 0 16C0 20.2435 1.68571 24.3131 4.68629 27.3137C7.68687 30.3143 11.7565 32 16 32C20.2435 32 24.3131 30.3143 27.3137 27.3137C30.3143 24.3131 32 20.2435 32 16C32 11.7565 30.3143 7.68687 27.3137 4.68629C24.3131 1.68571 20.2435 0 16 0ZM16.002 6.0039C17.652 6.0039 19.301 6.0277 20.127 6.0742C21.729 6.1549 23.144 6.5207 24.311 7.6895C25.478 8.8582 25.854 10.281 25.93 11.883C26.023 13.527 26.023 18.47 25.93 20.123C25.849 21.725 25.481 23.145 24.311 24.311C23.142 25.478 21.727 25.85 20.127 25.926C18.476 26.019 13.524 26.019 11.873 25.926C10.271 25.845 8.8575 25.48 7.6855 24.311C6.5145 23.143 6.1463 21.722 6.0703 20.123C5.9773 18.472 5.9773 13.521 6.0703 11.873C6.1513 10.271 6.5125 8.8517 7.6855 7.6855C8.8595 6.5193 10.277 6.1505 11.873 6.0742C12.698 6.0277 14.352 6.0039 16.002 6.0039ZM14.646 7.7891C13.092 7.7797 11.09 7.8093 10.102 8.2012C9.6714 8.3709 9.2821 8.6281 8.9551 8.9551C8.6281 9.282 8.3712 9.6717 8.2012 10.102C7.6842 11.414 7.7988 14.543 7.7988 15.998C7.7988 17.453 7.6831 20.578 8.2031 21.895C8.3731 22.325 8.63 22.714 8.957 23.041C9.284 23.368 9.6733 23.625 10.104 23.795C11.417 24.313 14.547 24.197 16.004 24.197C17.46 24.197 20.577 24.318 21.893 23.795C22.323 23.625 22.718 23.368 23.045 23.041C23.372 22.714 23.627 22.325 23.797 21.895C24.319 20.582 24.195 17.453 24.195 15.998C24.195 14.543 24.319 11.419 23.797 10.102H23.795C23.626 9.6717 23.366 9.282 23.039 8.9551C22.712 8.6281 22.321 8.3709 21.891 8.2012C20.578 7.6831 17.454 7.7988 15.998 7.7988C15.634 7.7988 15.164 7.7923 14.646 7.7891ZM21.273 9.4629C21.449 9.4543 21.629 9.4848 21.793 9.5527C22.012 9.6432 22.195 9.7974 22.326 9.9941C22.458 10.191 22.527 10.421 22.527 10.658C22.527 10.815 22.497 10.972 22.438 11.117C22.379 11.263 22.293 11.397 22.182 11.508C22.071 11.619 21.942 11.706 21.797 11.766C21.651 11.827 21.497 11.857 21.34 11.857L21.336 11.854C21.1 11.854 20.868 11.783 20.672 11.652C20.475 11.521 20.317 11.336 20.227 11.117C20.136 10.899 20.112 10.658 20.158 10.426C20.204 10.194 20.317 9.9799 20.484 9.8125C20.652 9.6452 20.868 9.5306 21.1 9.4844C21.158 9.4728 21.215 9.4657 21.273 9.4629ZM15.844 10.877C15.938 10.874 16.033 10.874 16.127 10.877C16.754 10.892 17.376 11.022 17.961 11.264C18.898 11.652 19.699 12.307 20.262 13.15C20.825 13.993 21.123 14.984 21.123 15.998C21.124 16.671 20.989 17.339 20.732 17.961C20.474 18.583 20.103 19.149 19.627 19.625C19.151 20.101 18.585 20.476 17.963 20.734C17.341 20.991 16.671 21.124 15.998 21.123C14.984 21.123 13.991 20.823 13.148 20.26C12.305 19.697 11.651 18.896 11.264 17.959C10.876 17.023 10.775 15.992 10.973 14.998C11.17 14.004 11.66 13.093 12.377 12.377C13.094 11.66 14.004 11.17 14.998 10.973C15.278 10.917 15.561 10.885 15.844 10.877ZM15.998 12.664C15.339 12.664 14.693 12.86 14.145 13.227C13.597 13.593 13.174 14.114 12.922 14.723C12.67 15.332 12.6 16.001 12.729 16.648C12.858 17.295 13.175 17.889 13.641 18.355C14.108 18.821 14.704 19.139 15.35 19.268C15.997 19.396 16.664 19.33 17.273 19.078C17.882 18.825 18.404 18.398 18.77 17.85C19.137 17.302 19.336 16.657 19.336 15.998C19.335 15.114 18.98 14.266 18.354 13.641C17.729 13.016 16.882 12.665 15.998 12.664Z"/>
</svg>
