<svg width="32" height="32" viewBox="0 0 32 32"  fill="#3E9197" xmlns="http://www.w3.org/2000/svg">
<path d="M16 0C11.7565 0 7.68687 1.68571 4.68629 4.68629C1.68571 7.68687 0 11.7565 0 16C0 20.2435 1.68571 24.3131 4.68629 27.3137C7.68687 30.3143 11.7565 32 16 32C20.2435 32 24.3131 30.3143 27.3137 27.3137C30.3143 24.3131 32 20.2435 32 16C32 11.7565 30.3143 7.68687 27.3137 4.68629C24.3131 1.68571 20.2435 0 16 0ZM15.992 6C18.642 5.9999 21.132 7.0318 23.006 8.9062C24.875 10.783 26 13.268 26.002 15.918C26 21.38 21.454 25.828 15.992 25.828C14.33 25.828 12.7 25.409 11.256 24.619L6 25.998L7.4043 20.859C6.5354 19.362 6.0823 17.657 6.082 15.904C6.0882 10.443 10.531 5.9997 15.992 6ZM15.998 7.6738C11.454 7.6735 7.7623 11.366 7.7559 15.91C7.756 17.466 8.1901 18.985 9.0156 20.289L9.2129 20.609L8.3809 23.643L11.498 22.83L11.801 23.01C13.065 23.763 14.511 24.158 15.992 24.158L15.998 24.16C20.537 24.159 24.33 20.46 24.33 15.918C24.33 13.718 23.379 11.649 21.822 10.094C20.259 8.5312 18.198 7.6738 15.998 7.6738ZM12.494 11.322C12.656 11.325 12.825 11.325 12.971 11.332C13.119 11.336 13.323 11.277 13.523 11.756C13.729 12.251 14.227 13.469 14.287 13.594C14.352 13.719 14.396 13.863 14.309 14.025C13.831 14.976 13.324 14.936 13.58 15.373C14.537 17.017 15.492 17.589 16.947 18.32C17.199 18.443 17.346 18.426 17.488 18.256C17.63 18.097 18.105 17.53 18.27 17.287C18.431 17.035 18.598 17.08 18.822 17.16C19.047 17.244 20.268 17.844 20.518 17.969C20.771 18.093 20.931 18.158 20.994 18.258C21.048 18.375 21.05 18.872 20.844 19.447C20.637 20.029 19.652 20.562 19.176 20.629C18.388 20.741 17.774 20.678 16.207 20.008C13.724 18.932 12.098 16.432 11.973 16.271C11.848 16.105 10.962 14.924 10.963 13.707C10.962 12.486 11.599 11.889 11.83 11.639C12.055 11.389 12.326 11.322 12.494 11.322Z"/>
</svg>
